<svg viewBox="0 0 170.08 170.08" xmlns="http://www.w3.org/2000/svg" xmlns:xlink="http://www.w3.org/1999/xlink"><clipPath id="a"><circle cx="85.04" cy="84.63" r="85.04"/></clipPath><clipPath id="b"><circle cx="263.81" cy="85.04" r="85.04"/></clipPath><circle cx="85.04" cy="84.63" fill="#ed6b1d" r="85.04"/><path d="m65.59 76.21a5.19 5.19 0 0 1 -.42.93 8.64 8.64 0 0 0 -.37 1.12c-.23.8-.41 1.59-.69 2.38a22.87 22.87 0 0 1 -2.4 5.19 15.89 15.89 0 0 1 -3.92 3.84c-.74.55-1.49 1.08-2.27 1.56a16.66 16.66 0 0 1 -2.37 1.47c-.47.19-.27 1 .21.77a15.44 15.44 0 0 0 2.17-1.31c.87-.53 1.71-1.1 2.54-1.71a17.89 17.89 0 0 0 4-3.76 20 20 0 0 0 2.54-5.11 25.6 25.6 0 0 0 .85-2.7 7.68 7.68 0 0 1 .44-1.41 5.94 5.94 0 0 0 .45-1c.11-.51-.66-.72-.77-.22z" fill="#fff"/><path d="m72.62 108.11c8-2.21 13.43-3.9 22.35 2.17" fill="none" stroke="#fff" stroke-miterlimit="10" stroke-width=".7"/><g fill="#fff"><path d="m96.35 96.31a6.69 6.69 0 0 0 1.17-.15c.36-.09.74-.07 1.1-.18a5.08 5.08 0 0 0 2-1 2.6 2.6 0 0 0 .63-.8c.14-.29.22-.6.33-.9a5.74 5.74 0 0 0 .38-1c.07-.37.08-.75.12-1.13a.39.39 0 0 0 -.4-.4.41.41 0 0 0 -.4.4c0 .32 0 .64-.1 1a5.44 5.44 0 0 1 -.32.88c-.1.26-.17.54-.28.81a2.12 2.12 0 0 1 -.52.67 4.21 4.21 0 0 1 -1.67.85c-.31.09-.64.07-1 .14a6.18 6.18 0 0 1 -1.05.15c-.51 0-.52.83 0 .8z"/><path d="m102.33 91.68c.72.09 1.56.31 1.75 1.12a1.4 1.4 0 0 1 -.75 1.53 4.8 4.8 0 0 1 -1.24.31 4.82 4.82 0 0 0 -1.36.32 1.28 1.28 0 0 1 -.63.18h-.63a3.81 3.81 0 0 1 -.67-.07 3.35 3.35 0 0 0 -.71.06c-.51 0-.51.82 0 .8a4.39 4.39 0 0 1 .61-.07c.21 0 .41.09.62.09a4.32 4.32 0 0 0 .62 0 2.65 2.65 0 0 0 .69-.07 2.77 2.77 0 0 0 .55-.26 2.34 2.34 0 0 1 .7-.12 9.09 9.09 0 0 0 1.28-.27 2.26 2.26 0 0 0 1.57-1.3 2.06 2.06 0 0 0 -.14-1.94 2.92 2.92 0 0 0 -2.26-1.11c-.21 0-.39.2-.4.4a.41.41 0 0 0 .4.4z"/><path d="m62.31 77.11h-.07l.2.74c2.46-1.23 4.76-2.72 7.57-3a21.4 21.4 0 0 1 4.73-.26 29 29 0 0 1 3 .36c.79.16 1.52.5 2.3.67 3.17.72 6-.08 9-1.11 2.28-.78 5.26-2.07 5.85-4.69.11-.5-.66-.72-.77-.22-.72 3.21-5.18 4.07-7.79 4.91a10.62 10.62 0 0 1 -4.81.51c-1.56-.2-3-.79-4.55-1a21.94 21.94 0 0 0 -8 .14 33 33 0 0 0 -6.9 3c-.37.19-.17.73.21.75h.07c.52 0 .52-.78 0-.8z"/><path d="m52.68 69.07c1.53-1.55 3-3.13 5.13-3.7a23 23 0 0 1 5.57-.25 31.47 31.47 0 0 0 6-1.15 36.17 36.17 0 0 1 6.13-.76 15.51 15.51 0 0 1 5.74.57c1.82.64 3.73.82 5.56 1.37 1.66.49 3.35.89 5 1.25 1 .2 1.93.32 2.89.51.34.06.73.06 1.07.15s.58.09.4.57c-.28.75-1.46 1.19-2.15 1.35a22.08 22.08 0 0 1 -3.51.63 10.57 10.57 0 0 1 -3.68-.17c-1-.33-1.23-1.19-1.31-2.14 0-.35-.17-1.88.52-1.85.51 0 .51-.77 0-.8-1.77-.08-1.44 3-1.08 4 .74 2.06 3.29 1.9 5.11 1.81s4.33-.24 5.81-1.43c.94-.77 2.38-2.44.35-2.7a60.23 60.23 0 0 1 -7.32-1.41c-2.32-.59-4.83-.93-7.08-1.73-4.61-1.63-9.8-.71-14.42.44a24.71 24.71 0 0 1 -4.89.74 25.89 25.89 0 0 0 -3.84 0 9.19 9.19 0 0 0 -3.68 1.39 26 26 0 0 0 -2.91 2.74c-.36.37.2.94.57.57z"/><path d="m69.13 87.54a30.43 30.43 0 0 0 .92 5.77 5.53 5.53 0 0 1 .34 2.28c-.11 1.09-.6 1.45-1.28 2.19-1.11 1.22-2.42 2.14-3.56 3.34s-2 2.6-3.26 3.53-2.89 1.82-4.31 2.78a26.71 26.71 0 0 1 -5 3 22.54 22.54 0 0 1 -4.55.93 20.29 20.29 0 0 1 -5.87-.24c-.5-.08-.72.69-.21.77a23.21 23.21 0 0 0 5.76.32 20.44 20.44 0 0 0 5.08-1 24.81 24.81 0 0 0 4.81-2.82c1.62-1.11 3.4-2 4.95-3.2 1.32-1 2.16-2.48 3.32-3.66a31.43 31.43 0 0 1 2.45-2.06c.57-.48 1-1.15 1.5-1.68a3.7 3.7 0 0 0 1-3.5c-.19-1-.55-2-.71-3-.19-1.23-.45-2.49-.56-3.72 0-.51-.84-.51-.8 0z"/><path d="m70.55 98.08c.48.16.89-.24 1.19-.55a5.24 5.24 0 0 1 .54-.42 4 4 0 0 0 .58-.59 2.93 2.93 0 0 1 .58-.53l.17-.11c.14-.09 0 0 0 0a1.11 1.11 0 0 1 .25 0c.42-.07.83-.12 1-.56a.42.42 0 0 0 -.28-.5.41.41 0 0 0 -.49.28c.07-.09.08-.12 0-.08s0 0 0 0l-.09-.02a3.4 3.4 0 0 0 -.46.07 2.48 2.48 0 0 0 -1.13.79c-.16.17-.29.37-.47.53s-.34.24-.5.37-.27.25-.41.38a.7.7 0 0 1 -.17.14c-.08 0 0 0-.07 0s.09 0 0 0a.41.41 0 0 0 -.49.28.41.41 0 0 0 .28.49z"/><path d="m81.51 109.63v-.11l-.38.3a7.51 7.51 0 0 1 1.42.07l.77.06a1.79 1.79 0 0 1 .57 0c.38.18.13 1 .09 1.33 0 .53-.08 1.05-.11 1.58-.07.94 0 1.86 0 2.8s.45 1.81.43 2.78a3.63 3.63 0 0 1 -.14 1.09c-.16.43-.53.61-.86.89a1.24 1.24 0 0 1 -.83.44c-.38 0-.92.14-1.23-.14-.66-.6-.45-2.17-.2-2.91.16-.43.41-.82.56-1.25s.28-1 .41-1.46a12.25 12.25 0 0 0 .35-3.14c0-1-.83-1.77-1-2.72-.07-.51-.84-.29-.77.21a5.6 5.6 0 0 0 .56 1.42c.09.2.16.4.24.59a2.11 2.11 0 0 1 .09 1.09 16 16 0 0 1 -.66 3.7c-.16.52-.49 1-.64 1.52a6.14 6.14 0 0 0 -.18 1.71c0 .82.34 1.91 1.23 2.15a2.92 2.92 0 0 0 2.21-.28c.73-.6 1.39-1.07 1.55-2a7.48 7.48 0 0 0 -.27-3 14.24 14.24 0 0 1 -.1-1.85 8.68 8.68 0 0 1 0-1.69c0-.7.12-1.39.19-2.08 0-.46.1-1-.31-1.32a2.27 2.27 0 0 0 -1.23-.24 12.44 12.44 0 0 0 -2.19-.13.42.42 0 0 0 -.39.29v.1a.41.41 0 0 0 .78.22z"/><path d="m46.89 139.45a25.58 25.58 0 0 1 5.41-3.07 19.12 19.12 0 0 1 5.44-1.8 36.51 36.51 0 0 1 5.12-.25c2.07.07 4.11.41 6.18.48a47.82 47.82 0 0 1 11.73 1.57c1.67.48 3.39.73 5.06 1.26.69.22 1.32.57 2 .82s1.46.25 1.92.7a.4.4 0 0 0 .57-.57 4.39 4.39 0 0 0 -1.52-.74c-.69-.26-1.41-.5-2.11-.76a43.85 43.85 0 0 0 -5.3-1.37c-.89-.21-1.68-.57-2.59-.71-1.09-.15-2.14-.4-3.24-.52-2-.22-4-.42-6.09-.48-2.21 0-4.39-.41-6.61-.48a36.47 36.47 0 0 0 -5.53.29 17.39 17.39 0 0 0 -5 1.66 30.7 30.7 0 0 0 -5.87 3.28c-.4.31 0 1 .41.69z"/><path d="m86.82 139.63a90.61 90.61 0 0 0 9.17-.21c1.61-.15 3.29-.25 4.89-.53a42.29 42.29 0 0 1 5.44-.82c3.33-.15 6.88-.64 10.17.24a19.13 19.13 0 0 1 2 .76 8.22 8.22 0 0 1 2.1 1.09 6.67 6.67 0 0 1 2.11 3.63c.08.51.85.29.77-.21a7.59 7.59 0 0 0 -1.69-3.33 7.09 7.09 0 0 0 -3.42-2.06 11.14 11.14 0 0 0 -2.13-.72c-.92-.13-1.85-.23-2.78-.34a27.08 27.08 0 0 0 -5.25 0c-.77.07-1.57.06-2.34.14s-1.69.34-2.54.5c-1.93.35-3.89.41-5.83.63a86.88 86.88 0 0 1 -10.7.45.4.4 0 0 0 0 .8z"/><path d="m114.07 146.49c.28 0 .4-.09.67-.16a4.38 4.38 0 0 1 .62-.08c.69-.1 1.38-.1 2.06-.19a18.85 18.85 0 0 1 3.34-.36h.94a2.68 2.68 0 0 0 .63 0c.47 0 1-.08 1.42-.14s1.23-.59.73-1.21a4.49 4.49 0 0 0 -.39-.36 3.62 3.62 0 0 1 -.44-.59 13 13 0 0 0 -1.23-1.34 4.75 4.75 0 0 0 -2.52-1.76 9.22 9.22 0 0 0 -3.53.4 8.9 8.9 0 0 0 -2.83 1 2.21 2.21 0 0 0 -1.14 2.37c.19.85.92 2 1.85 2 .51.05.51-.75 0-.8-.36 0-.64-.55-.8-.83a1.55 1.55 0 0 1 -.26-1.2c.17-.69 1-1.06 1.57-1.29a16.89 16.89 0 0 1 2.54-.65 4.63 4.63 0 0 1 3-.06 8.48 8.48 0 0 1 1.9 1.79 8 8 0 0 1 .9 1 2.2 2.2 0 0 0 .6.65c.17.12 0 0 .1 0a.42.42 0 0 1 -.16 0 1.94 1.94 0 0 0 -.34 0c-.4 0-.81.14-1.21.12-.19 0-.38-.07-.58-.08s-.43 0-.65 0c-.41 0-.8 0-1.22 0-1 .1-2 .31-3 .36a12.85 12.85 0 0 0 -1.39.16c-.22 0-.44 0-.65.09s-.36.16-.53.14c-.51-.06-.5.74 0 .8z"/><path d="m68.86 156.34a61 61 0 0 1 6.19-.54 49 49 0 0 0 5.95-.8c4.25-.92 8.2-3.09 12.58-3.48 3.46-.32 6.6-1.61 10-2.23 1.82-.34 3.61-1 5.42-1.42q1.39-.28 2.76-.6a10.62 10.62 0 0 1 2.6-.47c.52 0 .52-.77 0-.8a10 10 0 0 0 -2 .35c-1 .19-2.06.5-3.1.68-1.8.32-3.52.86-5.28 1.35s-3.27.8-4.89 1.26a35.94 35.94 0 0 1 -5.92 1.12c-4.15.44-7.9 2.48-11.94 3.38a48.07 48.07 0 0 1 -6.57.91 53.56 53.56 0 0 0 -5.93.55c-.51.09-.29.86.21.77z"/><path d="m105.55 136.23v.08a.4.4 0 0 0 .67.38 33.5 33.5 0 0 1 5.33-3.79c1.85-1 3.74-1.85 5.57-2.88.92-.52 1.9-1 2.79-1.54s1.84-1 2.67-1.62a9 9 0 0 0 1.85-2c.71-1 1.53-1.83 2.28-2.76a24.62 24.62 0 0 1 2.73-2.77 13.76 13.76 0 0 1 3.46-2.5 7.58 7.58 0 0 1 3.06-1 15.08 15.08 0 0 1 1.9.18c.48.06 1.86 0 2.09.44.66 1.1-.72 2.52-1.35 3.29a25.87 25.87 0 0 1 -2.14 2.52c-1.77 1.69-2.71 3.92-4.24 5.79-1.74 2.13-3.55 4.21-5.31 6.32a25.27 25.27 0 0 1 -2.46 2.71 23.29 23.29 0 0 1 -2.38 2.18c-.43.28 0 1 .4.69a23.3 23.3 0 0 0 4.75-4.71c1.73-2.12 3.48-4.2 5.26-6.27s2.8-4.56 4.8-6.37a23.94 23.94 0 0 0 2.4-2.91 4.22 4.22 0 0 0 1.16-2.62c0-.76-.09-1.24-.84-1.54a11.66 11.66 0 0 0 -3.13-.45 9.85 9.85 0 0 0 -6.55 2.37 42.48 42.48 0 0 0 -5.51 5.63 28.73 28.73 0 0 1 -2.32 2.84 21.85 21.85 0 0 1 -3.28 2.11c-2.34 1.48-4.93 2.59-7.36 3.86a39.07 39.07 0 0 0 -6.2 4.31l.67.39v-.08c.1-.5-.67-.71-.77-.21z"/><path d="m139.44 120.32a1.31 1.31 0 0 0 .3-.32l.43-.54a1.92 1.92 0 0 1 .18-.22l.05-.07c0-.07 0 0 0 0s.12-.1.15-.14 0-.08 0-.11a.83.83 0 0 1 .11-.15 2.6 2.6 0 0 0 .28-.49c.34-.71 1-1.24 1.12-2a1.57 1.57 0 0 0 -.95-1.82 2.74 2.74 0 0 0 -1.27.09 6 6 0 0 1 -.61.14 1.94 1.94 0 0 0 -.33.07 1.48 1.48 0 0 1 -.29.12c-.51 0-.51.82 0 .8a1.49 1.49 0 0 0 .46-.12 1.32 1.32 0 0 1 .39-.1c.29 0 .56-.14.85-.19a1.1 1.1 0 0 1 .67 0 .77.77 0 0 1 .31.59 2.18 2.18 0 0 1 -.67 1.45 3.93 3.93 0 0 0 -.44.77 6 6 0 0 0 -.41.69l.19-.24a2.22 2.22 0 0 0 -.51.59l-.31.38-.12.15c0 .06-.11.08 0 0-.45.25 0 .94.41.69z"/><path d="m131 118a14.28 14.28 0 0 0 1.48-2c.77-1 1.55-2 2.25-3 1-1.45 2.63-3.21 2.41-5.11-.2-1.68-2-2.68-3.52-2.94-2.15-.38-3.89 1-5.59 2.12a13.17 13.17 0 0 0 -2.41 2.48 32.26 32.26 0 0 1 -3 2.92c-1.66 1.48-3.13 3.27-4.91 4.6s-2.84 3-4.43 4.26a35.34 35.34 0 0 1 -6.07 4.17 28.24 28.24 0 0 0 -6.89 5 2.33 2.33 0 0 1 -2 .69 12.5 12.5 0 0 0 -1.5 0c-.6.1-1.66.36-2 1-.22.46.47.87.69.4s2-.51 2.45-.52a4.5 4.5 0 0 0 2.16-.26 15.3 15.3 0 0 0 2.17-2.09 17.72 17.72 0 0 1 3-2.19c1.84-1.19 4-1.95 5.73-3.32.7-.55 1.36-1.16 2.07-1.71s1.49-1.47 2.34-2.1a15.84 15.84 0 0 0 1.68-1.6c.66-.68 1.45-1.17 2.11-1.85 1.37-1.42 2.8-2.76 4.21-4.15.75-.73 1.59-1.33 2.3-2.11a19.42 19.42 0 0 1 2.71-2.87c.81-.58 1.64-1 2.5-1.5a3.28 3.28 0 0 1 3.3-.2c1.41.52 2.46 1.38 1.95 3a12.47 12.47 0 0 1 -1.8 3c-.69 1-1.42 2-2.19 3a19.9 19.9 0 0 1 -1.77 2.36c-.37.35.19.91.57.56z"/><path d="m105.16 137.57a1.08 1.08 0 0 0 -.65-1.1 12.59 12.59 0 0 0 -1.51-1 7 7 0 0 1 -.66-.45 1.91 1.91 0 0 0 -.77-.3 8.3 8.3 0 0 1 -.87-.14c-.31-.07-.61-.17-.92-.21a.42.42 0 0 0 -.5.28.41.41 0 0 0 .28.49c.55.08 1.06.26 1.6.33a1.83 1.83 0 0 1 .65.16c.21.11.38.29.58.42s.44.22.66.35a7.77 7.77 0 0 1 .69.48c.17.13.36.24.54.37s.1.12.08.3a.41.41 0 0 0 .4.4.4.4 0 0 0 .4-.4z"/><path d="m136.22 109.94v.06h.8a.42.42 0 0 0 -.62-.37.81.81 0 0 0 -.27.31c-.14.23-.34.54-.2.82a.39.39 0 0 0 .45.18c.19-.06.27-.22.36-.38s.25-.45.37-.67c.27-.47.56-.94.8-1.43a4.56 4.56 0 0 0 .81-1.93 1.72 1.72 0 0 0 -1.22-1.43 3.17 3.17 0 0 0 -1.26-.15c-.46 0-.89.25-1.35.3a.41.41 0 0 0 -.4.4.41.41 0 0 0 .4.4c.45 0 .85-.22 1.28-.29a2.29 2.29 0 0 1 1.13.12c.23.1.56.32.62.59a1.52 1.52 0 0 1 -.32.9c-.32.57-.62 1.14-.94 1.71l-.42.73c-.07.13-.14.27-.22.4s-.14.17 0 .06l.18-.1.46.19v.21c0 .16 0 .1 0 .06 0 .11 0 .06 0 0l.08-.16.09-.16v-.07s-.06.07 0 0 0 0-.25.09h-.2l-.14-.14v-.18a.4.4 0 0 0 .8 0v-.08a.39.39 0 0 0 -.4-.4.41.41 0 0 0 -.4.4z"/><path d="m83.69 127.47a8.52 8.52 0 0 1 1.14.55c.36.14.74.17 1.1.29a14.59 14.59 0 0 0 2.56.67 18.91 18.91 0 0 0 2.59.33 4.66 4.66 0 0 0 1.92-.71c1.43-.65 2.91-1.12 4.33-1.79s2.56-2.15 4-3 2.71-2.19 4.23-3.08a14.5 14.5 0 0 0 2-1.32 6.83 6.83 0 0 1 1-.94 9.7 9.7 0 0 0 1-.48 7.76 7.76 0 0 0 .86-.86 7.59 7.59 0 0 1 1.05-.82c.62-.45 1.21-.92 1.8-1.4a42 42 0 0 0 3.89-3.89 28.27 28.27 0 0 1 2.14-2 17.56 17.56 0 0 1 2.6-2.06 10.53 10.53 0 0 1 3.45-.73 3.34 3.34 0 0 1 1.69 0 3.83 3.83 0 0 1 1.35 1c.35.38.91-.19.56-.56a5 5 0 0 0 -1.52-1.26 4.44 4.44 0 0 0 -2.26 0c-1.61.23-3.14.3-4.45 1.36a52.33 52.33 0 0 0 -4 3.45 52.7 52.7 0 0 1 -4 4c-.72.57-1.57 1-2.27 1.62a12.56 12.56 0 0 1 -1.9 1.66 10.34 10.34 0 0 0 -1.61 1.27 21.5 21.5 0 0 1 -2.54 1.58 15.28 15.28 0 0 0 -1.79 1.42c-.74.6-1.52 1.08-2.27 1.65-1.56 1.17-2.84 2.5-4.76 3.08-1.74.52-3.28 1.84-5.15 1.75a14.53 14.53 0 0 1 -3.64-.62c-1-.3-1.88-.85-2.84-1.08-.5-.12-.71.65-.21.77z"/><path d="m80 126.22a17.29 17.29 0 0 0 4.54-1.7 37 37 0 0 0 3.77-2.15 33.53 33.53 0 0 1 3.69-2.51c1.46-.72 2.87-1.53 4.32-2.26s3.27-1.3 4.89-2c1.42-.64 2.81-1.26 4.19-2a13.94 13.94 0 0 1 4.33-1.55 4.3 4.3 0 0 1 3.21.41 4.29 4.29 0 0 0 1.19.8c.48.18.69-.59.21-.77-.69-.27-.94-1-1.62-1.21a5.83 5.83 0 0 0 -2-.13 11 11 0 0 0 -4.86 1.24 43.11 43.11 0 0 1 -3.91 2.08c-1.63.59-3.36 1.21-4.92 2a38.11 38.11 0 0 0 -8 4.47 14.46 14.46 0 0 1 -2.45 1.66c-.67.34-1.21.66-1.86 1a16.46 16.46 0 0 1 -5 1.91c-.5.1-.29.87.22.77z"/><g clip-path="url(#a)"><path d="m1.45 103.08a36.61 36.61 0 0 1 4-2.78c1.41-.79 2.79-1.57 4.24-2.28 2.83-1.37 5.79-2.35 8.63-3.67s5.16-3.44 7.76-5.31c1.31-.94 2.79-1.59 4.1-2.52a33.36 33.36 0 0 1 4.08-2.41 15.08 15.08 0 0 0 3-2.15 35 35 0 0 0 3.61-3.39c2-2.42 4.55-4.33 6.71-6.64s4.8-3.91 6.81-6.28 3.52-5.27 5.5-7.73c.46-.56.75-1.27 1.25-1.8a8.71 8.71 0 0 1 2.59-1.69c.93-.46 1.81-1 2.75-1.42s2-1 3.06-1.55a6.9 6.9 0 0 0 1.78-1.05c.35-.38-.21-.95-.56-.57a6.5 6.5 0 0 1 -1.62.93c-1 .5-1.9 1-2.86 1.45-2 1-4.16 1.73-5.71 3.34a13 13 0 0 0 -1.06 1.56c-.39.54-.88 1-1.25 1.58-.88 1.35-1.74 2.68-2.68 4a26.29 26.29 0 0 1 -3.2 3.93c-1.13 1.09-2.4 2-3.55 3.12-2.28 2.15-4.64 4.23-6.93 6.39-1.1 1-1.88 2.39-3 3.44a46.83 46.83 0 0 1 -3.85 3.05 28.46 28.46 0 0 1 -3.61 2c-1.36.75-2.58 1.75-3.93 2.52-2.77 1.59-5 4-7.79 5.47a47 47 0 0 1 -4.9 2.21c-1.67.64-3.33 1.33-4.93 2.12a45.65 45.65 0 0 0 -4.29 2.33c-.74.46-1.54.8-2.24 1.31s-1.53 1.22-2.32 1.8c-.4.31 0 1 .41.69z"/><path d="m3.67 142.3c.54-.42.94-1 1.45-1.48s1.13-1 1.71-1.44a51.24 51.24 0 0 1 5.11-3.5c1.67-1 3.22-2.25 4.84-3.39a39.84 39.84 0 0 0 3.91-3 43 43 0 0 1 4.21-3.14c.76-.53 1.47-1.12 2.24-1.64s1.46-.83 2.14-1.31a36.52 36.52 0 0 0 3.36-2.34c1.23-1.11 2.7-2 4-3a30.75 30.75 0 0 1 4.17-2.89c.83-.46 1.65-1.08 2.46-1.59.5-.32 1.44-1.25 2-1.33s.51-.86 0-.8a2.25 2.25 0 0 0 -1.08.51c-.74.54-1.5 1-2.28 1.48a32.21 32.21 0 0 0 -3.91 2.46c-1.38 1.12-2.76 2.31-4.23 3.31-1.26.87-2.37 1.88-3.66 2.68-3 1.83-5.82 3.82-8.63 5.87-1.46 1.07-2.7 2.43-4.23 3.43-1.69 1.1-3.25 2.38-4.95 3.49s-3.61 2.13-5.25 3.44c-.7.56-1.42 1.1-2.08 1.71s-1.22 1.37-1.91 1.9c-.41.32.16.88.57.57z"/><path d="m15.54 161.06a7.08 7.08 0 0 1 1.24-.94c.41-.35.81-.73 1.24-1.07a26.24 26.24 0 0 0 2.86-2.41c1.85-1.87 4-3.51 6-5.22.93-.79 2-1.44 2.91-2.28s1.76-1.73 2.7-2.56a34.05 34.05 0 0 0 2.43-2.66c.45-.48 1-.86 1.45-1.32a8.65 8.65 0 0 0 1-1.41c1.31-2 2.24-4 4.07-5.59.85-.73 1.66-1.42 2.56-2.09a16.93 16.93 0 0 1 3.57-1.51c1.33-.57 2.74-1 4.1-1.47s2.62-1 4-1.39a66.64 66.64 0 0 1 7.6-1.94c2.83-.43 5.7-.78 8.55-1.08.72-.08 1.44.06 2.16 0s1.33-.19 2-.19 1.2 0 1.81.06 1.45-.18 1.92.28.93-.21.56-.57a2.73 2.73 0 0 0 -2.07-.54 17.79 17.79 0 0 0 -3.72.08 10.23 10.23 0 0 1 -2.07 0 10.36 10.36 0 0 0 -1.57.19c-1.57.2-3.16.45-4.74.57-5.39.38-10.45 2.27-15.51 4-1.36.47-2.71 1.05-4.08 1.51a10.77 10.77 0 0 0 -3 1.3 21.36 21.36 0 0 0 -5.08 5c-.65.91-1.08 1.93-1.71 2.86a8.54 8.54 0 0 1 -1.25 1.62 15.52 15.52 0 0 0 -1.69 1.71 21.73 21.73 0 0 1 -2.73 2.78c-1.07.91-2 1.92-3.13 2.76s-2.23 2-3.38 2.9-2.45 1.9-3.58 3c-.54.52-1.06 1.06-1.59 1.59a16.9 16.9 0 0 1 -1.6 1.22c-.67.53-1.28 1.15-2 1.63a3.12 3.12 0 0 0 -.94.79c-.3.42.39.82.69.4z"/><path d="m30.34 186.57a3 3 0 0 0 1.2-.78 18.18 18.18 0 0 0 1.73-1.56c.56-.54 1.24-.94 1.78-1.49s.81-1.26 1.34-1.8a33.57 33.57 0 0 0 3-3.32 29.39 29.39 0 0 1 3.51-4.12c2.58-2.41 5.63-4.27 8.27-6.61 1.21-1.08 2.54-2 3.71-3.15a20.57 20.57 0 0 1 2-1.94 22.61 22.61 0 0 1 2-1.21 19.85 19.85 0 0 1 4.42-2 42.57 42.57 0 0 1 4.9-1c2.92-.5 5.69-1.51 8.61-1.89 1.12-.14 2.25 0 3.38-.2 1.9-.24 3.84-.5 5.72-.87 1.64-.33 3.27-.63 4.9-1s3.06-.14 4.58-.32a18.39 18.39 0 0 0 4.44-1 11.47 11.47 0 0 0 1.91-.9c.76-.47 1.59-.78 2.36-1.22s1.27-1 2-1.32 1.43-.66 2.13-1 1.52-1 2.34-1.3c.39-.15.66 0 .86-.49s-.49-.88-.7-.41c0 .07-.89.3-1 .38-.64.39-1.21.8-1.88 1.13s-1.29.59-1.93.88a21 21 0 0 0 -1.87 1.25 20.23 20.23 0 0 1 -7.76 3 39.71 39.71 0 0 1 -4.07.26 30.16 30.16 0 0 0 -5 .88c-1.68.31-3.36.51-5 .8-.83.14-1.67.35-2.52.41s-1.65-.05-2.49 0c-2.72.31-5.22 1.33-7.91 1.77-1.51.25-3 .47-4.51.85a21.8 21.8 0 0 0 -4.41 1.34 30.46 30.46 0 0 0 -3.84 2.3c-1.3.93-2.29 2.22-3.51 3.25-2.68 2.24-5.4 4.42-8.19 6.54a35.76 35.76 0 0 0 -7 7.43c-.66.89-1.52 1.51-2.23 2.33a12.22 12.22 0 0 1 -1.63 2 21.2 21.2 0 0 0 -1.86 1.68c-.41.38-.81.65-1.24 1-.19.15-.47.48-.7.52-.51.1-.29.87.21.77z"/></g><path d="m82.07 118.57a.67.67 0 0 0 .73.77.51.51 0 0 0 .48-.37 8.55 8.55 0 0 0 .08-2.9.5.5 0 0 0 -1 0 13.29 13.29 0 0 1 -.34 3.77l.91-.12c-.16-.24-.08-.59-.14-.86a.92.92 0 0 0 -.61-.68l.35.35a4.12 4.12 0 0 1 .11-1.94c.11-.69 0-1.4.12-2.08s.5-1.1.6-1.71a9.28 9.28 0 0 0 0-2 .5.5 0 0 0 -1 0 6.17 6.17 0 0 0 .28 1.46 3 3 0 0 1 -.18 1.4 13 13 0 0 0 -.1 3 .5.5 0 0 0 1 0 18.67 18.67 0 0 0 0-2.48c-.09-.78-.25-1.53-.27-2.32a.5.5 0 0 0 -1 0 34.05 34.05 0 0 1 0 3.5c-.06.52-.18 1-.23 1.56a2.54 2.54 0 0 1 -.27 1.39c-.38.52.49 1 .86.5a2.41 2.41 0 0 0 .39-1.41c0-.57.13-1.13.21-1.7a30.76 30.76 0 0 0 .06-3.84h-1a17.34 17.34 0 0 0 .26 2.27 15.27 15.27 0 0 1 0 2.53h1a10.89 10.89 0 0 1 .14-3.07 3.41 3.41 0 0 0 .16-1.34 8.66 8.66 0 0 1 -.3-1.5h-1c0 .45.07.91.06 1.36a3.19 3.19 0 0 1 -.34 1.32 4 4 0 0 0 -.34 1.17c-.06.51 0 1 0 1.51a7 7 0 0 0 -.18 2.54.66.66 0 0 0 .33.46c.14.09 0-.08 0 0a.82.82 0 0 0 0 .22 1.66 1.66 0 0 0 .23.9.5.5 0 0 0 .91-.12 14.37 14.37 0 0 0 .38-4h-1a8.06 8.06 0 0 1 0 2.64l.48-.37.27.23c0-.64-1-.64-1 0z"/><path d="m105.33 8.74c.64 0 1 .17 1.06.86a13.65 13.65 0 0 1 0 2.12c0 .71.12 1.42.09 2.14s-.11 1.56-.17 2.34l-.74 9.68a42.16 42.16 0 0 0 -.24 4.48 19 19 0 0 1 -.12 2.13 13.62 13.62 0 0 1 -.24 2.38 22.16 22.16 0 0 0 -.54 4c-.09 1.45 0 2.91-.18 4.36-.07.75-.15 1.51-.18 2.27a10 10 0 0 0 .07 1.1 7.59 7.59 0 0 1 -.08 1.07c-.15 1.54-.16 3.1-.35 4.63-.08.71-.27 1.38-.32 2.1s-.12 1.57-.18 2.35l-.21 2.25a15.48 15.48 0 0 0 -.11 2.26 29.71 29.71 0 0 1 -.27 4.61c-.05.66-.05 1.32-.09 2a3.74 3.74 0 0 1 -.25 1.11 5.18 5.18 0 0 0 -.12 1 18.37 18.37 0 0 0 -.3 1.83c-.06.82-.11 1.64-.17 2.46l-.18 2.35a12.43 12.43 0 0 0 -.09 2.28 13.23 13.23 0 0 1 -.12 2.35c-.06.87 0 1.71 0 2.58a19.21 19.21 0 0 1 -.73 4.88 7.22 7.22 0 0 1 -1 2.09c-.22.35-.33.73-.54 1.09s-.38.57-.57.85a4.52 4.52 0 0 1 -1.78 1.43 6.43 6.43 0 0 0 -1.73 1c-.46.45.25 1.16.71.7a6.39 6.39 0 0 1 1.52-.83 6 6 0 0 0 1.72-1.21 7.25 7.25 0 0 0 1.1-1.6c.15-.3.26-.61.44-.9a9.33 9.33 0 0 0 .6-.94 11.33 11.33 0 0 0 .64-2 17 17 0 0 0 .41-2.31c.06-.69.15-1.39.17-2.08s0-1.55 0-2.34.14-1.47.16-2.21c0-.32-.06-.62-.08-.94a8.4 8.4 0 0 1 .11-1.32c.14-1.7.27-3.39.37-5.09a9.28 9.28 0 0 1 .12-1.17 6.32 6.32 0 0 0 .21-1c.06-.71.32-1.35.36-2.07.1-1.55.15-3.09.32-4.63a14.16 14.16 0 0 0 0-2.16 21.85 21.85 0 0 1 .16-2.42c.12-1.63.2-3.26.37-4.88.07-.74.28-1.44.33-2.18l.18-2.56c.06-.74.18-1.49.19-2.23 0-.36-.08-.72-.09-1.08s.06-.85.09-1.26c.07-.74.16-1.49.21-2.23s0-1.56 0-2.35.09-1.46.13-2.19a19.38 19.38 0 0 1 .38-2.26 28.12 28.12 0 0 0 .47-4.59c0-.75-.08-1.48 0-2.23s.16-1.57.22-2.36l.9-11.25a17.63 17.63 0 0 0 0-2.62c-.06-.77.05-1.52 0-2.28a2.64 2.64 0 0 0 -.6-1.86 2.25 2.25 0 0 0 -1.49-.47c-.64 0-.63 1 0 1z"/><path d="m95.6 96.05h.09c.65 0 .63-.93 0-1-.46 0-.9-.2-1.36-.26a9.43 9.43 0 0 1 -1.5-.16 9.3 9.3 0 0 0 -1.25-.35c-.2 0-.41 0-.61 0s-.33-.13-.49-.18c-1.94-.51-3.94-.31-5.92-.47-1-.09-2-.19-3-.24s-2 .06-3 .06c-.77 0-1.52.07-2.28.12-.48 0-.93-.13-1.42-.06a9 9 0 0 0 -1.36.32c-.61.2-.35 1.16.27 1a5.58 5.58 0 0 1 1.5-.32c.41 0 .8.11 1.21.07.83-.08 1.67-.09 2.51-.12a45 45 0 0 1 5.8.22c1.93.16 3.85-.06 5.73.53.41.13.81.06 1.22.17s.8.28 1.23.36 1 0 1.41.11.86.19 1.3.24v-1h-.08c-.64 0-.64 1 0 1z"/><path d="m96.07 96v-.1h-1c-.07 1-.15 2-.22 3 0 .49-.09 1-.12 1.48s0 1.09 0 1.64a20.83 20.83 0 0 0 -.1 2.85 17.8 17.8 0 0 1 0 2.92c-.08 1-.15 1.91-.23 2.86a4 4 0 0 1 -.28 1.28 3.86 3.86 0 0 1 -.64 1.43 3 3 0 0 1 -.94.48c-.39.17-.73.42-1.12.57a7.25 7.25 0 0 1 -1.36.32l-.59.11a5.53 5.53 0 0 1 -.91 0 7.94 7.94 0 0 0 -1.09.15 9.72 9.72 0 0 1 -1.32.06 6.61 6.61 0 0 0 -1.26.07 6.38 6.38 0 0 1 -1.44.24 3.15 3.15 0 0 1 -1.23-.2 2.72 2.72 0 0 0 -1-.28c-.82-.08-1.57-.63-2.38-.76a6.72 6.72 0 0 1 -1.11-.47c-.38-.13-.76-.24-1.13-.4a6.39 6.39 0 0 1 -1.21-.49l-1-.67a1.89 1.89 0 0 1 -.74-1.07 4.9 4.9 0 0 1 -.13-1.2c0-.16-.08-.3-.1-.45s0-.35 0-.54c0-.4 0-.8-.06-1.21a9.08 9.08 0 0 1 0-1.38 5.89 5.89 0 0 0 .06-1.26 17.72 17.72 0 0 1 0-3.09c.2-2.32.36-4.65.53-7 0-.64-1-.63-1 0q-.26 3.42-.52 6.84a18.28 18.28 0 0 0 0 3c.07.88-.11 1.73 0 2.6a17.7 17.7 0 0 0 .1 2.31c.09.43 0 .85.13 1.28a3.88 3.88 0 0 0 .48 1.22 5.76 5.76 0 0 0 1.8 1.48 4.55 4.55 0 0 0 1.06.38c.45.18.89.35 1.35.51a10.82 10.82 0 0 0 1.21.53c.47.09.89.29 1.35.41s.71.3 1.08.36a2.62 2.62 0 0 1 .68.12 3 3 0 0 0 .54.25 5.24 5.24 0 0 0 2.58 0c1-.24 2-.07 3-.23a7.29 7.29 0 0 1 1.32 0 11.18 11.18 0 0 0 1.52-.24 10.53 10.53 0 0 0 2.53-1 2.57 2.57 0 0 0 1.62-1.45 8.81 8.81 0 0 0 .69-2.7c.1-1.19.2-2.37.28-3.56s-.11-2.35 0-3.52c0-.6.14-1.19.13-1.78s0-1.18 0-1.78l.3-4c.05-.64-.95-.64-1 0v.08c0 .64 1 .64 1 0z"/><path d="m71.78 62.12c.12-1.78.42-3.54.56-5.33s.32-3.76.31-5.65.25-3.69.39-5.51a48 48 0 0 0 .32-5.35c0-.84.11-1.67.11-2.51 0-1 0-2 .12-3.05.14-1.85.28-3.7.39-5.56.06-1 .12-1.94.23-2.91s.3-1.73.36-2.62a22.07 22.07 0 0 1 .36-2.42c.16-.92.32-1.81.39-2.74.18-2.1.27-4.2.43-6.3.08-1.05.14-2.11.24-3.16a4.49 4.49 0 0 1 .4-1.61 2.73 2.73 0 0 1 .25-.48c.2-.24.37-.25.66-.35.61-.19.35-1.15-.26-1a2.57 2.57 0 0 0 -.85.32 2.08 2.08 0 0 0 -.58.82 6.24 6.24 0 0 0 -.61 2.51c-.17 2-.34 4.09-.45 6.13a43.38 43.38 0 0 1 -.55 5.59c-.08.42-.08.84-.16 1.26a9.56 9.56 0 0 0 -.22 1.21c-.08 1-.25 1.89-.37 2.84-.23 2-.29 4-.44 6.06s-.27 3.79-.3 5.69-.13 3.69-.27 5.54l-.43 5.65c0 .58-.11 1.15-.12 1.72s0 1.07 0 1.61c-.06 1.1-.17 2.21-.25 3.32s-.11 2.29-.28 3.41c-.07.48-.21 1-.26 1.43s-.05 1-.09 1.44c0 .65 1 .64 1 0z"/><path d="m74.68 93.6c-.31 0-.79-.81-1-1a19.68 19.68 0 0 1 -1-2c-.2-.35-.47-.63-.67-1a5.32 5.32 0 0 1 -.47-1.16c-.24-.9-.4-1.82-.58-2.72a30.45 30.45 0 0 1 -.35-5.23c0-.89.13-1.81.2-2.7l.22-2.9c.05-.64-.95-.64-1 0a56.94 56.94 0 0 0 -.36 6.25v2.78a18.63 18.63 0 0 0 .48 3 12.91 12.91 0 0 0 .85 2.79 5.8 5.8 0 0 0 .59 1 5.23 5.23 0 0 1 .7 1.29 6.67 6.67 0 0 0 1 1.66c.34.43.78 1 1.39 1s.65-1 0-1z"/><path d="m105.49 7.61c.09 0-.16-.1-.23-.14a3.66 3.66 0 0 0 -.46-.18c-.38-.11-.77 0-1.15-.14s-.84-.2-1.29-.26-1-.3-1.46-.35a9.44 9.44 0 0 1 -1.5-.39 5.2 5.2 0 0 0 -1.4-.15 5.34 5.34 0 0 1 -1.33-.19c-.51-.15-1-.1-1.55-.24a17.43 17.43 0 0 0 -3.12-.3 18.21 18.21 0 0 0 -3-.12c-.47 0-.94-.07-1.41 0a11.64 11.64 0 0 1 -1.59-.05c-.49 0-1-.11-1.48-.14s-.77.11-1.17.08a13.9 13.9 0 0 0 -3.22-.12c-.58.09-1.16.14-1.74.22a3 3 0 0 0 -.64.15 3.9 3.9 0 0 1 -.69.32c-.64.1-.37 1.06.26 1 .4-.07.7-.36 1.1-.44s.95-.09 1.43-.16a10.06 10.06 0 0 1 3 0 4.35 4.35 0 0 0 1.15-.01 6.49 6.49 0 0 1 1.46 0c.5 0 1 .1 1.49.11s.93-.07 1.41 0a11.72 11.72 0 0 0 1.45-.06 10.81 10.81 0 0 1 1.5.11c1.08.13 2.19.1 3.27.27a11.67 11.67 0 0 0 1.31.26c.49 0 .92.23 1.41.26s.86 0 1.29 0a9.65 9.65 0 0 1 1.66.43c.47.12.93.17 1.4.3s1.07.17 1.6.32.84.07 1.25.17.62.37 1 .37a.5.5 0 0 0 0-1z"/><path d="m102.66 86.24c1 0 2-.06 3 0a16.5 16.5 0 0 0 2.72-.18 8.66 8.66 0 0 0 2.59-.75 3.16 3.16 0 0 0 1.4-1.4c.33-.54 1-1 .79-1.75-.08-.37-.35-.48-.56-.75s-.17-.61-.49-.86a9.5 9.5 0 0 0 -.89-.48 4 4 0 0 0 -.76-.43c-.77-.29-1.6-.35-2.38-.6s-1.9-.3-2.84-.54-1.78-.1-2.65-.28l.24.18-.07-.13c-.23-.46-.93-.06-.69.4s1.26.44 1.8.46a12.41 12.41 0 0 1 2 .34c.75.14 1.47.2 2.2.41s1.48.24 2.17.53a6.41 6.41 0 0 1 .62.38c.32.2.71.24.86.61a1.71 1.71 0 0 0 .41.67c.16.16.28.23.2.47a1.57 1.57 0 0 1 -.29.45c-.37.49-.6 1.12-1.14 1.45a6.55 6.55 0 0 1 -2.29.78 14.65 14.65 0 0 1 -3 .22c-1 0-2 .08-3 0-.51 0-.51.78 0 .8z"/><path d="m112 80.86a8.72 8.72 0 0 1 2.71.64c.59.29 1.34.79 1.37 1.53s-.57 1.14-1.13 1.39a8.56 8.56 0 0 1 -2.72.44c-.58 0-1.15.07-1.74.1a6.07 6.07 0 0 0 -1.52.33.4.4 0 0 0 .21.77l.69-.21a3.28 3.28 0 0 1 .93-.1c.58 0 1.15-.07 1.72-.11a7.46 7.46 0 0 0 3.09-.66 2.31 2.31 0 0 0 1.27-1.92 2.57 2.57 0 0 0 -1.43-2.06 8.71 8.71 0 0 0 -3.47-.94c-.51-.07-.51.73 0 .8z"/><path d="m102.38 74.53c2.21.12 4.42-.12 6.62-.1 3.24 0 6.82.35 9.89-.93a2.88 2.88 0 0 0 1.17-.83c.39-.46.83-.86 1.22-1.31a1.3 1.3 0 0 0 .4-1c-.1-.69-.8-.81-1.17-1.31s-.35-.64-.84-.87-1.13-.46-1.68-.72a15.63 15.63 0 0 0 -3.7-.9c-.78-.15-1.53-.4-2.31-.51-1-.13-1.91-.21-2.86-.41a17.24 17.24 0 0 0 -2.15-.37l-1.17-.07c-.26 0-1.42 0-1.55-.16-.3-.41-1 0-.69.4.58.78 2.27.55 3.14.61 1.3.1 2.55.47 3.84.64 1.45.19 2.84.53 4.28.77a12.33 12.33 0 0 1 3.32 1c.54.25 1.23.32 1.6.82a4.77 4.77 0 0 0 .24.44c.16.19.4.27.57.44.62.62-.33 1.07-.73 1.53a3.1 3.1 0 0 1 -1.4 1.15c-2.9 1.11-6.21.87-9.25.81-2.26 0-4.52.22-6.79.1-.51 0-.51.77 0 .8z"/><path d="m119.66 69.16a8.26 8.26 0 0 1 3.67 1.07c.74.51 1.16 1.35.4 2s-2.27.8-3.39.87c-.69 0-1.37.09-2.06.1a7.63 7.63 0 0 0 -1.85.32c-.5.12-.29.89.21.77a6.58 6.58 0 0 1 1.7-.29c.63 0 1.25 0 1.88-.09a8.53 8.53 0 0 0 3.36-.61 2.31 2.31 0 0 0 1.42-1.82 2.6 2.6 0 0 0 -1.51-2.12 10.15 10.15 0 0 0 -3.79-1c-.51-.06-.51.74 0 .8z"/><path d="m105.21 58.27c1 0 2-.06 3 0a17.67 17.67 0 0 0 2.72-.18 9 9 0 0 0 2.59-.75 3.23 3.23 0 0 0 1.4-1.41c.33-.54 1-1 .79-1.75-.08-.37-.35-.47-.56-.75s-.17-.61-.49-.86a8.39 8.39 0 0 0 -.89-.48 4.28 4.28 0 0 0 -.75-.43c-.78-.29-1.61-.35-2.39-.59s-1.9-.31-2.84-.55-1.77-.09-2.65-.28l.24.18-.07-.13c-.23-.46-.92 0-.69.4s1.26.44 1.8.46a12.43 12.43 0 0 1 2 .35 18.13 18.13 0 0 1 2.2.41c.71.21 1.48.24 2.17.52a5 5 0 0 1 .62.39c.32.19.71.24.86.6a1.71 1.71 0 0 0 .41.67c.16.16.28.24.2.47a1.57 1.57 0 0 1 -.29.45c-.37.49-.6 1.12-1.14 1.45a6.55 6.55 0 0 1 -2.29.78 15.42 15.42 0 0 1 -3 .23c-1 0-2 .07-3 0-.51 0-.51.78 0 .8z"/><path d="m114 53.18a5.85 5.85 0 0 1 2.21.59 1.8 1.8 0 0 1 1 1.46c0 1.56-1.92 1.78-3 1.92-.48.06-1 .11-1.43.14a4.47 4.47 0 0 0 -1.39.37c-.48.17-.27.94.21.77.21-.08.41-.17.62-.24a2.45 2.45 0 0 1 .76-.11c.51 0 1-.1 1.52-.17a5.09 5.09 0 0 0 2.53-.76 2.42 2.42 0 0 0 1-1.88 2.51 2.51 0 0 0 -1.11-2 6.06 6.06 0 0 0 -2.93-.9c-.21 0-.4.2-.4.4a.42.42 0 0 0 .4.4z"/></g><circle cx="263.81" cy="85.04" fill="#ed6b1d" r="85.04"/><g clip-path="url(#b)"><path d="m245.44 70.11c0 .84.06 1.73 0 2.6 0 .47-.19.92-.19 1.4a4.92 4.92 0 0 1 0 .94c0 .18-.14.3-.18.47a16.83 16.83 0 0 0 0 3.33v3a25.53 25.53 0 0 0 0 3 13.3 13.3 0 0 1 .2 1.56v8.08 1.39s-.18.91-.2 1.4v.26a22.86 22.86 0 0 1 -15-5.73 23.47 23.47 0 0 1 -29.88 1.19 26.22 26.22 0 0 1 -13.73 3.84c-14 0-25.25-10.74-25.25-24s11.28-24.06 25.25-24.06a25.56 25.56 0 0 1 10.84 2.35c1.63-10.35 11-18.25 22.34-18.25 12.55 0 22.67 9.66 22.67 21.58v.21a20.54 20.54 0 0 1 2.74-.21v1.2c0 .69.2 1.32.2 2v3.34a4.43 4.43 0 0 0 .16 1.47 7.59 7.59 0 0 1 0 1.72z" fill="none" stroke="#fff" stroke-miterlimit="10" stroke-width="1.97"/></g></svg>