<svg xmlns="http://www.w3.org/2000/svg" viewBox="0 0 170.08 170.08"><defs><style>.cls-1{fill:#ed6b1d;}.cls-2{fill:none;stroke:#fff;stroke-miterlimit:10;stroke-width:1.97px;}</style></defs><g id="Layer_1" data-name="Layer 1"><circle class="cls-1" cx="85.04" cy="85.04" r="85.04"/><path class="cls-2" d="M137,70.07A1.79,1.79,0,0,1,135,71.73c-1.26-.1-2.57-.27-3.9-.51a72.56,72.56,0,0,1-21-7.37h0a4.78,4.78,0,0,1-.45-.23c-1-.52-1.94-1.06-2.92-1.62A81.82,81.82,0,0,1,99,57c-1.33-1-2.59-2-3.81-3C87.93,48,82.69,41.4,80.35,35.41v0A18.58,18.58,0,0,1,79,29.16a1.61,1.61,0,0,1,1.21-1.64A25.12,25.12,0,0,1,85,27c.33,0,.66,0,1,0h0c1.43.28,2.88.63,4.37,1a1.86,1.86,0,0,1,1.39,1.79,17.46,17.46,0,0,0,.81,5.6v0a27.8,27.8,0,0,0,6.55,11A39.15,39.15,0,0,0,109.44,54a40.59,40.59,0,0,0,8.4,3.25,32,32,0,0,0,9.92,1.12h0a25.08,25.08,0,0,0,4.05-.47,1.82,1.82,0,0,1,2,.84,24.29,24.29,0,0,1,3,7.84A13.72,13.72,0,0,1,137,70.07Z"/><path class="cls-2" d="M130,55.77a23.79,23.79,0,0,1-2.25,2.63h0a32,32,0,0,1-9.92-1.12,40.59,40.59,0,0,1-8.4-3.25A39.15,39.15,0,0,1,99.2,46.34a27.8,27.8,0,0,1-6.55-11v0a23.32,23.32,0,0,1,1.29-3.77c1.26,8.94,9.45,17.85,21.26,22A35.81,35.81,0,0,0,130,55.77Z"/><path class="cls-2" d="M137,38.2a25.36,25.36,0,0,1-2.2,10.54,26.85,26.85,0,0,1-4.41,6.48,36.52,36.52,0,0,1-15-2.17c-11.81-4.14-20-13-21.26-22v0A24.89,24.89,0,0,1,98,24.75a23.13,23.13,0,0,1,5.76-5.05,11.5,11.5,0,0,1,4.39-.87,8.64,8.64,0,0,1,1.34.1,12.43,12.43,0,0,1,1.84.7,20.43,20.43,0,0,1,6.93,5,12.51,12.51,0,0,1,.62,1.21,2,2,0,0,0,2.46,1.2,10.81,10.81,0,0,1,1.94-.49,20,20,0,0,1,7.58,1.7,24.12,24.12,0,0,1,2.32,1.22,11.56,11.56,0,0,1,3.69,7.39,2.17,2.17,0,0,1,0,.37C137,37.54,137,37.87,137,38.2Z"/><path class="cls-2" d="M46.51,77l6.15-1.47a10.38,10.38,0,0,0,9.59,6c5.73,0,10.39-4.37,10.39-9.75a10,10,0,0,0-.07-1.1l10.61-2.57a6.05,6.05,0,0,1,6.36,2.41l18.64,9.14A6.05,6.05,0,0,1,111,87.82l-5.91,12.07A6.08,6.08,0,0,1,97.82,103l7.72,31.92a6.08,6.08,0,0,1-4.47,7.3L64.4,151.08a6.07,6.07,0,0,1-7.29-4.47l-7.35-30.38a5.93,5.93,0,0,1-5.91,1.2l-12.72-4.35a6.07,6.07,0,0,1-3.77-7.7L35,83.17C36.06,80,43.25,77.86,46.51,77"/></g></svg>