<svg xmlns="http://www.w3.org/2000/svg" viewBox="0 0 170.08 170.08"><defs><style>.cls-1{fill:#ed6b1d;}.cls-2{fill:#ec6b1a;stroke-width:1.08px;}.cls-2,.cls-3{stroke:#fff;stroke-miterlimit:10;}.cls-3{fill:none;}</style></defs><g id="Layer_1" data-name="Layer 1"><circle class="cls-1" cx="85.04" cy="85.04" r="85.04"/><path class="cls-2" d="M110.45,32.45C109.89,32,96.58,22,81.11,25.77a22.74,22.74,0,0,0-5.39,2.05,17.12,17.12,0,0,0-.81-2C68.15,12,52.47,10,51.8,9.87a2.23,2.23,0,0,0-2.14,1,2,2,0,0,0,.08,2.26,57.27,57.27,0,0,1,3.78,6.27C39,10.45,21.21,17,20.46,17.26a2,2,0,0,0-.05,3.84A122.12,122.12,0,0,1,46.18,36.55a36.08,36.08,0,0,0-11.1.39C17.72,40.16,9.66,56.86,9.33,57.57a2,2,0,0,0,.46,2.32,2.28,2.28,0,0,0,2.44.4A107.18,107.18,0,0,1,48.92,53a14,14,0,0,0,4.82,8.3c-5.68,13.48-9.05,32.23-10,55.74-.55,13.79-.07,25.37.18,30H41.58a2.08,2.08,0,1,0,0,4.15H64.85a2.08,2.08,0,1,0,0-4.15H62.11C60.87,137.8,55.83,94,65.9,64.75a15.2,15.2,0,0,0,9.8-5.57A76.24,76.24,0,0,1,99.33,80.83a2.22,2.22,0,0,0,1.87,1,2,2,0,0,0,.42,0,2.13,2.13,0,0,0,1.73-1.72,41.63,41.63,0,0,0,.06-10.4c-.89-7.72-3.87-14-8.61-18.18a23.76,23.76,0,0,0-14.68-6.28,117.7,117.7,0,0,1,29.26-9.1,2.14,2.14,0,0,0,1.8-1.5A2,2,0,0,0,110.45,32.45ZM27.38,19.71c5.91-1.17,15.71-1.9,23.92,3.24a30.22,30.22,0,0,1,9,8.78,2.24,2.24,0,0,0,3,.69A2,2,0,0,0,64,29.57a31,31,0,0,0-2.65-3.5,83.83,83.83,0,0,0-5.19-10.84c4.58,1.59,11.23,5.06,14.8,12.34a14.82,14.82,0,0,1,1,2.77,24.09,24.09,0,0,0-4.59,5A28.28,28.28,0,0,0,62.9,46.19C50.29,32.24,35.21,23.6,27.38,19.71ZM26.5,51.6c-4.08.91-7.51,1.9-10.15,2.75,3.48-4.77,10-11.56,19.56-13.34C43,39.69,49.6,40.63,54.4,43.67l.21.12c1.78,1.7,3.54,3.49,5.24,5.39A114.49,114.49,0,0,0,26.5,51.6Zm37.19,9.17A10.53,10.53,0,0,1,53.35,53a98.38,98.38,0,0,1,11,.82,67.85,67.85,0,0,1,7.52,3.27A10.89,10.89,0,0,1,63.69,60.77Zm28.15-6.24c6,5.3,7.34,13.62,7.48,19.17A80.59,80.59,0,0,0,69.67,51.44a23.81,23.81,0,0,1,4.72-1.61C80.79,48.38,86.66,50,91.84,54.53ZM67.1,47.23c1.62-9.88,8.42-15.83,15.09-17.45a25.13,25.13,0,0,1,5.94-.7,34,34,0,0,1,15.18,4A126.91,126.91,0,0,0,67.1,47.23Z"/><path class="cls-3" d="M80.84,136.83a8.28,8.28,0,0,1,1.3-6.55l10.22-15a.1.1,0,0,1,0,0l0,0,3.42-5a1.74,1.74,0,0,1,2.27-.52,1.45,1.45,0,0,1,.48,2.11l-2.55,3.75,6.5,3.76a1.44,1.44,0,0,1,.69.86,10.79,10.79,0,0,0,5,6.21,12.35,12.35,0,0,0,8.25,1.44,1.71,1.71,0,0,1,1.14.19l6.51,3.76,12.27-18-6.5-3.76a1.48,1.48,0,0,1-.69-.85,10.75,10.75,0,0,0-5-6.22,12.37,12.37,0,0,0-8.26-1.44,1.72,1.72,0,0,1-1.14-.19l-6.5-3.76-1.6,2.35a1.74,1.74,0,0,1-2.28.52,1.46,1.46,0,0,1-.48-2.11l2.5-3.66h0l3.06-4.5c4.7-6.89,10.44-7.87,14.62-8.58,2.49-.42,3.93-.7,4.58-1.67l1.62-2.38-.15-.08a1.53,1.53,0,0,1-.71-1,1.45,1.45,0,0,1,.23-1.16l3.94-5.77a6.32,6.32,0,0,1,8.25-1.89L151,72.85a5.3,5.3,0,0,1,1.75,7.67l-3.93,5.77a1.73,1.73,0,0,1-1,.7h0a1.69,1.69,0,0,1-1.23-.18l-.15-.08-1.62,2.37c-.66,1-.32,2.29.35,4.53,1.13,3.78,2.68,9-2,15.85L140.06,114h0l-14,20.59,0,.06,0,0-10.22,15a9.66,9.66,0,0,1-5.85,3.93,9.13,9.13,0,0,1-10.54-5,9,9,0,0,1-9-5.21,8.86,8.86,0,0,1-9.47-6.57ZM150,78.93a2.39,2.39,0,0,0-.79-3.45l-9.11-5.25a2.74,2.74,0,0,0-2-.29,2.79,2.79,0,0,0-1.7,1.14l-3,4.45L147,83.39Z"/><path class="cls-3" d="M110.81,106.45a1.73,1.73,0,0,1,2.27-.52l12.78,7.37a1.46,1.46,0,0,1,.48,2.11,1.73,1.73,0,0,1-2.27.52l-12.78-7.37A1.45,1.45,0,0,1,110.81,106.45Z"/><path class="cls-3" d="M108.77,112.25l12.78,7.38a1.45,1.45,0,0,1,.48,2.11,1.69,1.69,0,0,1-1,.69,1.66,1.66,0,0,1-1.23-.18L107,114.88a1.45,1.45,0,0,1-.48-2.11A1.73,1.73,0,0,1,108.77,112.25Z"/><path class="cls-3" d="M102.78,105.8a1.69,1.69,0,0,1-1,.69,1.74,1.74,0,0,1-1.24-.18,1.46,1.46,0,0,1-.48-2.11,1.73,1.73,0,0,1,2.27-.52,1.46,1.46,0,0,1,.49,2.11Z"/></g></svg>