<svg xmlns="http://www.w3.org/2000/svg" xmlns:xlink="http://www.w3.org/1999/xlink" viewBox="0 0 170.08 170.08"><defs><style>.cls-1{fill:#ed6b1d;}.cls-2{fill:#fff;}.cls-3{clip-path:url(#clip-path);}.cls-4{fill:none;stroke:#fff;stroke-miterlimit:10;stroke-width:1.97px;}</style><clipPath id="clip-path"><circle class="cls-1" cx="-93.3" cy="85.04" r="85.04"/></clipPath></defs><g id="Layer_1" data-name="Layer 1"><circle class="cls-1" cx="85.04" cy="84.84" r="85.04"/><path class="cls-2" d="M47.3,76.83c3.44,0,6.82.4,10.27.4a1,1,0,0,0,0-2c-3.44,0-6.83-.4-10.27-.4a1,1,0,0,0,0,2Z"/><path class="cls-2" d="M48.08,75.64a6.83,6.83,0,0,0-5.44-7.25,21.38,21.38,0,0,0-6-.22,10.13,10.13,0,0,0-4.8,1.4,4.57,4.57,0,0,0-1,6.89A7.18,7.18,0,0,0,34.5,78.2c2.08.62,4,1.7,6.09,2.27a30.48,30.48,0,0,1,5.57,1.82c1.93.95,4.14,1.29,6,2.39a10.41,10.41,0,0,1,4.7,5.88,9.39,9.39,0,0,1-.58,8.15,27.44,27.44,0,0,1-2,3.59c-.47.66-.9,1.35-1.38,2-1,1.32-2.15,1.64-3.52,2.37a13.55,13.55,0,0,1-6.78,1.84,31.87,31.87,0,0,0-4.25.55c-2.47.32-5.44.66-7.79-.29a32.8,32.8,0,0,1-5.86-2.53,22.3,22.3,0,0,1-4.54-4.66c-1.8-2.24-1.86-4.52-2.11-7.27-.06-.61-.51-.57.57-.36a21.93,21.93,0,0,0,3.22.47c1.61,0,5-.58,6.11.57s1.33,2.58,2.57,3.6a14.81,14.81,0,0,0,3.81,2.16c3.34,1.41,7,1.55,10-.5,2.24-1.49,4.42-3.81,3.12-6.65-1.59-3.48-5.55-4.4-9-4.85-2-.26-3.47-1.39-5.38-1.79-2.41-.52-5.42-.94-7.49-2.45-.94-.68-1.39-2-2.08-3a11.59,11.59,0,0,1-2-3.32c-1-3-1.36-6.08.41-8.8a19.39,19.39,0,0,1,2.13-3.08,16.24,16.24,0,0,1,3.39-2.28,17.2,17.2,0,0,1,7.39-2.87,16.92,16.92,0,0,1,3.8-.49c1.14.09,2.12.4,3.28.39a6.45,6.45,0,0,1,4.35,1.08,16.71,16.71,0,0,0,3,1.3,18.06,18.06,0,0,1,6.17,3.73c2.2,2.24,2.29,6.17,2.13,9-.07,1.26,1.9,1.26,2,0,.21-3.77-.18-8.43-3.4-11a27,27,0,0,0-4.73-3c-.86-.42-1.79-.65-2.67-1-1-.44-1.85-1.25-2.86-1.7-1.89-.83-4.51-.47-6.52-.71a22.81,22.81,0,0,0-6.63.68,14.11,14.11,0,0,0-5.09,2.09c-1.73,1.12-3.77,2.09-5.18,3.64-2.69,3-4.12,6.3-3.56,10.29A15.09,15.09,0,0,0,20.62,81c.46.8,1.11,1.45,1.62,2.21a12.48,12.48,0,0,0,1.69,2.54A14.37,14.37,0,0,0,28.84,88c1.06.35,2.16.5,3.24.76a24.56,24.56,0,0,1,3.46,1.35c2,.76,4.19.71,6.21,1.3A5.39,5.39,0,0,1,45.43,94c1,2.06-.24,3.31-1.79,4.4C40,100.92,34.09,99.8,31.13,96.5c-.93-1-1.18-3-2.44-3.71s-4.09-.41-5.58-.39c-1.94,0-7.16-1.91-7.18,1.44a22.2,22.2,0,0,0,.84,5.83c.58,2,2.13,3.43,3.49,5a15.58,15.58,0,0,0,4,3.64A43.69,43.69,0,0,0,30.64,111c3.77,1.3,8.16-.35,12-.51a16.75,16.75,0,0,0,5.81-1,19.87,19.87,0,0,0,4.8-2.54,18.12,18.12,0,0,0,3.36-4.37,32.86,32.86,0,0,0,2.43-5c1.56-3.88.07-9-2.69-12A13.16,13.16,0,0,0,50.87,82c-2.47-.85-4.8-2-7.28-2.77-1.83-.6-3.68-1.1-5.49-1.71-1.27-.42-2.48-.92-3.76-1.32-.91-.29-2.31-.83-2.61-1.81-1.29-4.21,5.22-4.17,7.47-4.16a7.83,7.83,0,0,1,4.47.94c2,1.16,2.51,2.3,2.44,4.52,0,1.27,1.93,1.27,2,0Z"/><path class="cls-2" d="M81.52,82.89c0-2.08.15-4.24,0-6.31-.07-.87-.27-1.72-.33-2.59,0-.41-.32-2.69,0-3,0-.05,3.29.11,3.93,0,2.16-.21,5.79-.59,7.57.71,2.11,1.54,3.3,5.26,1.65,7.46A6.94,6.94,0,0,1,90,81.9a30.11,30.11,0,0,1-6.08.21c-1.27,0-2.65-.32-3.82.29a1,1,0,0,0,.24,1.8l.13,0c1.19.44,1.7-1.46.52-1.9l-.13,0,.24,1.8c.81-.42,2.92,0,3.74,0A44.6,44.6,0,0,0,89.32,84a8.52,8.52,0,0,0,5.21-2.23c3.46-3.15,3-8.1-.33-11.3-2-1.85-4.31-1.45-6.81-1.46-1.35,0-2.6.18-4,.23-1,0-2.33-.34-3.31,0-1.57.63-1,2.91-1,4.27.14,3.12.39,6.18.39,9.32a1,1,0,0,0,2,0Z"/><path class="cls-2" d="M70.44,108.67c-.1-3.69.14-7.25-.21-11-.38-4.07,0-8.22-.3-12.3-.28-3.53.31-6.93.31-10.43,0-4.76-.21-9.51-.21-14.25a1,1,0,0,0-2,0c0,4.75.35,9.49.21,14.25-.11,3.49-.59,6.9-.31,10.43.32,4.09.06,8.19.3,12.3.1,1.73.39,3.42.41,5.17,0,1.94-.25,3.85-.2,5.78a1,1,0,0,0,2,0Z"/><path class="cls-2" d="M69.45,61.52c7.11-.09,14.23-.57,21.34-.6a18.41,18.41,0,0,1,5.28.63c1.73.51,3,1.85,4.46,2.86a15.55,15.55,0,0,1,5.32,7.33,15.77,15.77,0,0,1,.67,5.75,13.92,13.92,0,0,1-1.66,5.76,13.57,13.57,0,0,1-4.79,6.34c-1.47,1-2.37,2-4.28,2.3a29.09,29.09,0,0,1-5.52.12c-1.89-.05-3.77,0-5.66,0a13.17,13.17,0,0,0-3.87.1A1,1,0,0,0,80,93a11.64,11.64,0,0,0,.36,2.61,31,31,0,0,1,.21,4.19,17.39,17.39,0,0,1-.66,4.6c-.29,1.09,0,2.69-.37,3.64-.16.4.78-.13-.37,0a7.09,7.09,0,0,1-2-.37,19.79,19.79,0,0,0-3.08-.38,11.71,11.71,0,0,0-3,.06c-.61.13-1.18.45-1.81.54-1.25.17-.72,2.07.53,1.9.78-.11,1.52-.46,2.3-.57a15.89,15.89,0,0,1,4.71.42c1.25.21,3.69,1.13,4.45-.35.43-.85.06-2.17.17-3.07.2-1.63.86-3.14,1-4.8a34.6,34.6,0,0,0,0-4.32c-.06-1.32-.65-2.81-.53-4.11l-.73.94c1.16-.37,3,0,4.2,0,1.84,0,3.68,0,5.53,0,2.65.08,5.45.16,7.9-1,4.87-2.41,6.81-6.77,8.93-11.62,1.9-4.36.7-10.74-2.28-14.48a18.24,18.24,0,0,0-2.33-3A48.29,48.29,0,0,0,99,60.77a13.49,13.49,0,0,0-7-1.83c-7.49-.28-15,.52-22.52.61a1,1,0,0,0,0,2Z"/><path class="cls-2" d="M128.45,80.68c-.15-3.28-1-6.76-.78-10.05l-1,1c3.46-.38,7.13-.32,10.62-.41,3.22-.08,6.33-.07,9.55,0,1.48,0,4.75.65,5.47-1,.48-1.14.08-3.16.09-4.35a18.06,18.06,0,0,0-.07-4.41c-.57-2.2-2.95-1.34-4.62-1-3.53.61-6.47-.08-10-.53-3.18-.4-6.28.51-9.43.23-3.71-.33-7.81-.81-11.52-.32a1,1,0,0,0-1,1,15.6,15.6,0,0,0,.39,3.7,45.66,45.66,0,0,1,.19,4.68c0,4,0,8.08,0,12.13,0,7-.83,13.89-.81,20.83,0,1.7.37,3.32.42,5,0,.87-.22,1.58.61,2.12s1.38.09,2.14-.13a15.13,15.13,0,0,1,5.77-.06c1.86.23,3.45.54,3.53-1.8.14-4.14-.21-8.3,0-12.44a15,15,0,0,1,.3-3.28c0-.09,0-.37,0-.43.34-.42,1.41-.33,2-.34,2.21-.06,4.43,0,6.64,0,3.9,0,8.16.51,12-.06a1,1,0,0,0,.69-.69,11.63,11.63,0,0,0-.51-4.21,7.16,7.16,0,0,1-.08-3.09,3.65,3.65,0,0,0,.23-1.35c-.41-2.58-6.22-1.64-8-1.81-3.59-.37-7.29,1-10.84.31-1.2-.23-3.73-1.45-4.07.59-.21,1.24,1.69,1.77,1.9.52-.27,1.61,8.5.62,9.35.55,2.12-.16,4.19.13,6.3.18.54,0,2.94-.25,3.27.26,0,0-.36,2.13-.36,2.26.06,1.3,1.37,4,.34,4.61-.56.33-2.71,0-3.44,0H132.4c-1.48,0-3.84-.41-5.17.46-.89.58-.82,1.69-.91,2.66-.25,2.48-.24,4.93-.25,7.42s-.47,5.32,0,7.66c.14.67.63.44-.21.14a12.48,12.48,0,0,0-2.48-.26c-1.31-.12-3.74-.36-5,.26-.54.27-.17.92-.45.5-.13-.19,0-.81,0-1.08-.06-1.23-.39-2.42-.41-3.66-.1-4.3.65-8.58.59-12.88-.08-5.26.22-10.55.22-15.82,0-2.45.14-5,0-7.41-.15-1.91-.75-4.13-.54-6l-1,1a46.25,46.25,0,0,1,9.41.07,62.38,62.38,0,0,0,8-.1c2.64-.11,5.12.53,7.73.82a21.23,21.23,0,0,0,3.65.21c1.36-.08,3.07-.87,4.37-.62.78.14.14-.37.5.22.27.43,0,1.71,0,2.19a24.63,24.63,0,0,1,0,4.38c-.11.55.36.39-.63.31-.74-.07-1.49.07-2.23.06-1.36,0-2.68-.26-4.05-.26-2.63,0-5.22.16-7.84.2-2.92,0-6.11.1-9,.42a1,1,0,0,0-1,1c-.26,3.29.63,6.76.78,10.05,0,1.26,2,1.27,2,0Z"/><circle class="cls-1" cx="-93.3" cy="85.04" r="85.04"/><g class="cls-3"><path class="cls-4" d="M-69.5,77.36A25.77,25.77,0,0,0-52,84.07a26,26,0,0,0,13.71-3.84A23,23,0,0,0-24,85a23.15,23.15,0,0,0,15.6-6A22.83,22.83,0,0,0,6.82,84.82,22.91,22.91,0,0,0,15.9,83,21.52,21.52,0,0,0,29.49,63.25a21.65,21.65,0,0,0-14.12-20,24.18,24.18,0,0,0-8.55-1.59,16,16,0,0,0-3,.22v-.22c0-11.92-10.12-21.59-22.67-21.59-11.35,0-20.71,7.92-22.34,18.24A26,26,0,0,0-52,36a25.72,25.72,0,0,0-20.27,9.69"/></g></g></svg>