<svg width="27" height="34" viewBox="0 0 27 34" fill="none" xmlns="http://www.w3.org/2000/svg">
<g clip-path="url(#clip0_1676_1228)">
<path d="M23.9625 27.8506H2.025L0 28.574H27L23.9625 27.8506Z" fill="#1F8899"/>
<path d="M21.6002 21.702L15.8627 25.319L14.5127 5.78711L21.6002 21.702Z" fill="white"/>
<path opacity="0.19" d="M21.6 29.2506L15.1875 28.5742V32.8966L21.6 29.2506Z" fill="white"/>
<path opacity="0.19" d="M5.3999 29.5906C5.3999 29.5906 10.1249 29.2506 14.1749 28.5742C12.8249 29.8474 13.8374 31.8802 15.1874 33.9998C11.4749 32.6434 5.3999 29.5906 5.3999 29.5906Z" fill="white"/>
<path d="M27 25.3193H0L0.96525 26.0427H26.1326L27 25.3193Z" fill="#FF4343"/>
<path d="M0.965332 26.043L2.02508 27.8515H23.9626L26.1327 26.043H0.965332Z" fill="white"/>
<path d="M14.5123 0H14.1748V25.3191H14.5123V0Z" fill="#1F8899"/>
<path d="M5.3999 20.2558C5.3999 20.2558 10.1249 21.7026 14.1749 24.5962C12.8249 19.1707 13.8374 10.4898 15.1874 1.44727C11.4749 7.2345 5.3999 20.2558 5.3999 20.2558Z" fill="white"/>
</g>
<defs>
<clipPath id="clip0_1676_1228">
<rect width="27" height="34" fill="white"/>
</clipPath>
</defs>
</svg>
