<svg width="203" height="183" viewBox="0 0 203 183" fill="none" xmlns="http://www.w3.org/2000/svg">
<path d="M94.8567 2.11279C94.8567 2.11279 94.8567 0.905481 92.4421 0.301827C90.0275 -0.301827 81.8781 4.22558 78.8599 6.6402C75.8416 9.05481 73.427 19.3169 71.616 24.1462C70.3785 27.4421 62.863 41.954 67.0886 52.8197C71.3142 63.6855 117.192 119.825 129.265 121.636C141.338 123.447 162.768 117.109 167.597 100.81C172.426 84.5116 169.812 67.0237 143.451 48.896C114.475 28.9754 117.192 12.9786 110.854 6.6402C107.521 3.30803 102.402 0 99.9878 0C97.5731 0 94.8567 2.11279 94.8567 2.11279Z" fill="#C6522A"/>
<path d="M161.554 111.538C161.506 111.538 161.458 111.525 161.41 111.501C161.265 111.423 161.204 111.242 161.283 111.091C161.911 109.914 176.386 82.0188 152.922 63.9212C121.508 39.6906 117.862 28.2694 114.645 18.1944C113.95 16.0273 113.298 13.9809 112.387 11.8863C110.25 6.99062 100.664 1.08688 97.4162 1.20761C96.7703 1.23779 96.6798 1.50944 96.6496 1.59999C96.5953 1.75694 96.4262 1.84748 96.2693 1.79315C96.1123 1.73883 96.0278 1.5698 96.0761 1.41285C96.1908 1.06877 96.5108 0.646212 97.3921 0.609993C100.851 0.465116 110.685 6.47148 112.942 11.6508C113.866 13.7757 114.524 15.8342 115.224 18.0194C118.417 28.0099 122.033 39.3284 153.297 63.4504C177.159 81.8619 162.454 110.185 161.82 111.381C161.766 111.483 161.663 111.538 161.554 111.538Z" fill="#A54B28"/>
<path d="M141.036 121.938C140.915 121.938 140.801 121.866 140.752 121.745C140.692 121.588 140.771 121.413 140.922 121.353C147.248 118.89 155.614 108.024 157.504 96.3552C158.639 89.3589 157.92 79.3081 148.087 71.1587C119.045 47.091 115.58 32.2774 113.051 21.4599C112.32 18.345 111.693 15.6588 110.576 13.0932C108.36 8.00442 97.3498 2.68622 94.6756 3.36835C94.2711 3.47097 94.2349 3.68225 94.253 3.89353C94.2651 4.05652 94.1443 4.20743 93.9814 4.2195C93.8244 4.23158 93.6675 4.11085 93.6554 3.94786C93.6011 3.36232 93.921 2.93976 94.5307 2.78281C97.392 2.05239 108.771 7.41887 111.137 12.8518C112.278 15.4656 112.942 18.3088 113.648 21.321C116.16 32.054 119.594 46.753 148.485 70.6879C158.542 79.0183 159.273 89.2925 158.114 96.4458C157.214 102.018 154.793 107.819 151.31 112.775C148.123 117.308 144.423 120.64 141.157 121.908C141.121 121.92 141.084 121.926 141.048 121.926L141.036 121.938Z" fill="#A54B28"/>
<path d="M119.444 112.889C117.94 112.889 116.449 112.69 115.001 112.267C114.838 112.219 114.747 112.056 114.795 111.893C114.844 111.736 115.013 111.639 115.17 111.688C122.438 113.788 130.822 110.239 136.014 102.868C141.181 95.5339 143.566 83.3401 134.758 71.104C114.379 42.8107 112.87 33.2066 111.656 25.4858C111.192 22.5219 110.787 19.9564 109.375 16.7147C107.25 11.8432 95.0801 6.63975 91.8686 7.64785C91.3193 7.81687 91.1261 8.14285 91.2348 8.69217C91.265 8.85516 91.1624 9.01211 90.9994 9.04833C90.8424 9.08455 90.6794 8.97589 90.6432 8.8129C90.4742 7.95571 90.8424 7.33999 91.6875 7.07438C95.1948 5.97573 107.684 11.3301 109.93 16.4793C111.373 19.7934 111.801 22.5159 112.254 25.3953C113.461 33.0496 114.958 42.5753 135.247 70.7539C144.242 83.2435 141.797 95.7089 136.503 103.218C132.187 109.339 125.728 112.895 119.438 112.895L119.444 112.889Z" fill="#A54B28"/>
<path d="M72.2196 61.5729C72.123 61.5729 72.0265 61.5246 71.9661 61.4401C68.3321 55.9891 71.5375 43.083 73.7469 37.0223C74.6222 34.6077 74.8516 31.7041 75.0991 28.6255C75.5277 23.2228 75.9683 17.639 79.8438 13.3772C79.9585 13.2504 80.1456 13.2444 80.2724 13.3591C80.3991 13.4738 80.4052 13.6609 80.2905 13.7877C76.5539 17.8985 76.1192 23.3797 75.6967 28.6798C75.4492 31.7947 75.2198 34.7405 74.3143 37.2336C72.1472 43.1977 68.972 55.8624 72.4732 61.1081C72.5637 61.247 72.5275 61.4341 72.3887 61.5246C72.3404 61.5609 72.28 61.5729 72.2196 61.5729Z" fill="#A54B28"/>
<path d="M87.9691 84.6023C87.8725 84.6023 87.7035 84.5721 87.7155 84.4695C89.8827 71.4003 73.6685 54.5946 76.7592 39.4791C77.0429 38.0847 77.218 36.6178 77.3749 35.0664C77.8216 30.6416 78.3287 25.6192 82.8682 20.633C82.9829 20.5063 83.17 20.5002 83.2968 20.6149C83.4235 20.7296 83.4296 20.9167 83.3149 21.0435C78.9082 25.8909 78.4132 30.7986 77.9786 35.1328C77.8216 36.7083 77.6043 38.1813 77.3508 39.618C74.3687 56.4901 91.5608 71.7082 88.2226 84.1435C88.1803 84.3065 88.2769 84.4695 88.1381 84.56C88.0898 84.5962 88.0294 84.6083 87.9691 84.6083V84.6023Z" fill="#A54B28"/>
<path d="M101.068 93.4526C100.972 93.4526 100.803 93.4224 100.815 93.3198C103.181 74.7816 89.3636 58.5735 88.0114 57.4326C85.0535 54.9334 81.9929 52.3498 81.5704 44.3876C81.2746 38.8098 81.4738 33.7814 83.3934 27.3826C83.4417 27.2197 83.6107 27.1351 83.7677 27.1834C83.9246 27.2317 84.0212 27.4008 83.9669 27.5577C82.0714 33.8719 81.8783 38.84 82.168 44.3574C82.5725 52.054 85.4036 54.4445 88.3917 56.9738C89.774 58.1388 103.894 73.4958 101.304 92.9878C101.28 93.1508 101.358 93.3138 101.219 93.4043C101.171 93.4405 101.111 93.4526 101.05 93.4526H101.068Z" fill="#A54B28"/>
<path d="M72.7449 102.49C76.3366 94.1169 78.377 89.173 79.3187 86.5531C81.3832 80.8365 82.6629 78.6573 83.9548 74.8785C85.4337 70.5623 83.3451 63.2159 78.0208 62.9503C72.6966 62.6846 68.966 64.7612 66.5514 69.5904C64.1368 74.4197 59.3076 91.322 58.1002 93.7366C56.8929 96.1512 47.8381 115.468 47.8381 115.468C47.8381 115.468 42.9063 126.056 45.8762 132.739C47.7657 136.988 52.0456 136.355 54.9311 134.507C58.1546 132.443 59.9172 128.145 63.5392 122.108C67.1611 116.072 72.7328 102.671 72.7449 102.49Z" fill="#FFBCAB"/>
<path d="M53.8626 116.633C53.8626 116.633 45.1942 95.6315 44.2404 93.6756C42.5501 90.2106 39.2119 80.2624 37.075 75.2159C34.9381 70.1693 27.2536 73.1574 29.3905 79.5199C29.4569 79.7131 32.8977 92.4683 33.3022 94.3879C35.2278 103.533 36.2057 117.001 39.2119 123.659C43.3349 132.786 48.6591 136.499 49.8181 136.837C50.9772 137.175 52.7821 137.048 55.4683 130.541C58.3719 123.514 53.8566 116.633 53.8566 116.633H53.8626Z" fill="#FFBCAB"/>
<path d="M37.8234 73.9599C37.8234 73.9599 38.246 72.5594 38.2581 72.0765C38.3003 70.845 37.8657 68.5391 35.6261 67.2171C33.5073 65.9614 31.2919 65.1224 29.6017 63.402C29.4689 63.2933 29.3361 63.1786 29.2093 63.0639C28.3159 62.2429 27.5674 61.2228 26.7826 60.0275C26.6377 59.8585 26.4929 59.6955 26.348 59.5265C25.7624 58.8625 25.1648 58.1864 24.537 57.5103C24.362 57.3413 24.1869 57.1783 24.0058 57.0274C23.1184 56.2728 21.893 55.6269 21.06 57.0938C20.9694 57.2507 20.897 57.5767 20.9392 57.7336C21.1384 60.0094 23.5108 61.591 25.032 63.2027C25.7081 64.0056 25.358 64.6032 25.3399 64.7059C25.201 64.7059 24.9234 65.1526 23.1365 64.5368C20.2571 63.2148 18.2047 65.6174 15.6331 65.889C15.3494 65.9192 15.0536 65.9252 14.7518 65.889C14.5948 65.9071 14.4439 65.9132 14.287 65.9192C12.9348 66.2089 11.6249 65.8769 10.3451 65.8528C10.1338 65.8528 9.92255 65.8528 9.71127 65.8709C9.17402 65.6777 8.75146 65.8045 8.3772 66.0822C8.28665 66.1546 7.44153 66.9092 7.30269 66.9937C5.98069 67.7724 4.24216 67.2653 2.52175 67.0178C2.37687 67.0178 2.22596 67.042 2.08712 67.0722C1.242 67.2653 -1.17261 67.6275 0.686641 69.3479C1.11524 69.7403 3.49363 70.3259 3.74113 70.3923C5.12954 70.676 8.39531 71.7082 8.60658 71.7746C10.6771 72.4628 12.9529 73.4347 15.2649 73.2898C15.5848 73.3502 20.4925 74.7325 22.4665 75.3905C23.0037 75.626 25.4848 76.9721 25.6598 77.0747C35.2519 82.8457 37.8234 73.9659 37.8234 73.9659V73.9599Z" fill="#FFBCAB"/>
<path d="M128.553 102.489C124.961 94.1159 122.921 89.172 121.979 86.5522C119.914 80.8356 118.635 78.6564 117.343 74.8775C115.864 70.5614 117.953 63.2149 123.277 62.9493C128.601 62.6837 132.332 64.7602 134.746 69.5895C137.161 74.4187 141.99 91.321 143.197 93.7356C144.405 96.1503 153.459 115.467 153.459 115.467C153.459 115.467 158.391 126.055 155.421 132.738C153.532 136.987 149.252 136.354 146.367 134.506C143.143 132.442 141.38 128.144 137.758 122.107C134.136 116.071 128.565 102.67 128.553 102.489Z" fill="#FFBCAB"/>
<path d="M147.876 116.633C147.876 116.633 156.834 95.7583 157.818 93.8145C159.556 90.3737 163.033 80.4677 165.243 75.4574C167.452 70.4471 175.094 73.5378 172.861 79.8701C172.795 80.0572 169.173 92.7642 168.738 94.6778C166.686 103.793 165.52 117.248 162.418 123.864C158.168 132.931 152.795 136.565 151.63 136.891C150.465 137.217 148.66 137.06 146.065 130.517C143.258 123.448 147.87 116.633 147.87 116.633H147.876Z" fill="#FFBCAB"/>
<path d="M164.512 74.1886C164.512 74.1886 164.108 72.7821 164.102 72.2991C164.078 71.0677 164.542 68.7678 166.8 67.4759C168.937 66.2505 171.165 65.4416 172.879 63.7454C173.012 63.6367 173.145 63.5281 173.277 63.4073C174.183 62.5984 174.943 61.5903 175.746 60.4011C175.891 60.2381 176.042 60.0751 176.187 59.9061C176.778 59.2481 177.388 58.5841 178.028 57.9141C178.209 57.7511 178.384 57.5881 178.565 57.4372C179.459 56.6947 180.696 56.0669 181.511 57.5458C181.596 57.7028 181.668 58.0288 181.62 58.1857C181.39 60.4554 178.994 62.0068 177.449 63.5945C176.76 64.3913 177.104 64.9889 177.123 65.0915C177.261 65.0915 177.533 65.5443 179.326 64.9527C182.223 63.6669 184.24 66.1057 186.811 66.4075C187.095 66.4437 187.391 66.4497 187.693 66.4196C187.85 66.4377 188 66.4497 188.157 66.4558C189.504 66.7697 190.826 66.4497 192.099 66.4437C192.311 66.4437 192.522 66.4497 192.733 66.4739C193.276 66.2868 193.693 66.4196 194.067 66.7033C194.158 66.7757 194.991 67.5423 195.13 67.6329C196.446 68.4297 198.19 67.9468 199.911 67.7234C200.055 67.7295 200.2 67.7536 200.345 67.7838C201.19 67.9891 203.599 68.3875 201.715 70.0777C201.281 70.464 198.896 71.0134 198.649 71.0798C197.254 71.3454 193.977 72.3293 193.765 72.3957C191.683 73.0537 189.395 73.9954 187.089 73.8204C186.763 73.8807 181.837 75.1846 179.857 75.8245C179.314 76.0539 176.821 77.3638 176.64 77.4664C166.969 83.1046 164.518 74.1886 164.518 74.1886H164.512Z" fill="#FFBCAB"/>
<path d="M101.316 182.273H140.149C140.517 174.335 138.887 166.463 136.967 158.108C128.559 159.551 107.087 169.771 101.316 182.273Z" fill="#FFBCAB"/>
<path d="M62.9233 158.326C61.4684 167.097 61.4503 175.398 63.0561 182.273H97.0176C91.4821 170.279 71.9298 160.391 62.9233 158.326Z" fill="#FFBCAB"/>
<path d="M126.808 128.596C120.85 118.189 120.747 125.245 128.118 94.9297C130.098 86.7683 140.239 65.4171 124.931 62.7007C124.629 62.6463 120.886 61.9038 119.166 61.2881C114.421 59.5858 111.391 57.9137 110.696 57.2195C108.704 55.2274 109.326 36.3089 109.326 36.3089C109.326 36.3089 104.932 35.1921 99.734 35.3551C94.5366 35.1982 90.142 36.3089 90.142 36.3089C90.142 36.3089 90.7637 55.2274 88.7717 57.2195C88.0775 57.9137 85.0411 59.5858 80.3024 61.2881C78.588 61.9038 74.8454 62.6463 74.5375 62.7007C59.2288 65.4171 69.2797 86.7925 71.3502 94.9297C79.4332 126.742 78.1413 119.981 72.5273 129.066C81.1355 133.051 92.7377 137.167 99.1726 137.167C105.861 137.167 118.127 132.719 126.814 128.596H126.808Z" fill="#FFBCAB"/>
<path d="M126.808 128.596C118.121 132.719 105.855 137.168 99.1667 137.168C92.7318 137.168 81.1295 133.051 72.5214 129.067C66.1951 139.377 64.4868 148.872 62.9173 158.332C71.9238 160.396 91.4822 170.284 97.0117 182.279H101.31C107.081 169.771 128.553 159.557 136.961 158.114C134.716 148.559 132.452 139.413 126.808 128.602V128.596Z" fill="#7EBCB1"/>
<path opacity="0.27" d="M125.16 138.84C126.827 138.84 128.178 137.489 128.178 135.822C128.178 134.155 126.827 132.804 125.16 132.804C123.493 132.804 122.142 134.155 122.142 135.822C122.142 137.489 123.493 138.84 125.16 138.84Z" fill="#0C888E"/>
<path opacity="0.27" d="M130.593 152.2C132.26 152.2 133.611 150.848 133.611 149.181C133.611 147.514 132.26 146.163 130.593 146.163C128.926 146.163 127.575 147.514 127.575 149.181C127.575 150.848 128.926 152.2 130.593 152.2Z" fill="#0C888E"/>
<path opacity="0.27" d="M116.878 146.96C118.545 146.96 119.896 145.609 119.896 143.942C119.896 142.275 118.545 140.924 116.878 140.924C115.211 140.924 113.86 142.275 113.86 143.942C113.86 145.609 115.211 146.96 116.878 146.96Z" fill="#0C888E"/>
<path opacity="0.27" d="M122.142 160.246C123.809 160.246 125.16 158.895 125.16 157.228C125.16 155.561 123.809 154.21 122.142 154.21C120.475 154.21 119.123 155.561 119.123 157.228C119.123 158.895 120.475 160.246 122.142 160.246Z" fill="#0C888E"/>
<path opacity="0.27" d="M96.6677 164.369C98.3346 164.369 99.6859 163.017 99.6859 161.35C99.6859 159.683 98.3346 158.332 96.6677 158.332C95.0007 158.332 93.6494 159.683 93.6494 161.35C93.6494 163.017 95.0007 164.369 96.6677 164.369Z" fill="#0C888E"/>
<path opacity="0.27" d="M94.2891 153.6C95.9561 153.6 97.3074 152.249 97.3074 150.582C97.3074 148.915 95.9561 147.563 94.2891 147.563C92.6222 147.563 91.2708 148.915 91.2708 150.582C91.2708 152.249 92.6222 153.6 94.2891 153.6Z" fill="#0C888E"/>
<path opacity="0.27" d="M101.636 144.545C103.303 144.545 104.654 143.194 104.654 141.527C104.654 139.86 103.303 138.509 101.636 138.509C99.9687 138.509 98.6174 139.86 98.6174 141.527C98.6174 143.194 99.9687 144.545 101.636 144.545Z" fill="#0C888E"/>
<path opacity="0.27" d="M108.994 157.227C110.661 157.227 112.012 155.876 112.012 154.209C112.012 152.542 110.661 151.19 108.994 151.19C107.327 151.19 105.976 152.542 105.976 154.209C105.976 155.876 107.327 157.227 108.994 157.227Z" fill="#0C888E"/>
<path opacity="0.27" d="M108.994 169.736C110.661 169.736 112.012 168.384 112.012 166.717C112.012 165.051 110.661 163.699 108.994 163.699C107.327 163.699 105.976 165.051 105.976 166.717C105.976 168.384 107.327 169.736 108.994 169.736Z" fill="#0C888E"/>
<path opacity="0.27" d="M69.0202 157.826C70.6872 157.826 72.0385 156.474 72.0385 154.807C72.0385 153.14 70.6872 151.789 69.0202 151.789C67.3533 151.789 66.002 153.14 66.002 154.807C66.002 156.474 67.3533 157.826 69.0202 157.826Z" fill="#0C888E"/>
<path opacity="0.27" d="M84.7997 166.717C86.4666 166.717 87.8179 165.366 87.8179 163.699C87.8179 162.032 86.4666 160.681 84.7997 160.681C83.1327 160.681 81.7814 162.032 81.7814 163.699C81.7814 165.366 83.1327 166.717 84.7997 166.717Z" fill="#0C888E"/>
<path opacity="0.27" d="M98.231 178.941C99.898 178.941 101.249 177.59 101.249 175.923C101.249 174.256 99.898 172.904 98.231 172.904C96.5641 172.904 95.2128 174.256 95.2128 175.923C95.2128 177.59 96.5641 178.941 98.231 178.941Z" fill="#0C888E"/>
<path opacity="0.27" d="M80.2059 153.6C81.8728 153.6 83.2242 152.249 83.2242 150.582C83.2242 148.915 81.8728 147.563 80.2059 147.563C78.5389 147.563 77.1876 148.915 77.1876 150.582C77.1876 152.249 78.5389 153.6 80.2059 153.6Z" fill="#0C888E"/>
<path opacity="0.27" d="M70.8312 144.545C72.4981 144.545 73.8495 143.194 73.8495 141.527C73.8495 139.86 72.4981 138.509 70.8312 138.509C69.1643 138.509 67.8129 139.86 67.8129 141.527C67.8129 143.194 69.1643 144.545 70.8312 144.545Z" fill="#0C888E"/>
<path opacity="0.27" d="M85.3914 141.858C87.0584 141.858 88.4097 140.507 88.4097 138.84C88.4097 137.173 87.0584 135.821 85.3914 135.821C83.7245 135.821 82.3731 137.173 82.3731 138.84C82.3731 140.507 83.7245 141.858 85.3914 141.858Z" fill="#0C888E"/>
<path d="M99.1669 96.1431C99.1669 96.1431 81.4798 92.9317 80.2725 79.6513C79.5662 71.8702 81.2866 63.7148 84.0815 59.29C82.343 60.0506 80.5743 60.763 79.1557 61.2881C77.2844 67.1496 74.6826 75.136 73.9341 76.633C72.7268 79.0476 68.1994 89.3098 69.4067 94.7427C70.614 100.176 74.8396 104.401 82.0834 105.005C89.3273 105.608 99.2695 99.0467 99.2695 99.0467L99.1729 96.1492L99.1669 96.1431Z" fill="#FCF5EC"/>
<path d="M99.1669 96.1431C99.1669 96.1431 116.842 92.9317 118.049 79.6513C118.755 71.8702 117.035 63.7148 114.24 59.29C115.979 60.0506 117.747 60.763 119.166 61.2881C121.037 67.1496 123.639 75.136 124.388 76.633C125.595 79.0476 130.122 89.3098 128.915 94.7427C127.708 100.176 123.482 104.401 116.238 105.005C108.994 105.608 99.2634 99.0467 99.2634 99.0467L99.1669 96.1492V96.1431Z" fill="#FCF5EC"/>
<path d="M98.8348 133.39C98.6778 133.39 98.5269 133.329 98.4062 133.215C98.1707 132.979 98.1707 132.599 98.4062 132.363C98.9736 131.796 99.3479 131.422 98.8649 129.961C98.7623 129.647 98.9313 129.303 99.2452 129.2C99.5652 129.092 99.9032 129.267 100.006 129.581C100.73 131.748 99.9093 132.563 99.2573 133.215C99.1366 133.335 98.9857 133.39 98.8287 133.39H98.8348Z" fill="#F2A891"/>
<path d="M97.6275 68.5088C97.5007 68.5088 97.374 68.4665 97.2653 68.3881C94.9473 66.6495 92.6836 65.4905 89.1763 65.4905C88.8443 65.4905 88.5727 65.2189 88.5727 64.8869C88.5727 64.5548 88.8443 64.2832 89.1763 64.2832C93.245 64.2832 95.8165 65.7923 97.9897 67.4222C98.2553 67.6214 98.3096 68.0017 98.1104 68.2673C97.9897 68.4243 97.8086 68.5088 97.6275 68.5088Z" fill="#F2A891"/>
<path d="M102.964 68.5088C103.091 68.5088 103.217 68.4665 103.326 68.3881C105.644 66.6495 107.908 65.4905 111.415 65.4905C111.747 65.4905 112.019 65.2189 112.019 64.8869C112.019 64.5548 111.747 64.2832 111.415 64.2832C107.346 64.2832 104.775 65.7923 102.602 67.4222C102.336 67.6214 102.282 68.0017 102.481 68.2673C102.602 68.4243 102.783 68.5088 102.964 68.5088Z" fill="#F2A891"/>
<path d="M110.636 30.8581C111.843 18.785 91.3192 10.9375 91.3192 10.9375C91.3192 10.9375 87.7938 13.0624 84.0753 15.7667C80.7552 18.1814 80.4534 24.2179 78.9443 27.2362C77.8637 29.3972 81.0571 33.8764 81.0571 35.6873C81.0571 37.4983 81.0571 42.3275 84.0753 45.3458C87.0936 48.3641 91.7055 51.5695 92.5265 51.986C98.6777 55.131 101.352 51.8471 105.07 47.0119C109.32 41.5005 110.262 34.5706 110.636 30.8581Z" fill="#F2A891"/>
<path d="M109.809 30.2546C111.016 18.1815 90.4922 10.334 90.4922 10.334C90.4922 10.334 86.9669 12.4588 83.2484 15.1632C79.9283 17.5778 79.6265 23.6144 78.1173 26.6326C77.0368 28.7937 80.2301 33.2728 80.2301 35.0838C80.2301 36.8948 80.2301 41.724 83.2484 44.7423C86.2667 47.7605 90.8786 50.966 91.6995 51.3825C97.8508 54.5275 100.525 51.2436 104.243 46.4084C108.493 40.897 109.435 33.967 109.809 30.2546Z" fill="#FFBCAB"/>
<path d="M101.3 29.8783C102.183 29.6885 102.701 28.6097 102.455 27.4689C102.21 26.3281 101.295 25.5572 100.412 25.7471C99.5287 25.9369 99.0114 27.0156 99.2566 28.1564C99.5018 29.2972 100.417 30.0682 101.3 29.8783Z" fill="#4C271A"/>
<path d="M86.5387 33.506C87.4059 33.2647 87.8553 32.1578 87.5425 31.0337C87.2297 29.9095 86.2731 29.1938 85.4059 29.4351C84.5387 29.6764 84.0892 30.7834 84.4021 31.9075C84.7149 33.0317 85.6715 33.7474 86.5387 33.506Z" fill="#4C271A"/>
<path d="M86.6729 31.7188C87.0405 31.6765 87.294 31.2555 87.2391 30.7786C87.1842 30.3017 86.8416 29.9494 86.474 29.9917C86.1063 30.034 85.8528 30.455 85.9078 30.9319C85.9627 31.4088 86.3053 31.7611 86.6729 31.7188Z" fill="#FCF5EC"/>
<path d="M101.764 28.0967C102.132 28.0544 102.385 27.6334 102.33 27.1565C102.275 26.6796 101.933 26.3273 101.565 26.3696C101.197 26.412 100.944 26.8329 100.999 27.3098C101.054 27.7868 101.396 28.1391 101.764 28.0967Z" fill="#FCF5EC"/>
<path d="M92.8041 40.536C90.5766 40.536 89.7858 38.9786 89.7858 37.5177C89.7858 37.1857 90.0575 36.9141 90.3895 36.9141C90.7215 36.9141 90.9931 37.1857 90.9931 37.5177C90.9931 38.3447 91.307 39.3287 92.8041 39.3287C93.1361 39.3287 93.4078 39.6003 93.4078 39.9323C93.4078 40.2643 93.1361 40.536 92.8041 40.536Z" fill="#F2A891"/>
<path d="M93.4984 23.0662C94.6997 22.1305 97.4343 20.8387 98.9494 20.7361C100.954 20.6033 105.499 21.6657 105.499 21.6657C105.499 21.6657 105.052 21.8529 104.455 21.9917C103.857 22.1305 100.839 22.0943 99.0822 22.6074C97.223 23.1507 95.1162 24.5633 95.1162 24.5633C95.1162 24.5633 92.9431 24.2373 93.4984 23.0722V23.0662Z" fill="#C6522A"/>
<path d="M87.0272 25.6667C85.9226 24.9484 84.0331 24.2783 82.862 24.4232C81.3167 24.6224 79.222 25.9806 79.222 25.9806C79.222 25.9806 80.043 26.4273 80.5259 26.4636C81.0088 26.4998 82.5723 25.8418 83.2484 26.041C83.8641 26.2161 86.1157 27.3872 86.1157 27.3872C86.1157 27.3872 87.6913 26.7171 87.0272 25.6667Z" fill="#C6522A"/>
<path d="M97.9715 26.7419L97.6093 26.2589C99.6255 24.7498 102.638 24.9913 104.575 25.8545L104.328 26.4038C102.487 25.5889 99.71 25.444 97.9655 26.7419H97.9715Z" fill="#4C271A"/>
<path d="M91.1985 44.6517C90.2085 44.6517 89.3815 44.4525 88.8201 44.0359C88.5545 43.8367 88.5002 43.4564 88.6994 43.1908C88.8986 42.9252 89.2789 42.8709 89.5445 43.0701C91.0597 44.205 97.4282 42.7502 101.527 38.3133C101.756 38.0658 102.137 38.0537 102.378 38.2771C102.62 38.5004 102.638 38.8868 102.414 39.1282C99.1909 42.6174 94.3556 44.6517 91.1985 44.6517Z" fill="#EA8686"/>
<path d="M82.705 30.4893L82.3428 30.0064C84.2081 28.618 85.681 28.443 87.7878 29.3786L87.5403 29.9279C85.6267 29.0768 84.4013 29.2217 82.705 30.4893Z" fill="#4C271A"/>
</svg>
