<svg width="206" height="194" viewBox="0 0 206 194" fill="none" xmlns="http://www.w3.org/2000/svg">
<path d="M73.7378 25.0419C73.7378 25.0419 73.7378 23.9119 71.4779 23.3469C69.218 22.782 61.5908 27.0193 58.7659 29.2792C55.941 31.5391 53.6811 41.1438 51.9862 45.6636C50.8279 48.7484 43.794 62.3305 47.7488 72.5001C51.7037 82.6697 94.642 135.213 105.942 136.908C117.241 138.603 137.298 132.67 141.818 117.416C146.338 102.161 143.891 85.794 119.219 68.8277C92.0996 50.1834 94.642 35.2115 88.7097 29.2792C85.591 26.1605 80.8 23.0645 78.5401 23.0645C76.2802 23.0645 73.7378 25.0419 73.7378 25.0419Z" fill="#C6522A"/>
<path d="M136.157 127.456C136.112 127.456 136.066 127.444 136.021 127.422C135.886 127.348 135.829 127.179 135.903 127.038C136.49 125.936 150.038 99.8282 128.078 82.8902C98.6761 60.2119 95.2636 49.5225 92.2523 40.093C91.6025 38.0648 90.9924 36.1495 90.1393 34.189C88.1392 29.607 79.1674 24.0816 76.1278 24.1945C75.5233 24.2228 75.4385 24.477 75.4103 24.5618C75.3594 24.7087 75.2013 24.7934 75.0544 24.7426C74.9075 24.6917 74.8283 24.5335 74.8735 24.3866C74.9809 24.0646 75.2803 23.6691 76.1052 23.6352C79.3425 23.4996 88.546 29.1212 90.6591 33.9687C91.5235 35.9574 92.1393 37.884 92.7947 39.9292C95.7834 49.2796 99.1676 59.8729 128.428 82.4495C150.761 99.6813 136.999 126.19 136.405 127.309C136.355 127.405 136.258 127.456 136.157 127.456Z" fill="#A54B28"/>
<path d="M116.959 137.19C116.846 137.19 116.738 137.122 116.693 137.009C116.637 136.863 116.71 136.699 116.851 136.642C122.772 134.337 130.603 124.167 132.371 113.246C133.433 106.698 132.761 97.2915 123.558 89.6643C96.3765 67.1386 93.1335 53.274 90.7662 43.1496C90.0826 40.2343 89.4951 37.7201 88.4498 35.319C86.3764 30.5562 76.0712 25.5787 73.5683 26.2172C73.1898 26.3132 73.1558 26.511 73.1728 26.7087C73.1841 26.8612 73.0711 27.0025 72.9186 27.0138C72.7717 27.0251 72.6248 26.9121 72.6135 26.7595C72.5626 26.2115 72.8621 25.816 73.4327 25.6691C76.1107 24.9855 86.7606 30.0082 88.9753 35.093C90.0431 37.5393 90.6645 40.2004 91.3256 43.0196C93.6759 53.0649 96.8906 66.8222 123.931 89.2236C133.343 97.0203 134.027 106.636 132.942 113.331C132.1 118.546 129.834 123.975 126.575 128.614C123.591 132.857 120.128 135.976 117.072 137.162C117.038 137.173 117.004 137.179 116.97 137.179L116.959 137.19Z" fill="#A54B28"/>
<path d="M96.7437 128.715C95.3369 128.715 93.9414 128.529 92.5855 128.134C92.4329 128.088 92.3481 127.936 92.3933 127.783C92.4385 127.636 92.5967 127.546 92.7436 127.591C99.5459 129.557 107.394 126.235 112.252 119.337C117.089 112.472 119.32 101.06 111.077 89.6076C92.0035 63.1271 90.5911 54.1383 89.4555 46.9122C89.0204 44.1381 88.6419 41.737 87.3198 38.703C85.3311 34.1437 73.9411 29.2736 70.9354 30.2171C70.4213 30.3753 70.2406 30.6804 70.3423 31.1945C70.3705 31.347 70.2745 31.4939 70.1219 31.5278C69.975 31.5617 69.8224 31.46 69.7885 31.3075C69.6303 30.5052 69.975 29.9289 70.766 29.6803C74.0485 28.6521 85.7379 33.6634 87.8396 38.4827C89.1899 41.5844 89.591 44.1325 90.0148 46.8274C91.1447 53.9914 92.5459 62.9067 111.535 89.2799C119.953 100.969 117.665 112.636 112.71 119.664C108.67 125.393 102.625 128.721 96.738 128.721L96.7437 128.715Z" fill="#A54B28"/>
<path d="M52.5512 80.6916C52.4608 80.6916 52.3705 80.6464 52.314 80.5673C48.9128 75.4655 51.9128 63.3863 53.9806 57.7139C54.7998 55.454 55.0146 52.7364 55.2462 49.855C55.6473 44.7985 56.0597 39.5724 59.6869 35.5837C59.7942 35.465 59.9694 35.4594 60.0881 35.5667C60.2067 35.6741 60.2123 35.8492 60.105 35.9679C56.6078 39.8154 56.201 44.9454 55.8055 49.9059C55.5739 52.8212 55.3592 55.5783 54.5117 57.9116C52.4834 63.4936 49.5117 75.3469 52.7885 80.2565C52.8733 80.3865 52.8394 80.5616 52.7094 80.6464C52.6642 80.6803 52.6077 80.6916 52.5512 80.6916Z" fill="#A54B28"/>
<path d="M67.2859 102.241C67.1955 102.241 67.0373 102.212 67.0486 102.116C69.0768 89.8845 53.9015 74.1555 56.7942 60.0084C57.0598 58.7033 57.2236 57.3304 57.3705 55.8784C57.7886 51.7371 58.2631 47.0365 62.5118 42.3698C62.6191 42.2512 62.7943 42.2455 62.913 42.3529C63.0316 42.4602 63.0372 42.6353 62.9299 42.754C58.8055 47.2908 58.3422 51.884 57.9355 55.9406C57.7886 57.4152 57.5852 58.7937 57.3479 60.1384C54.5569 75.9295 70.6475 90.1726 67.5231 101.811C67.4836 101.964 67.574 102.116 67.4441 102.201C67.3989 102.235 67.3424 102.246 67.2859 102.246V102.241Z" fill="#A54B28"/>
<path d="M79.5515 110.529C79.4611 110.529 79.3029 110.501 79.3142 110.405C81.5289 93.0544 68.5966 77.8847 67.3311 76.8169C64.5627 74.4779 61.6983 72.0598 61.3028 64.6077C61.0259 59.3873 61.2123 54.681 63.009 48.6923C63.0542 48.5397 63.2123 48.4606 63.3592 48.5058C63.5061 48.551 63.5966 48.7092 63.5457 48.8561C61.7717 54.7658 61.5909 59.4155 61.8621 64.5795C62.2406 71.7829 64.8904 74.0202 67.687 76.3875C68.9808 77.4779 82.1956 91.851 79.7719 110.094C79.7493 110.247 79.8227 110.399 79.6928 110.484C79.6476 110.518 79.5911 110.529 79.5346 110.529H79.5515Z" fill="#A54B28"/>
<path d="M28.6016 81.2586C36.1384 85.2473 34.6695 84.4903 37.0424 85.575C42.2176 87.9366 45.7996 89.479 47.1499 95.1006C48.1442 99.2532 63.393 88.1739 64.0541 83.2304C64.7038 78.332 60.1218 76.2303 55.7997 73.6088C51.4776 70.9873 40.0481 69.5861 37.8899 68.2754C35.7317 66.9646 22.1778 60.2922 22.1778 60.2922C22.1778 60.2922 12.6749 54.8797 6.21718 57.1397C2.10414 58.5803 -1.81117 64.6991 0.91768 66.3884C3.64653 68.0776 9.44884 71.0268 14.7822 74.428C20.1156 77.8292 28.4378 81.236 28.6073 81.2642L28.6016 81.2586Z" fill="#FFBCAB"/>
<path d="M20.0931 58.2749C20.0931 58.2749 31.1723 40.1278 32.1215 38.3255C33.8051 35.1333 39.4775 27.1163 42.1103 22.7151C44.7714 18.2687 38.2402 14.1557 34.613 19.2913C34.5057 19.4439 26.7712 29.0937 25.5451 30.461C19.7033 36.9695 8.69181 45.6193 4.47142 52.0262C-0.686833 59.8568 0.437495 62.128 0.00811176 64.2806C-0.21223 65.3879 4.07594 68.7439 10.4771 67.1789C17.3868 65.4896 20.0931 58.2805 20.0931 58.2805V58.2749Z" fill="#FFBCAB"/>
<path d="M36.3702 21.4268C36.3702 21.4268 37.0143 22.6359 37.325 22.9636C38.1103 23.8054 39.9183 25.0483 42.2799 24.4551C44.5172 23.8901 46.5398 22.9805 48.7941 23.0144C48.9579 22.9975 49.1161 22.9862 49.28 22.9805C50.4156 22.9353 51.5851 23.1218 52.8958 23.3986C53.0992 23.4155 53.3083 23.4268 53.5117 23.4438C54.3365 23.5003 55.184 23.5511 56.0484 23.5907C56.2744 23.5907 56.5004 23.5794 56.7151 23.5624C57.7998 23.4777 59.0371 23.0992 58.6247 21.5737C58.5795 21.4099 58.4157 21.15 58.2801 21.0709C56.6473 19.6923 54.0258 20.2121 51.9523 20.1443C50.9749 20.0539 50.8111 19.4324 50.7602 19.3477C50.8506 19.2573 50.7433 18.7771 52.3365 18.0087C55.1218 16.9861 54.8958 14.0369 56.4269 12.1612C56.5964 11.9521 56.7885 11.7544 57.0089 11.5792C57.0993 11.4663 57.1953 11.3589 57.297 11.2572C58.0032 10.1725 59.0937 9.52838 59.9581 8.69786C60.0993 8.56226 60.2406 8.41537 60.3705 8.26282C60.8564 8.03683 61.0541 7.67525 61.1163 7.24586C61.1332 7.13852 61.1897 6.08201 61.2293 5.92946C61.5909 4.53962 63.0824 3.7317 64.3875 2.75993C64.4835 2.65824 64.5683 2.55089 64.6361 2.4379C65.0711 1.75427 66.4327 -0.0819088 64.0654 0.00283802C63.523 0.0254372 61.557 1.20624 61.3479 1.32489C60.2406 2.05371 57.3874 3.52265 57.2066 3.61305C55.3761 4.52267 53.2235 5.38143 51.7885 6.99727C51.5342 7.16677 47.3647 9.49448 45.6189 10.3532C45.1048 10.551 42.5737 11.2968 42.3872 11.342C32.212 13.8392 36.3645 21.4325 36.3645 21.4325L36.3702 21.4268Z" fill="#FFBCAB"/>
<path d="M118.202 102.959C110.727 98.8572 111.795 99.699 109.586 98.3148C104.766 95.2865 102.569 94.4221 99.433 92.3769C95.8567 90.0435 93.1617 83.4276 96.9301 80.162C100.699 76.8964 104.648 76.275 109.213 78.4445C113.778 80.614 121.659 86.9813 123.942 88.0661C126.224 89.1508 135.637 93.7045 135.637 93.7045C135.637 93.7045 145.377 98.6707 147.038 105.304C148.095 109.53 144.575 111.524 141.383 111.823C137.818 112.162 134.038 110.01 127.891 107.643C121.738 105.281 118.309 103.078 118.19 102.953L118.202 102.959Z" fill="#FFBCAB"/>
<path d="M143.473 92.5512C143.473 92.5512 157.53 76.5962 158.97 75.1555C161.518 72.6075 167.501 64.8108 170.925 60.9972C174.388 57.1384 180.247 62.161 176.417 67.1442C176.304 67.2911 169.377 77.5341 168.434 79.1161C163.948 86.6246 158.993 98.2462 154.303 103.229C147.88 110.054 142.043 111.721 140.913 111.67C139.783 111.619 138.224 110.958 137.823 104.382C137.388 97.2801 143.478 92.5625 143.478 92.5625L143.473 92.5512Z" fill="#FFBCAB"/>
<path d="M170.643 59.6591C170.643 59.6591 170.693 58.2919 170.829 57.8568C171.168 56.7551 172.253 54.8455 174.637 54.354C176.897 53.885 179.112 53.8229 181.129 52.8116C181.281 52.7551 181.428 52.6929 181.581 52.6308C182.62 52.1731 183.592 51.5008 184.654 50.6759C184.829 50.5742 185.01 50.4669 185.191 50.3652C185.908 49.9528 186.648 49.5403 187.406 49.1279C187.615 49.0319 187.818 48.9415 188.021 48.8624C189.033 48.4669 190.315 48.2635 190.609 49.8172C190.643 49.981 190.609 50.2918 190.519 50.4161C189.654 52.3652 187.067 53.0489 185.23 54.0093C184.389 54.5178 184.518 55.1506 184.507 55.2466C184.626 55.2918 184.744 55.7664 186.507 55.7664C189.456 55.467 190.541 58.2241 192.739 59.2467C192.982 59.3597 193.242 59.4501 193.519 59.5179C193.648 59.58 193.784 59.6365 193.92 59.6874C195.027 60.3597 196.293 60.4614 197.428 60.8286C197.62 60.8908 197.807 60.9586 197.988 61.0377C198.524 61.032 198.858 61.2693 199.106 61.6309C199.168 61.7213 199.683 62.6478 199.784 62.7665C200.722 63.8625 202.411 63.936 204.01 64.2411C204.14 64.2919 204.264 64.3484 204.377 64.4219C205.067 64.8513 207.095 65.9078 204.926 66.8569C204.428 67.0773 202.146 66.8682 201.903 66.8569C200.586 66.6818 197.383 66.6083 197.18 66.6027C195.134 66.5857 192.824 66.7496 190.824 65.9191C190.519 65.8739 185.756 65.6027 183.812 65.5914C183.264 65.6366 180.66 66.0716 180.473 66.1112C170.225 68.3033 170.648 59.6648 170.648 59.6648L170.643 59.6591Z" fill="#FFBCAB"/>
<path d="M79.7778 193.661H116.123C116.468 186.232 114.942 178.864 113.145 171.045C105.275 172.395 85.179 181.96 79.7778 193.661Z" fill="#FFBCAB"/>
<path d="M43.8449 171.249C42.4833 179.458 42.4664 187.227 43.9692 193.662H75.7549C70.5741 182.436 52.2744 173.181 43.8449 171.249Z" fill="#FFBCAB"/>
<path d="M103.636 143.423C98.0601 133.683 97.9641 140.288 104.862 111.915C106.716 104.276 116.207 84.2927 101.879 81.7503C101.597 81.6995 98.094 81.0046 96.4838 80.4283C92.043 78.835 89.2069 77.2701 88.5572 76.6203C86.6927 74.7559 87.2747 57.0495 87.2747 57.0495C87.2747 57.0495 83.1616 56.0043 78.2971 56.1568C73.4327 56.0099 69.3196 57.0495 69.3196 57.0495C69.3196 57.0495 69.9015 74.7559 68.0371 76.6203C67.3874 77.2701 64.5455 78.835 60.1104 80.4283C58.5059 81.0046 55.0031 81.6995 54.7149 81.7503C40.3871 84.2927 49.794 104.299 51.7318 111.915C59.2969 141.689 58.0879 135.361 52.8336 143.864C60.8901 147.593 71.749 151.446 77.7717 151.446C84.0316 151.446 95.512 147.282 103.642 143.423H103.636Z" fill="#FFBCAB"/>
<path d="M103.637 143.423C95.5066 147.282 84.0262 151.446 77.7663 151.446C71.7436 151.446 60.8847 147.592 52.8281 143.864C46.9072 153.513 45.3083 162.4 43.8394 171.254C52.2688 173.186 70.5741 182.44 75.7493 193.666H79.772C85.1732 181.96 105.269 172.401 113.14 171.05C111.038 162.107 108.919 153.547 103.637 143.429V143.423Z" fill="#7EBCB1"/>
<path opacity="0.27" d="M102.094 153.005C103.655 153.005 104.919 151.741 104.919 150.18C104.919 148.62 103.655 147.355 102.094 147.355C100.534 147.355 99.2695 148.62 99.2695 150.18C99.2695 151.741 100.534 153.005 102.094 153.005Z" fill="#0C888E"/>
<path opacity="0.27" d="M107.179 165.508C108.74 165.508 110.004 164.243 110.004 162.683C110.004 161.123 108.74 159.858 107.179 159.858C105.619 159.858 104.354 161.123 104.354 162.683C104.354 164.243 105.619 165.508 107.179 165.508Z" fill="#0C888E"/>
<path opacity="0.27" d="M94.3488 160.605C95.909 160.605 97.1737 159.34 97.1737 157.78C97.1737 156.22 95.909 154.955 94.3488 154.955C92.7887 154.955 91.5239 156.22 91.5239 157.78C91.5239 159.34 92.7887 160.605 94.3488 160.605Z" fill="#0C888E"/>
<path opacity="0.27" d="M99.2697 173.045C100.83 173.045 102.095 171.781 102.095 170.22C102.095 168.66 100.83 167.396 99.2697 167.396C97.7096 167.396 96.4448 168.66 96.4448 170.22C96.4448 171.781 97.7096 173.045 99.2697 173.045Z" fill="#0C888E"/>
<path opacity="0.27" d="M75.4274 176.899C76.9876 176.899 78.2523 175.634 78.2523 174.074C78.2523 172.514 76.9876 171.249 75.4274 171.249C73.8673 171.249 72.6025 172.514 72.6025 174.074C72.6025 175.634 73.8673 176.899 75.4274 176.899Z" fill="#0C888E"/>
<path opacity="0.27" d="M73.2072 166.819C74.7674 166.819 76.0321 165.554 76.0321 163.994C76.0321 162.434 74.7674 161.169 73.2072 161.169C71.6471 161.169 70.3823 162.434 70.3823 163.994C70.3823 165.554 71.6471 166.819 73.2072 166.819Z" fill="#0C888E"/>
<path opacity="0.27" d="M80.0827 158.344C81.6428 158.344 82.9076 157.079 82.9076 155.519C82.9076 153.959 81.6428 152.694 80.0827 152.694C78.5226 152.694 77.2578 153.959 77.2578 155.519C77.2578 157.079 78.5226 158.344 80.0827 158.344Z" fill="#0C888E"/>
<path opacity="0.27" d="M86.9699 170.22C88.5301 170.22 89.7948 168.955 89.7948 167.395C89.7948 165.835 88.5301 164.57 86.9699 164.57C85.4098 164.57 84.145 165.835 84.145 167.395C84.145 168.955 85.4098 170.22 86.9699 170.22Z" fill="#0C888E"/>
<path opacity="0.27" d="M86.9699 181.92C88.5301 181.92 89.7948 180.656 89.7948 179.095C89.7948 177.535 88.5301 176.271 86.9699 176.271C85.4098 176.271 84.145 177.535 84.145 179.095C84.145 180.656 85.4098 181.92 86.9699 181.92Z" fill="#0C888E"/>
<path opacity="0.27" d="M49.5515 170.775C51.1116 170.775 52.3763 169.51 52.3763 167.95C52.3763 166.39 51.1116 165.125 49.5515 165.125C47.9913 165.125 46.7266 166.39 46.7266 167.95C46.7266 169.51 47.9913 170.775 49.5515 170.775Z" fill="#0C888E"/>
<path opacity="0.27" d="M64.32 179.096C65.8802 179.096 67.1449 177.831 67.1449 176.271C67.1449 174.711 65.8802 173.446 64.32 173.446C62.7599 173.446 61.4951 174.711 61.4951 176.271C61.4951 177.831 62.7599 179.096 64.32 179.096Z" fill="#0C888E"/>
<path opacity="0.27" d="M76.8962 190.537C78.4563 190.537 79.7211 189.273 79.7211 187.713C79.7211 186.152 78.4563 184.888 76.8962 184.888C75.336 184.888 74.0713 186.152 74.0713 187.713C74.0713 189.273 75.336 190.537 76.8962 190.537Z" fill="#0C888E"/>
<path opacity="0.27" d="M60.0207 166.819C61.5809 166.819 62.8456 165.554 62.8456 163.994C62.8456 162.434 61.5809 161.169 60.0207 161.169C58.4606 161.169 57.1958 162.434 57.1958 163.994C57.1958 165.554 58.4606 166.819 60.0207 166.819Z" fill="#0C888E"/>
<path opacity="0.27" d="M51.2463 158.344C52.8064 158.344 54.0712 157.079 54.0712 155.519C54.0712 153.959 52.8064 152.694 51.2463 152.694C49.6861 152.694 48.4214 153.959 48.4214 155.519C48.4214 157.079 49.6861 158.344 51.2463 158.344Z" fill="#0C888E"/>
<path opacity="0.27" d="M64.8737 155.83C66.4339 155.83 67.6986 154.566 67.6986 153.006C67.6986 151.445 66.4339 150.181 64.8737 150.181C63.3136 150.181 62.0488 151.445 62.0488 153.006C62.0488 154.566 63.3136 155.83 64.8737 155.83Z" fill="#0C888E"/>
<path d="M77.7658 113.049C77.7658 113.049 61.212 110.044 60.0821 97.6143C59.421 90.3317 62.438 81.8005 66.5623 77.6084C64.9352 78.3203 64.4832 78.648 63.1555 79.1395C56.1667 84.2977 54.8504 93.3882 54.1498 94.7894C53.0198 97.0493 48.7825 106.654 49.9124 111.739C51.0424 116.824 54.9972 120.778 61.777 121.343C68.5567 121.908 77.8619 115.767 77.8619 115.767L77.7715 113.055L77.7658 113.049Z" fill="#FCF5EC"/>
<path d="M77.7656 113.05C77.7656 113.05 94.3082 110.044 95.4382 97.6143C96.0992 90.3318 94.489 82.6989 91.8732 78.5576C93.5003 79.2695 95.1557 79.9362 96.4834 80.4277C98.2348 85.9136 100.67 93.3883 101.37 94.7894C102.5 97.0494 106.738 106.654 105.608 111.739C104.478 116.824 100.523 120.778 93.7432 121.343C86.9635 121.908 77.856 115.767 77.856 115.767L77.7656 113.055V113.05Z" fill="#FCF5EC"/>
<path d="M77.461 147.902C77.3141 147.902 77.1728 147.846 77.0598 147.739C76.8394 147.518 76.8394 147.162 77.0598 146.942C77.5909 146.411 77.9412 146.061 77.4892 144.693C77.3931 144.399 77.5513 144.077 77.8451 143.981C78.1446 143.88 78.4609 144.044 78.557 144.337C79.235 146.366 78.4666 147.128 77.8564 147.739C77.7434 147.852 77.6022 147.902 77.4553 147.902H77.461Z" fill="#F2A891"/>
<path d="M76.3311 87.1785C76.2125 87.1785 76.0938 87.1389 75.9922 87.0655C73.8226 85.4383 71.7039 84.3536 68.4214 84.3536C68.1107 84.3536 67.8564 84.0993 67.8564 83.7886C67.8564 83.4779 68.1107 83.2236 68.4214 83.2236C72.2294 83.2236 74.6362 84.6361 76.6701 86.1615C76.9187 86.348 76.9695 86.7039 76.7831 86.9525C76.6701 87.0994 76.5006 87.1785 76.3311 87.1785Z" fill="#F2A891"/>
<path d="M81.3198 87.1785C81.4384 87.1785 81.557 87.1389 81.6587 87.0655C83.8282 85.4383 85.9469 84.3536 89.2295 84.3536C89.5402 84.3536 89.7944 84.0993 89.7944 83.7886C89.7944 83.4779 89.5402 83.2236 89.2295 83.2236C85.4215 83.2236 83.0147 84.6361 80.9808 86.1615C80.7322 86.348 80.6813 86.7039 80.8677 86.9525C80.9807 87.0994 81.1503 87.1785 81.3198 87.1785Z" fill="#F2A891"/>
<path d="M88.506 51.946C89.636 40.6465 70.4267 33.3018 70.4267 33.3018C70.4267 33.3018 67.1272 35.2905 63.647 37.8216C60.5396 40.0815 60.2571 45.7313 58.8447 48.5562C57.8334 50.5788 60.8221 54.7709 60.8221 56.4659C60.8221 58.1608 60.8221 62.6806 63.647 65.5055C66.4718 68.3304 70.7883 71.3305 71.5566 71.7203C77.3138 74.6638 79.8167 71.5904 83.2969 67.0649C87.2744 61.9066 88.1557 55.4207 88.506 51.946Z" fill="#F2A891"/>
<path d="M87.7321 51.3816C88.862 40.082 69.6528 32.7373 69.6528 32.7373C69.6528 32.7373 66.3533 34.726 62.873 37.2571C59.7656 39.517 59.4832 45.1668 58.0707 47.9917C57.0594 50.0143 60.0481 54.2065 60.0481 55.9014C60.0481 57.5964 60.0481 62.1162 62.873 64.9411C65.6979 67.766 70.0144 70.766 70.7827 71.1558C76.5399 74.0994 79.0427 71.0259 82.523 66.5004C86.5004 61.3422 87.3818 54.8562 87.7321 51.3816Z" fill="#FFBCAB"/>
<path d="M79.7669 51.0546C80.5936 50.8769 81.0777 49.8673 80.8483 48.7996C80.6188 47.7319 79.7626 47.0104 78.9359 47.188C78.1091 47.3657 77.625 48.3753 77.8545 49.443C78.084 50.5108 78.9402 51.2323 79.7669 51.0546Z" fill="#4C271A"/>
<path d="M65.9551 54.4363C66.7667 54.2105 67.1874 53.1744 66.8946 52.1223C66.6019 51.0702 65.7065 50.4004 64.8949 50.6262C64.0832 50.8521 63.6626 51.8881 63.9554 52.9402C64.2482 53.9923 65.1434 54.6622 65.9551 54.4363Z" fill="#4C271A"/>
<path d="M66.0763 52.7166C66.4203 52.6769 66.6576 52.283 66.6062 51.8366C66.5548 51.3902 66.2342 51.0605 65.8901 51.1001C65.546 51.1398 65.3088 51.5337 65.3602 51.9801C65.4116 52.4265 65.7322 52.7562 66.0763 52.7166Z" fill="#FCF5EC"/>
<path d="M80.2008 49.326C80.5449 49.2863 80.7821 48.8923 80.7307 48.446C80.6793 47.9996 80.3587 47.6699 80.0146 47.7095C79.6705 47.7491 79.4333 48.1431 79.4847 48.5895C79.5361 49.0358 79.8567 49.3656 80.2008 49.326Z" fill="#FCF5EC"/>
<path d="M71.8166 61.0032C69.7318 61.0032 68.9917 59.5455 68.9917 58.1783C68.9917 57.8675 69.2459 57.6133 69.5567 57.6133C69.8674 57.6133 70.1217 57.8675 70.1217 58.1783C70.1217 58.9523 70.4154 59.8732 71.8166 59.8732C72.1273 59.8732 72.3816 60.1274 72.3816 60.4382C72.3816 60.7489 72.1273 61.0032 71.8166 61.0032Z" fill="#F2A891"/>
<path d="M72.4663 44.6476C73.5907 43.7719 76.15 42.5629 77.5681 42.4668C79.4438 42.3425 83.6981 43.3369 83.6981 43.3369C83.6981 43.3369 83.28 43.512 82.7207 43.642C82.1614 43.7719 79.3365 43.738 77.6924 44.2182C75.9523 44.7267 73.9805 46.0488 73.9805 46.0488C73.9805 46.0488 71.9466 45.7437 72.4663 44.6533V44.6476Z" fill="#C6522A"/>
<path d="M66.4043 47.0877C65.3703 46.4154 63.6019 45.7883 62.5059 45.9239C61.0595 46.1103 59.0991 47.3815 59.0991 47.3815C59.0991 47.3815 59.8674 47.7996 60.3194 47.8335C60.7714 47.8674 62.2347 47.2516 62.8675 47.438C63.4438 47.6019 65.5511 48.6979 65.5511 48.6979C65.5511 48.6979 67.0257 48.0708 66.4043 47.0877Z" fill="#C6522A"/>
<path d="M76.6529 48.0882L76.314 47.6362C78.201 46.2237 81.0203 46.4497 82.8338 47.2576L82.6022 47.7718C80.879 47.009 78.2801 46.8734 76.6473 48.0882H76.6529Z" fill="#4C271A"/>
<path d="M70.3137 64.8561C69.3872 64.8561 68.6131 64.6697 68.0877 64.2798C67.8391 64.0934 67.7883 63.7375 67.9747 63.4889C68.1611 63.2403 68.5171 63.1894 68.7657 63.3759C70.1838 64.4324 76.1386 63.0764 79.9805 58.9239C80.1952 58.6922 80.5511 58.6809 80.7771 58.89C81.0031 59.099 81.02 59.4606 80.811 59.6866C77.794 62.9522 73.2686 64.8561 70.3137 64.8561Z" fill="#EA8686"/>
<path d="M62.3591 51.6015L62.02 51.1495C63.7602 49.85 65.1444 49.6862 67.1161 50.5619L66.8845 51.076C65.0935 50.2794 63.9467 50.415 62.3591 51.6015Z" fill="#4C271A"/>
<path d="M50.7489 90.4342C50.9749 90.3268 51.1105 90.0726 51.0596 89.8127C50.1896 85.5641 46.376 81.694 43.8562 79.1346C43.5567 78.8352 43.2799 78.547 43.02 78.2815C42.8053 78.0555 42.4494 78.0498 42.2234 78.2702C41.9974 78.4849 41.9917 78.8465 42.2121 79.0668C42.472 79.338 42.7601 79.6261 43.0596 79.9312C45.489 82.3945 49.1613 86.1177 49.9636 90.0387C50.0257 90.3438 50.3252 90.5415 50.6302 90.4794C50.6754 90.4681 50.7207 90.4568 50.7602 90.4342H50.7489Z" fill="#F2A891"/>
</svg>
