{
  "asset": {
    "generator": "Khronos glTF Blender I/O v3.4.50",
    "version": "2.0"
  },
  "extensionsUsed": ["KHR_materials_clearcoat"],
  "scene": 0,
  "scenes": [
    {
      "name": "Scene",
      "nodes": [0]
    }
  ],
  "nodes": [
    {
      "mesh": 0,
      "name": "Scalp Protection Box",
      "rotation": [0.7071068286895752, 0, 0, 0.7071068286895752],
      "scale": [0.07500001788139343, 0.07500001788139343, 0.07500001788139343],
      "translation": [0, 0, 0]
    }
  ],
  "materials": [
    {
      "doubleSided": true,
      "extensions": {
        "KHR_materials_clearcoat": {
          "clearcoatFactor": 0.26363635063171387,
          "clearcoatRoughnessFactor": 0.26181817054748535
        }
      },
      "name": "Scalp material",
      "pbrMetallicRoughness": {
        "baseColorTexture": {
          "index": 0
        },
        "metallicFactor": 0.10000000149011612,
        "roughnessFactor": 0.05000000074505806
      }
    }
  ],
  "meshes": [
    {
      "name": "All Small Boxes Box",
      "primitives": [
        {
          "attributes": {
            "POSITION": 0,
            "TEXCOORD_0": 1,
            "NORMAL": 2
          },
          "indices": 3,
          "material": 0
        }
      ]
    }
  ],
  "textures": [
    {
      "sampler": 0,
      "source": 0
    }
  ],
  "images": [
    {
      "bufferView": 4,
      "mimeType": "image/jpeg",
      "name": "Scalp Protection Box-SPF50"
    }
  ],
  "accessors": [
    {
      "bufferView": 0,
      "componentType": 5126,
      "count": 5040,
      "max": [19.897722244262695, 20.52101707458496, -0.10028839111328125],
      "min": [-20.102277755737305, -19.47898292541504, -110.10028839111328],
      "type": "VEC3"
    },
    {
      "bufferView": 1,
      "componentType": 5126,
      "count": 5040,
      "type": "VEC2"
    },
    {
      "bufferView": 2,
      "componentType": 5126,
      "count": 5040,
      "type": "VEC3"
    },
    {
      "bufferView": 3,
      "componentType": 5123,
      "count": 5076,
      "type": "SCALAR"
    }
  ],
  "bufferViews": [
    {
      "buffer": 0,
      "byteLength": 60480,
      "byteOffset": 0,
      "target": 34962
    },
    {
      "buffer": 0,
      "byteLength": 40320,
      "byteOffset": 60480,
      "target": 34962
    },
    {
      "buffer": 0,
      "byteLength": 60480,
      "byteOffset": 100800,
      "target": 34962
    },
    {
      "buffer": 0,
      "byteLength": 10152,
      "byteOffset": 161280,
      "target": 34963
    },
    {
      "buffer": 0,
      "byteLength": 879977,
      "byteOffset": 171432
    }
  ],
  "samplers": [
    {
      "magFilter": 9729,
      "minFilter": 9987
    }
  ],
  "buffers": [
    {
      "byteLength": 1051412,
      "uri": "data:application/octet-stream;base64,"
    }
  ]
}
