<svg version="1.0" id="Layer_1" xmlns="http://www.w3.org/2000/svg" xmlns:xlink="http://www.w3.org/1999/xlink" x="0px" y="0px"
	 width="146.7px" height="146.7px" viewBox="0 0 146.7 146.7" style="enable-background:new 0 0 146.7 146.7;" xml:space="preserve"
	>
<path class="st1" d="M77.7,78.9l26.7,0.3c2.7,0,5-2.1,5-4.9c0-2.7-2.1-5-4.9-5L77.9,69l0.3-26.7c0-2.7-2.1-4.9-4.8-5
	c-2.7,0-4.9,2.1-5,4.8L68,68.9l-26.7-0.3c-2.7,0-5,2.1-5,4.9c0,2.7,2.1,5,4.9,5l26.7,0.3l-0.3,26.7c0,2.7,2.1,4.9,4.8,5
	c2.7,0,4.9-2.1,5-4.8L77.7,78.9z"/>
</svg>