<svg version="1.0" id="Layer_1" xmlns="http://www.w3.org/2000/svg" xmlns:xlink="http://www.w3.org/1999/xlink" x="0px" y="0px"
	 width="146.7px" height="146.7px" viewBox="0 0 146.7 146.7" style="enable-background:new 0 0 146.7 146.7;fill:#FF6B00" xml:space="preserve"
	>

<g class=".st1">
	<g>
		<path d="M137.1,31.3H9.6c-5.3,0-9.6-4.3-9.6-9.6s4.3-9.6,9.6-9.6h127.5c5.3,0,9.6,4.3,9.6,9.6S142.4,31.3,137.1,31.3z"/>
	</g>
	<g>
		<path d="M137.1,82.9H9.6c-5.3,0-9.6-4.3-9.6-9.6s4.3-9.6,9.6-9.6h127.5c5.3,0,9.6,4.3,9.6,9.6S142.4,82.9,137.1,82.9z"/>
	</g>
	<g>
		<path d="M137.1,134.4H9.6c-5.3,0-9.6-4.3-9.6-9.6s4.3-9.6,9.6-9.6h127.5c5.3,0,9.6,4.3,9.6,9.6S142.4,134.4,137.1,134.4z"/>
	</g>
</g>
</svg>