<svg version="1.1" id="Layer_1" xmlns="http://www.w3.org/2000/svg" xmlns:xlink="http://www.w3.org/1999/xlink" x="0px" y="0px"
	 width="25.4px" height="23.1px" viewBox="0 0 25.4 23.1" style="enable-background:new 0 0 25.4 23.1;;fill:#FF6B00" xml:space="preserve">

<g>
	<g>
		<path d="M20.7,23.1h-0.5c-0.1,0-0.1,0-0.2,0c-1-0.2-1.7-1-1.8-1.9c-0.1-0.7,0.1-1.2,0.6-1.7c0,0,0,0,0.1-0.1c-2.8,0-5.5,0-8.2,0
			c0,0-0.1,0-0.1,0c0,0,0,0,0,0c0,0,0,0,0,0c0,0,0,0.1,0.1,0.1c0.5,0.5,0.6,1.1,0.6,1.8c-0.1,0.9-0.8,1.6-1.7,1.8
			c-0.1,0-0.2,0-0.3,0.1H8.7c-0.1,0-0.2,0-0.3-0.1c-1.1-0.3-1.8-1.3-1.7-2.4c0.1-0.7,0.4-1.2,1-1.6c0,0,0,0,0.1,0
			C6.9,14.5,5.9,10.1,5,5.6c0,0-0.1,0-0.1,0c-0.9,0-1.8,0-2.6,0C2,5.6,1.8,5.5,1.6,5.4C1.3,5.2,1.2,4.9,1.2,4.6c0-0.2,0-0.4,0-0.6
			c0-0.1,0-0.2,0-0.3c0.1-0.4,0.5-0.7,1-0.7c1.3,0,2.7,0,4,0c0.4,0,0.9,0.3,1,0.8c0.1,0.5,0.2,1,0.3,1.5c0,0.1,0,0.2,0.1,0.2h0.1
			c5.1,0,10.3,0,15.4,0c0.1,0,0.1,0,0.2,0c0.4,0,0.7,0.3,0.9,0.6c0,0,0,0.1,0,0.1v0.4c0,0,0,0.1,0,0.1c-0.1,0.4-0.2,0.7-0.3,1.1
			c-0.3,1.5-0.7,3-1,4.5c-0.2,0.8-0.4,1.6-0.6,2.4c-0.1,0.2-0.2,0.4-0.4,0.5c-0.2,0.1-0.4,0.2-0.6,0.2c-1.9,0-3.8,0-5.7,0
			c-1.9,0-3.9,0-5.8,0c0,0-0.1,0-0.1,0c0.1,0.4,0.2,0.8,0.3,1.2c0.1,0,0.1,0,0.1,0c2.2,0,4.4,0,6.6,0c1.3,0,2.7,0,4,0
			c0.7,0,1.1,0.6,0.9,1.2c-0.1,0.3-0.1,0.6-0.2,0.8c0,0,0,0.1,0,0.1c0,0,0.1,0,0.1,0c0.8,0.4,1.3,1.3,1.2,2.2
			c-0.1,0.9-0.9,1.7-1.8,1.9C20.8,23.1,20.7,23.1,20.7,23.1L20.7,23.1z"/>
	</g>
</g>
</svg>