<svg id="Layer_1" data-name="Layer 1" xmlns="http://www.w3.org/2000/svg" width="146.65" height="146.65" viewBox="0 0 146.65 146.65">
  <path d="M40.44,15.66c9.91,0,19.09,4.23,25.18,11.6l7.71,9.33,7.71-9.33c6.06-7.34,15.26-11.54,25.24-11.54,14.62,0,30.36,9.2,30.36,29.39s-22.26,42.24-50.44,69.41l-3.08,2.97-.02.02-.02.02c-2.13,2.08-4.29,4.18-6.49,6.3-1.09,1.05-2.18,2.11-3.27,3.18-3.43-3.35-6.78-6.58-9.83-9.51l-.11-.11C33.56,88.56,10.02,65.79,10.02,45.1c0-11.01,5.07-17.83,9.32-21.6,5.62-4.99,13.31-7.85,21.1-7.85M40.44,5.66C20.37,5.66.02,20.15.02,45.1s24.95,49.05,56.52,79.58c4.48,4.32,9.08,8.75,13.74,13.36l3.05,2.96v-.06l3.05-2.96c4.66-4.55,9.26-8.98,13.68-13.3,31.62-30.52,56.58-53.71,56.58-79.58S126.34,5.71,106.27,5.71c-13.11,0-25.01,5.57-32.95,15.18-7.93-9.61-19.84-15.23-32.89-15.23h0Z" style="stroke-width: 0px;"/>
</svg>