<svg version="1.0" id="Layer_1" xmlns="http://www.w3.org/2000/svg" xmlns:xlink="http://www.w3.org/1999/xlink" x="0px" y="0px"
	 width="146.7px" height="146.7px" viewBox="0 0 146.7 146.7" style="enable-background:new 0 0 146.7 146.7;" xml:space="preserve"
	>
<path d="M60.2,124.3c-0.2-0.5-0.2-0.9-0.2-1.2c0.1-0.3-0.1-0.6-0.6-0.8c-0.5-0.2-0.7-0.4-0.7-0.5c0-0.1-0.3-0.2-1-0.3
	c-0.7-0.1-1-0.1-1-0.1h-1.2h-1H28.3c-4,0-7.4-1.4-10.2-4.3c-2.8-2.8-4.3-6.3-4.3-10.2V43.1c0-4,1.4-7.4,4.3-10.2
	c2.8-2.8,6.3-4.3,10.2-4.3h29c0.8,0,1.4-0.2,1.9-0.6c0.5-0.4,0.8-1,0.9-1.8c0.2-0.8,0.2-1.5,0.3-2.1c0-0.6,0-1.4,0-2.4
	c-0.1-1-0.1-1.6-0.1-1.8c0-0.8-0.3-1.5-0.9-2c-0.6-0.6-1.3-0.9-2-0.9h-29c-7.2,0-13.3,2.6-18.4,7.7C4.7,29.8,2.2,36,2.2,43.2v63.8
	c0,7.2,2.6,13.3,7.7,18.4c5.1,5.1,11.3,7.7,18.4,7.7h29c0.8,0,1.4-0.2,1.9-0.6c0.5-0.4,0.8-1,0.9-1.8c0.2-0.8,0.2-1.5,0.3-2.1
	c0-0.6,0-1.4,0-2.4C60.2,125.2,60.2,124.6,60.2,124.3z"/>
<path d="M142.5,71L93.2,21.7c-1.1-1.1-2.5-1.7-4.1-1.7c-1.6,0-2.9,0.6-4.1,1.7c-1.1,1.1-1.7,2.5-1.7,4.1v26.1H42.8
	c-1.6,0-2.9,0.6-4.1,1.7c-1.1,1.1-1.7,2.5-1.7,4.1v34.8c0,1.6,0.6,2.9,1.7,4.1c1.1,1.1,2.5,1.7,4.1,1.7h40.6v26.1
	c0,1.6,0.6,2.9,1.7,4.1c1.1,1.1,2.5,1.7,4.1,1.7c1.6,0,2.9-0.6,4.1-1.7l49.3-49.3c1.1-1.1,1.7-2.5,1.7-4.1
	C144.2,73.5,143.7,72.1,142.5,71z"/>
</svg>