<svg version="1.0" id="Layer_1" xmlns="http://www.w3.org/2000/svg" xmlns:xlink="http://www.w3.org/1999/xlink" x="0px" y="0px"
	 width="146.7px" height="146.7px" viewBox="0 0 146.7 146.7" style="enable-background:new 0 0 146.7 146.7;fill:#FF6B00" xml:space="preserve"
	>
<path class="st1" d="M79.8,74L99,55.3c2-1.9,2-5,0.1-7c-1.9-2-5-2-7-0.1L73,66.9L54.3,47.7c-1.9-1.9-5-2-6.9-0.1s-2,5-0.1,6.9
	l18.7,19.2L46.8,92.4c-2,1.9-2,5-0.1,7s5,2,7,0.1l19.1-18.6L91.5,100c1.9,1.9,5,2,6.9,0.1c1.9-1.9,2-5,0.1-6.9L79.8,74z"/>
</svg>