<svg version="1.0" id="Layer_1" xmlns="http://www.w3.org/2000/svg" xmlns:xlink="http://www.w3.org/1999/xlink" x="0px" y="0px"
	 width="146.7px" height="146.7px" viewBox="0 0 146.7 146.7" style="enable-background:new 0 0 146.7 146.7;fill:#FF6B00" xml:space="preserve"
	>
<path d="M60.7,0.4c-33.3,0-60.4,27-60.4,60.4c0,33.3,27,60.4,60.4,60.4c11.7,0,22.6-3.3,31.9-9.1l31.6,31.6c3.5,3.5,9.3,3.5,12.9,0
	l6.5-6.5c3.5-3.5,3.5-9.3,0-12.9L112,92.6c5.8-9.3,9.1-20.2,9.1-31.9C121.1,27.4,94.1,0.4,60.7,0.4z M101.1,60.7
	c0,22.3-18.1,40.4-40.4,40.4S20.4,83,20.4,60.7s18.1-40.4,40.4-40.4C83,20.4,101.1,38.5,101.1,60.7z"/>
</svg>