<svg version="1.1" id="Layer_1" xmlns="http://www.w3.org/2000/svg" xmlns:xlink="http://www.w3.org/1999/xlink" x="0px" y="0px"
	 width="25.4px" height="23.1px" viewBox="0 0 25.4 23.1" style="enable-background:new 0 0 25.4 23.1;fill:#FF6B00" xml:space="preserve">
<g>
	<path d="M12.7,23.1c-2.2,0-4.5,0-6.7,0c-1.1,0-1.8-0.6-1.8-1.8c0-3.4,2.7-6.6,6.1-7c1.9-0.2,3.8-0.3,5.7,0.2c3,0.8,5.2,3.7,5.2,6.9
		c0,1-0.7,1.7-1.6,1.7C17.3,23.1,15,23.1,12.7,23.1z"/>
	<path d="M12.7,13.7c-3,0-5.3-2.4-5.3-5.3c0-3,2.4-5.3,5.3-5.3c2.9,0,5.3,2.4,5.3,5.3C18,11.4,15.7,13.7,12.7,13.7z"/>
</g>
</svg>