<svg version="1.1" id="Layer_1" xmlns="http://www.w3.org/2000/svg" xmlns:xlink="http://www.w3.org/1999/xlink" x="0px" y="0px"
	 width="25.4px" height="23.1px" viewBox="0 0 25.4 23.1" style="enable-background:new 0 0 25.4 23.1;fill:#FF6B00" xml:space="preserve">

<g>
	<path d="M22.3,12.7c0-5.3-4.3-9.5-9.5-9.5c-5.3,0-9.5,4.3-9.5,9.5c0,2.3,0.8,4.4,2.1,6c0.3,0.4,0.6,0.7,1,1c1-1.5,2.6-2.6,4.4-2.8
		c1.6-0.2,3.3-0.3,4.9,0.2c1.5,0.4,2.8,1.4,3.6,2.6c0.4-0.3,0.7-0.7,1-1C21.5,17.1,22.3,15,22.3,12.7z M12.7,16.5
		c-2.6,0-4.6-2-4.6-4.5c0-2.5,2.1-4.5,4.6-4.5c2.6,0,4.6,2,4.6,4.5C17.3,14.5,15.3,16.5,12.7,16.5z"/>
	<path d="M12.7,0C5.7,0,0,5.7,0,12.7c0,4.2,2.1,8,5.3,10.3c0,0,0,0,0,0c0-0.1,0-0.1,0-0.2c0-0.6,0.1-1.1,0.3-1.6
		c-0.1-0.1-0.2-0.2-0.3-0.2c-2.3-2-3.7-5-3.7-8.3c0-6.1,5-11.1,11.1-11.1s11.1,5,11.1,11.1c0,3.3-1.4,6.2-3.7,8.3
		c-0.1,0.1-0.2,0.2-0.3,0.3c0.2,0.5,0.3,1.1,0.3,1.7c0,0,0,0.1,0,0.1c0,0,0,0,0,0c3.2-2.3,5.3-6.1,5.3-10.3C25.4,5.7,19.7,0,12.7,0z
		"/>
</g>
</svg>