
<svg width="424px" height="77px" viewBox="0 0 424 77" version="1.1" xmlns="http://www.w3.org/2000/svg" xmlns:xlink="http://www.w3.org/1999/xlink">
    <!-- Generator: Sketch 51.2 (57519) - http://www.bohemiancoding.com/sketch -->
    <desc>Created with Sketch.</desc>
    <defs>
        <polygon id="path-1" points="0 0 424 0 424 77 0 77"></polygon>
    </defs>
    <g id="Page-1" stroke="none" stroke-width="1" fill="none" fill-rule="evenodd">
        <g id="homepage-web-copy-3" transform="translate(-618.000000, -1442.000000)">
            <g id="Group-3" transform="translate(618.000000, 1442.000000)">
                <mask id="mask-2" fill="white">
                    <use xlink:href="#path-1"></use>
                </mask>
                <g id="Clip-2"></g>
                <path d="M0,0 C0.586533333,0.0761538462 1.17024,0.187564103 1.75818667,0.221410256 C5.64202667,0.445641026 9.52728,0.626153846 13.4097067,0.875769231 C15.9197867,1.03512821 18.4284533,1.25794872 20.9314667,1.50474359 C24.1920267,1.82487179 27.44552,2.21269231 30.70608,2.54128205 C33.10168,2.78384615 35.5071733,2.94602564 37.9027733,3.20128205 C40.0468,3.42833333 42.1823467,3.74705128 44.3263733,3.99525641 C46.4393067,4.24064103 48.5593067,4.43666667 50.6750667,4.675 C52.5434933,4.88512821 54.4090933,5.11217949 56.27328,5.34910256 C58.31272,5.60717949 60.3507467,5.87653846 62.38736,6.15435897 C65.31296,6.55346154 68.2371467,6.96807692 71.1627467,7.37282051 C73.3732,7.67602564 75.5850667,7.96512821 77.7941067,8.27820513 C80.4101867,8.65051282 83.02344,9.03833333 85.6366933,9.42333333 C88.32344,9.81820513 91.0116,10.2088462 93.69552,10.620641 C96.10384,10.9901282 98.50792,11.3864103 100.913413,11.7742308 C103.800853,12.2382051 106.689707,12.7007692 109.575733,13.1746154 C112.846187,13.7119231 116.11664,14.2534615 119.38568,14.8048718 C122.8964,15.3957692 126.40712,15.9852564 129.9136,16.6001282 C133.25048,17.1825641 136.58312,17.7917949 139.917173,18.3967949 C145.251093,19.365641 150.58784,20.3274359 155.920347,21.3160256 C159.00424,21.8885897 162.081067,22.5091026 165.159307,23.1112821 C168.644587,23.7938462 172.128453,24.4778205 175.610907,25.1646154 C180.116613,26.0516667 184.625147,26.9330769 189.128027,27.8314103 C194.173627,28.8397436 199.219227,29.8523077 204.259173,30.8874359 C208.106267,31.6771795 211.973147,32.389359 215.78208,33.335641 C224.24512,35.4341026 232.655867,37.7455128 241.127387,39.8030769 C246.418907,41.0878205 251.7712,42.1257692 257.11784,43.1665385 C261.513307,44.0225641 265.931387,44.7728205 270.35512,45.4652564 C273.275067,45.9235897 276.22328,46.2155128 279.1616,46.5525641 C282.970533,46.9897436 286.779467,47.4255128 290.594053,47.8076923 C292.647627,48.0135897 294.712507,48.1433333 296.77456,48.240641 C300.42096,48.4112821 304.070187,48.5565385 307.719413,48.6665385 C311.16936,48.7694872 314.619307,48.8442308 318.070667,48.8752564 C322.06192,48.9105128 326.054587,48.9091026 330.04584,48.8752564 C332.753787,48.8512821 335.463147,48.7708974 338.16968,48.6623077 C340.691067,48.5621795 343.209627,48.4183333 345.726773,48.240641 C349.351973,47.9853846 352.978587,47.7160256 356.598133,47.3902564 C360.004267,47.0814103 363.40616,46.7344872 366.800987,46.3255128 C371.121547,45.8037179 375.44352,45.2748718 379.744293,44.6219231 C384.27968,43.9337179 388.802347,43.1608974 393.309467,42.3105128 C399.279387,41.1851282 405.235173,39.9835897 411.18248,38.7467949 C415.436613,37.8625641 419.668133,36.8683333 424,35.9037179 L424,77 L0,77 L0,0 Z" id="Fill-1" fill="#FFFFFF" mask="url(#mask-2)"></path>
            </g>
        </g>
    </g>
</svg>