<?xml version="1.0" encoding="utf-8"?>
<!-- Generator: Adobe Illustrator 28.1.0, SVG Export Plug-In . SVG Version: 6.00 Build 0)  -->
<svg version="1.1" id="Artwork" xmlns="http://www.w3.org/2000/svg" xmlns:xlink="http://www.w3.org/1999/xlink" x="0px" y="0px"
	 width="62.8px" height="92.2px" viewBox="0 0 62.8 92.2" style="enable-background:new 0 0 62.8 92.2;" xml:space="preserve">
<style type="text/css">
	.st0{fill:#FF6B00;}
</style>
<polygon class="st0" points="0,92.2 0,92.2 62.8,79.7 62.8,61.9 0,74.5 "/>
<path class="st0" d="M31.4,0C14.1,0,0,14.1,0,31.4s14.1,31.4,31.4,31.4s31.4-14.1,31.4-31.4c0,0,0,0,0,0C62.8,14.1,48.7,0,31.4,0z
	 M31.4,45.7c-7.9,0-14.3-6.4-14.3-14.3s6.4-14.3,14.3-14.3s14.3,6.4,14.3,14.3C45.7,39.3,39.3,45.7,31.4,45.7z"/>
</svg>
