<?xml version="1.0" encoding="utf-8"?>
<!-- Generator: Adobe Illustrator 23.0.1, SVG Export Plug-In . SVG Version: 6.00 Build 0)  -->
<svg version="1.1" id="Layer_1" xmlns="http://www.w3.org/2000/svg" xmlns:xlink="http://www.w3.org/1999/xlink" x="0px" y="0px"
	 viewBox="0 0 310 168" style="enable-background:new 0 0 310 168;" xml:space="preserve">
<style type="text/css">
	.st0{fill:#FF6B00;}
</style>
<path class="st0" d="M20.23,116.89c0.1-0.65,0.22-1.31,0.29-1.96c0.64-5.76,2.4-11.2,4.85-16.42c3.33-7.08,7.77-13.37,13.16-19.05
	c5.02-5.3,10.35-10.22,16.26-14.51c5.33-3.87,10.97-7.16,17.23-9.31c4.3-1.47,8.7-2.22,13.25-1.9c1.67,0.12,3.32,0.42,4.83,1.21
	c2,1.04,3.03,2.69,3.1,4.96c0.07,2.18-0.51,4.22-1.35,6.18c-1.24,2.91-2.62,5.76-4.7,8.17c-0.57,0.66-1.27,1.23-2,1.72
	c-0.84,0.56-1.84,0.86-2.76,0.22c-0.97-0.67-1.22-1.75-0.96-2.82c0.41-1.64,0.96-3.24,1.53-4.84c0.69-1.94,1.44-3.84,1.42-5.96
	c-0.03-2.44-1.58-3.37-3.61-3.29c-2.03,0.08-3.95,0.69-5.74,1.66c-7.65,4.16-14.63,9.26-21.01,15.18
	C48.69,81.1,43.98,86.59,40.28,92.9c-3.14,5.35-5.33,11.05-6.25,17.21c-1.09,7.33,0.03,14.26,3.98,20.59
	c2.3,3.69,5.64,5.95,10.02,6.44c2.87,0.32,5.67-0.15,8.41-1.03c4.71-1.52,9.01-3.88,12.99-6.76c3.64-2.64,7.1-5.52,10.62-8.31
	c0.2-0.15,0.38-0.47,0.38-0.71c-0.08-4.75,1.38-9.15,3.19-13.43c3.23-7.63,7.4-14.69,13-20.85c3.26-3.58,6.91-6.71,11.3-8.83
	c1.23-0.6,2.56-1.14,3.9-1.35c1.97-0.31,2.81,0.39,3.07,2.38c0.14,1.05,0.09,2.15-0.08,3.2c-0.16,0.99-0.92,1.2-1.69,0.54
	c-0.37-0.32-0.67-0.74-0.91-1.17c-0.38-0.68-0.62-0.86-1.29-0.45c-0.89,0.54-1.77,1.15-2.53,1.86c-3.37,3.15-5.98,6.89-8.33,10.83
	c-3.52,5.89-6.4,12.07-8.7,18.53c-0.2,0.58-0.31,1.2-0.35,1.81c-0.04,0.57,0.36,0.81,0.85,0.59c0.56-0.25,1.11-0.57,1.59-0.95
	c3.6-2.83,6.72-6.15,9.51-9.74c3.63-4.69,7.04-9.55,10.62-14.28c1.09-1.44,2.36-2.76,3.66-4.02c0.51-0.5,1.31-0.82,2.03-0.96
	c1.44-0.27,2.56,0.6,2.6,2.06c0.03,1.37,0.01,2.8-0.37,4.1c-1.24,4.19-2.65,8.32-3.99,12.48c-1.6,4.98-3.31,9.93-4.28,15.08
	c-0.25,1.31-0.42,2.64-0.52,3.97c-0.08,0.94,0.31,1.29,1.21,1.03c0.81-0.23,1.58-0.65,2.31-1.08c0.67-0.4,0.84-0.43,1.24,0.24
	c0.53,0.87,0.53,1.78,0.02,2.65c-0.18,0.31-0.39,0.63-0.67,0.83c-2.34,1.7-4.9,2.7-7.85,2.18c-2.52-0.44-4.32-2.68-4.35-5.23
	c-0.05-3.65,0.78-7.16,1.64-10.67c0.08-0.31,0.15-0.62,0.07-0.99c-0.15,0.2-0.31,0.4-0.45,0.61c-3.32,4.63-7.16,8.74-12.02,11.78
	c-2.28,1.43-4.71,2.58-7.4,2.97c-0.85,0.12-1.77,0.05-2.62-0.12c-0.52-0.1-0.83-0.04-1.2,0.3c-5.39,4.95-11.17,9.39-17.57,12.98
	c-4.63,2.6-9.47,4.69-14.71,5.68c-6.36,1.2-12.55,0.76-18.12-2.82c-5.7-3.66-9.45-8.86-11.06-15.5c-0.36-1.5-0.5-3.06-0.75-4.59
	c-0.04-0.23-0.11-0.45-0.17-0.68C20.23,119.85,20.23,118.37,20.23,116.89z"/>
<path class="st0" d="M162.6,22.93c0.61,0.89,0.7,1.83,0.15,2.76c-1.23,2.08-2.52,4.12-3.73,6.21
	c-9.81,16.91-17.14,34.82-21.96,53.77c-1.29,5.1-2.3,10.26-2.75,15.5c-0.35,4.1-0.59,8.24,0.55,12.26
	c1.25,4.45,3.61,8.21,7.45,10.92c1.13,0.8,1.33,1.91,0.43,2.62c-0.3,0.23-0.73,0.34-1.12,0.4c-3.01,0.45-5.97,0.29-8.82-0.85
	c-4.12-1.66-6.41-4.91-7.65-9.02c-0.99-3.29-1.14-6.68-1.03-10.09c0.24-7.07,1.82-13.91,3.77-20.67
	c3.35-11.59,7.6-22.84,13.05-33.62c4.52-8.95,9.71-17.48,16.24-25.13c1.27-1.49,2.64-2.91,3.97-4.34c0.26-0.27,0.58-0.49,0.87-0.73
	C162.22,22.93,162.41,22.93,162.6,22.93z"/>
<path class="st0" d="M150,103.27c0.76-0.91,1.56-1.8,2.28-2.74c4.18-5.4,7.86-11.14,11.48-16.92c2.48-3.95,4.89-7.94,7.29-11.94
	c1.64-2.74,4.17-4.12,7.14-4.87c0.76-0.19,1.53-0.36,2.3-0.52c1.03-0.21,1.77,0.12,2.12,1.11c0.25,0.71,0.42,1.48,0.45,2.23
	c0.18,3.3-0.39,6.54-1.18,9.72c-4.49,18.03-10.97,35.25-20.83,51.09c-4.08,6.56-8.68,12.74-13.99,18.35
	c-2.57,2.72-5.56,4.91-9.33,5.59c-5.02,0.91-9.27-0.55-12.51-4.58c-2.77-3.43-4.15-7.44-4.69-11.76c-0.04-0.36-0.12-0.71-0.13-1.07
	c-0.02-0.61,0.3-0.88,0.9-0.77c0.73,0.13,1.27,0.53,1.54,1.24c0.44,1.16,0.84,2.34,1.35,3.47c1.63,3.69,4.47,5.99,8.35,6.91
	c2.58,0.61,4.86-0.25,6.87-1.88c1.97-1.6,3.46-3.64,4.98-5.64c7.42-9.77,13.17-20.5,18.05-31.72c3.01-6.93,5.66-13.99,7.83-21.23
	c0.07-0.22,0.12-0.45,0.06-0.74c-0.2,0.38-0.4,0.76-0.59,1.14c-2.87,5.8-6.03,11.42-9.94,16.59c-2.26,2.99-4.74,5.77-7.78,8
	c-1.71,1.26-3.54,2.26-5.65,2.68c-3.33,0.66-6.18-1.54-6.45-4.93c-0.27-3.41,0.65-6.6,1.81-9.71c2.38-6.35,4.91-12.65,7.3-18.99
	c1.05-2.79,1.92-5.65,2.86-8.48c0.05-0.16,0.1-0.33,0.08-0.49c-0.03-0.2-0.08-0.44-0.22-0.55c-0.09-0.07-0.38,0-0.52,0.1
	c-0.6,0.44-1.14,0.95-1.76,1.36c-0.71,0.47-1.44,0.94-2.21,1.28c-0.63,0.28-1.06,0.01-1.29-0.63c-0.36-1.03-0.17-2.02,0.47-2.85
	c1.6-2.04,3.36-3.93,5.53-5.39c1.1-0.74,2.3-1.14,3.65-1.01c0.99,0.1,1.71,0.58,2.15,1.46c0.69,1.39,0.77,2.89,0.66,4.41
	c-0.33,4.71-1.75,9.19-3.03,13.68c-1.73,6.06-3.61,12.08-5.42,18.12c-0.07,0.25-0.14,0.49-0.21,0.74
	C149.87,103.2,149.94,103.24,150,103.27z"/>
<path class="st0" d="M179.35,106.35c-0.82,0-1.56,0.03-2.3-0.01c-1.03-0.05-1.4-0.52-1.23-1.56c0.32-1.99,1.24-3.77,2.25-5.47
	c0.36-0.61,1.2-1.03,1.91-1.31c1.24-0.47,2.55-0.8,3.84-1.11c0.49-0.12,0.78-0.34,1.02-0.76c4.54-7.79,9.58-15.23,15.39-22.13
	c3.91-4.64,8.1-9.01,13.2-12.39c2.89-1.91,5.97-3.46,9.45-3.94c2.79-0.39,5.47-0.07,7.67,1.93c2,1.83,2.54,4.18,2.32,6.79
	c-0.53,6.47-3.58,11.77-7.76,16.51c-4.94,5.6-10.99,9.77-17.47,13.37c-4.94,2.75-10.08,5.06-15.35,7.08
	c-0.55,0.21-0.9,0.51-1.14,1.07c-3.49,8.41-7,16.8-10.5,25.2c-1.16,2.77-2.45,5.45-4.6,7.63c-1.48,1.5-3.27,2.1-5.34,1.97
	c-1.54-0.1-2.6-1.2-2.78-2.87c-0.23-2.17,0.25-4.24,0.95-6.25c2.1-5.98,4.65-11.77,7.38-17.49c0.93-1.94,1.91-3.86,2.86-5.79
	C179.23,106.68,179.29,106.5,179.35,106.35z M196.1,93.26c0.25-0.07,0.41-0.09,0.55-0.15c5.1-2.08,10.03-4.49,14.65-7.5
	c4.42-2.88,8.47-6.17,11.6-10.47c1.56-2.14,2.84-4.43,3.33-7.07c0.4-2.14-0.82-3.59-2.99-3.52c-0.52,0.02-1.08,0.07-1.53,0.28
	c-1.16,0.54-2.34,1.09-3.41,1.79c-2.47,1.63-4.57,3.71-6.57,5.87c-5.81,6.26-10.77,13.18-15.43,20.32
	C196.23,92.91,196.2,93.04,196.1,93.26z"/>
<path class="st0" d="M273.49,68.85c1.55-1.47,3.01-2.99,4.6-4.36c1.94-1.66,4.17-2.85,6.79-2.93c3.22-0.1,4.42,0.44,5.72,3.16
	c1,2.11,1.31,4.39,1.38,6.69c0.12,4.23-0.67,8.32-1.87,12.35c-0.15,0.51-0.15,0.92,0.23,1.31c0.13,0.14,0.22,0.31,0.33,0.47
	c1.13,1.72,1.12,2.08-0.38,3.47c-0.69,0.64-1.53,1.13-2.28,1.73c-0.26,0.21-0.49,0.51-0.62,0.82c-2.16,5.19-4.82,10.1-8.34,14.5
	c-3.06,3.83-6.59,7.13-10.96,9.45c-1.57,0.83-3.21,1.48-4.98,1.76c-2.59,0.4-6.08-1.67-7.23-4.34c-0.73-1.7-1.08-3.47-1.14-5.29
	c-0.22-6.63,1.27-12.95,3.49-19.13c1.83-5.1,4.07-10.01,6.84-14.66c1.06-1.77,2.25-3.46,3.92-4.72c0.94-0.7,1.96-1.24,3.19-0.89
	C272.66,68.36,273.08,68.65,273.49,68.85z M271.29,79.49c-0.06,0.01-0.12,0.01-0.18,0.02c-0.11,0.2-0.24,0.41-0.34,0.62
	c-3,6.16-5.37,12.56-6.93,19.23c-0.54,2.3-1,4.63-1.27,6.97c-0.23,1.95,0.38,2.25,2.11,1.32c1.88-1.01,3.45-2.41,4.89-3.95
	c4.15-4.44,7.12-9.64,9.62-15.12c0.04-0.1,0.05-0.22,0.07-0.36c-1.95-0.79-3.7-1.85-5.16-3.35
	C272.64,83.36,271.71,81.57,271.29,79.49z M281.72,81.14c1.37-2.97,1.69-5.99,1.11-9.21C280.12,73.98,278.49,78.11,281.72,81.14z"/>
<path class="st0" d="M238.22,114.72c-7.63-0.09-14.21-1.63-20.38-4.77c-2.59-1.31-4.8-3.11-6.71-5.32c-1.44-1.66-1.82-3.5-1.08-5.53
	c1.29-3.52,3.75-5.76,7.47-6.5c0.39-0.08,0.86,0.01,1.25,0.16c0.85,0.32,1.1,1.09,0.65,1.86c-0.31,0.54-0.7,1.03-1.03,1.55
	c-0.42,0.66-0.89,1.31-1.22,2.02c-0.81,1.69-0.45,3.01,1.15,3.99c1.1,0.67,2.24,1.3,3.42,1.81c4.2,1.78,8.56,2.99,13.12,3.39
	c2.05,0.18,4.06-0.1,6.01-0.73c2.36-0.76,3.58-2.73,3-5.38c-0.72-3.28-1.67-6.52-2.55-9.76c-1.18-4.31-2.49-8.58-3.57-12.91
	c-0.8-3.22-1.18-6.55-0.36-9.81c1.25-5,4.05-8.83,9.1-10.53c4.67-1.57,9.45,0.47,12.29,4.18c1.54,2.02,1.45,4.26-0.06,6.3
	c-1.48,2-3.56,2.99-5.9,3.52c-0.83,0.19-1.7,0.22-2.55,0.29c-0.28,0.02-0.57-0.04-0.85-0.11c-0.97-0.27-1.21-1.08-0.49-1.78
	c0.82-0.8,1.71-1.54,2.53-2.34c0.65-0.63,1.33-1.28,1.18-2.33c-0.23-1.58-1.82-2.52-3.62-2.14c-1.44,0.3-2.5,1.1-3.21,2.41
	c-1.73,3.2-1.85,6.56-0.84,9.95c1.01,3.39,2.25,6.7,3.28,10.08c1.41,4.64,2.87,9.27,3.99,13.97c1.02,4.27,0.09,8.18-3.37,11.2
	c-1.96,1.71-4.32,2.53-6.84,2.89C240.53,114.59,239.02,114.65,238.22,114.72z"/>
<path class="st0" d="M233.55,122.34c5.29,0.3,10.84,0.47,16.36,0.95c10.62,0.93,21.13,2.65,31.48,5.27
	c0.46,0.12,0.93,0.25,1.36,0.45c0.2,0.09,0.32,0.35,0.48,0.53c-0.23,0.13-0.47,0.38-0.69,0.36c-0.88-0.06-1.75-0.21-2.63-0.31
	c-3.49-0.38-6.98-0.84-10.48-1.1c-4.65-0.34-9.31-0.59-13.96-0.73c-4.42-0.13-8.85-0.15-13.28-0.08c-4.06,0.07-8.13,0.27-12.18,0.54
	c-4.08,0.28-8.15,0.64-12.21,1.11c-4.2,0.49-8.38,1.12-12.56,1.74c-1.58,0.23-3.13,0.65-4.71,0.91c-0.65,0.1-1.34,0.08-1.99-0.05
	c-0.93-0.17-1.27-0.83-1.08-1.77c0.24-1.15,0.85-2.06,1.8-2.75c1.47-1.08,3.19-1.47,4.92-1.87c5.22-1.21,10.5-2.07,15.84-2.45
	C224.44,122.78,228.86,122.6,233.55,122.34z"/>
<path class="st0" d="M199.17,47.53c0,1.35-0.06,2.54,0.02,3.72c0.05,0.83-0.36,0.85-0.99,0.86c-0.64,0.01-0.93-0.1-0.93-0.85
	c0.04-3.66,0.02-7.32,0.02-10.98c0-1.25,0-1.25,1.27-1.19c0.14,0.01,0.28,0.04,0.44,0.07c0.04,0.25,0.07,0.48,0.12,0.76
	c0.13-0.06,0.24-0.09,0.33-0.15c2.12-1.67,4.87-0.72,5.27,1.95c0.2,1.37,0.18,2.83-0.06,4.19c-0.42,2.43-3,3.36-5.03,1.94
	C199.52,47.79,199.43,47.72,199.17,47.53z M199.1,43.74c0.08,0.61,0.1,1.24,0.25,1.83c0.22,0.87,0.85,1.27,1.76,1.27
	c0.92,0,1.5-0.39,1.74-1.28c0.33-1.19,0.33-2.41,0.01-3.61c-0.24-0.92-0.89-1.39-1.77-1.38c-0.89,0.01-1.55,0.48-1.77,1.38
	C199.2,42.53,199.18,43.13,199.1,43.74z"/>
<path class="st0" d="M232.38,44.31c-0.01,0.96,0.24,1.75,1.02,2.23c0.9,0.56,1.87,0.52,2.8,0.05c1.08-0.54,1.07-0.56,1.9,0.49
	c-1.15,1.28-2.63,1.54-4.23,1.32c-1.54-0.21-2.58-1.07-3.01-2.59c-0.39-1.39-0.41-2.78,0.02-4.16c0.57-1.79,1.86-2.67,3.8-2.62
	c1.77,0.04,3.06,1.05,3.51,2.81c0.14,0.55,0.15,1.13,0.23,1.7c0.08,0.56-0.13,0.76-0.71,0.74c-1.58-0.04-3.15-0.01-4.73-0.01
	C232.8,44.27,232.64,44.29,232.38,44.31z M236.61,42.92c-0.08-1.01-0.35-1.81-1.23-2.22c-0.77-0.36-1.55-0.29-2.22,0.25
	c-0.61,0.5-0.86,1.16-0.74,1.97C233.83,42.92,235.18,42.92,236.61,42.92z"/>
<path class="st0" d="M222.26,43.77c-0.07,0.61-0.09,1.24-0.22,1.84c-0.37,1.73-1.7,2.81-3.46,2.84c-2.02,0.04-3.48-0.9-3.81-2.74
	c-0.22-1.26-0.24-2.63-0.03-3.89c0.33-2,1.94-2.95,4.18-2.77c1.77,0.14,3.1,1.54,3.23,3.43c0.03,0.43,0,0.86,0,1.29
	C222.2,43.77,222.23,43.77,222.26,43.77z M220.48,43.75c-0.09-0.62-0.11-1.25-0.27-1.84c-0.22-0.82-1-1.33-1.84-1.33
	c-0.81,0-1.55,0.5-1.79,1.29c-0.37,1.21-0.38,2.45-0.01,3.67c0.26,0.88,0.93,1.32,1.83,1.31c0.89,0,1.59-0.47,1.82-1.33
	C220.37,44.95,220.4,44.34,220.48,43.75z"/>
<path class="st0" d="M260.53,43.69c0.09-0.68,0.11-1.39,0.27-2.05c0.42-1.7,1.86-2.65,3.79-2.61c1.81,0.04,3.23,1.07,3.48,2.8
	c0.18,1.25,0.2,2.58-0.01,3.83c-0.31,1.92-2.01,2.97-4.13,2.8c-1.83-0.15-3.18-1.59-3.31-3.54c-0.03-0.4,0-0.81,0-1.22
	C260.59,43.69,260.56,43.69,260.53,43.69z M262.34,43.68c0.07,0.56,0.08,1.11,0.2,1.64c0.22,0.98,0.88,1.5,1.81,1.52
	c0.99,0.02,1.79-0.46,1.92-1.46c0.15-1.09,0.13-2.23,0.01-3.33c-0.1-0.9-0.97-1.48-1.86-1.48c-0.9,0-1.65,0.56-1.87,1.48
	C262.43,42.58,262.41,43.14,262.34,43.68z"/>
<path class="st0" d="M177.77,48.32c-0.06-0.29-0.11-0.49-0.12-0.54c-0.93,0.23-1.82,0.6-2.73,0.64c-1.65,0.07-2.89-1.15-2.94-2.78
	c-0.06-1.98-0.02-3.97-0.05-5.96c-0.01-0.5,0.22-0.59,0.66-0.6c1.15-0.01,1.15-0.03,1.15,1.11c0,1.6-0.02,3.21,0.02,4.81
	c0.04,1.38,1.17,2.16,2.49,1.78c0.82-0.24,1.33-0.93,1.33-1.91c0.01-1.7,0.04-3.4-0.01-5.1c-0.02-0.72,0.35-0.71,0.84-0.69
	c0.47,0.03,1.02-0.17,1,0.68c-0.04,2.56-0.04,5.12,0,7.68c0.01,0.68-0.17,0.98-0.88,0.88C178.31,48.29,178.07,48.32,177.77,48.32z"
	/>
<path class="st0" d="M184.26,48.29c-0.64,0-1.15,0-1.74,0c-0.01-0.26-0.04-0.49-0.04-0.72c0-2.56-0.01-5.12,0-7.67
	c0-0.34-0.17-0.78,0.48-0.82c1.1-0.07,1.22-0.03,1.34,0.67c0.67-0.23,1.33-0.6,2.03-0.68c2.22-0.25,3.58,0.96,3.64,3.19
	c0.05,1.82,0,3.63,0.02,5.45c0,0.46-0.14,0.62-0.62,0.63c-1.18,0.01-1.18,0.03-1.19-1.13c0-1.43,0.02-2.87-0.01-4.3
	c-0.01-0.92-0.19-1.79-1.18-2.17c-1.4-0.55-2.7,0.39-2.72,1.97c-0.02,1.58-0.01,3.16-0.01,4.73
	C184.26,47.69,184.26,47.95,184.26,48.29z"/>
<path class="st0" d="M278.33,48.29c-0.61,0-1.13,0-1.76,0c0-0.41,0-0.81,0-1.2c0-1.51,0.03-3.01-0.01-4.52
	c-0.04-1.5-1.24-2.33-2.61-1.85c-0.78,0.27-1.22,0.9-1.23,1.83c-0.01,1.67-0.05,3.35,0.01,5.02c0.03,0.78-0.37,0.77-0.92,0.77
	c-0.56,0-0.93-0.01-0.91-0.77c0.05-2.49,0.01-4.97,0.03-7.46c0-0.36-0.3-0.97,0.43-0.99c0.55-0.02,1.32-0.34,1.34,0.52
	c0.93-0.2,1.83-0.54,2.74-0.56c1.58-0.04,2.79,1.05,2.86,2.62C278.4,43.85,278.33,46.03,278.33,48.29z"/>
<path class="st0" d="M169.22,40.06c-0.16,0.18-0.29,0.31-0.4,0.46c-0.36,0.46-0.68,0.56-1.31,0.32c-0.7-0.27-1.53-0.28-2.3-0.24
	c-0.61,0.03-1.05,0.46-1.06,1.15c-0.01,0.57,0.43,0.97,1.14,1.06c0.83,0.11,1.68,0.12,2.48,0.31c1.9,0.44,2.54,2.81,1.23,4.27
	c-1.45,1.61-5.89,1.36-6.97-0.26c0.35-0.36,0.71-0.72,1.09-1.11c1.09,0.81,2.25,1.14,3.54,0.83c0.86-0.21,1.3-0.68,1.25-1.33
	c-0.05-0.62-0.51-0.97-1.4-1.06c-0.59-0.06-1.19-0.1-1.78-0.16c-1.14-0.12-1.97-0.76-2.2-1.65c-0.32-1.25,0.07-2.35,1.07-3.02
	C165.03,38.64,167.98,38.85,169.22,40.06z"/>
<path class="st0" d="M247.54,40.3c-0.37,0.36-0.74,0.72-1.1,1.07c-0.44-0.24-0.82-0.54-1.26-0.68c-1.18-0.38-2.46,0.3-2.71,1.54
	c-0.17,0.87-0.22,1.82-0.06,2.69c0.34,1.9,2.15,2.51,3.7,1.34c0.07-0.06,0.15-0.11,0.29-0.21c0.38,0.35,0.75,0.7,1.17,1.08
	c-0.58,0.82-1.39,1.17-2.3,1.3c-2.55,0.37-4.57-1.22-4.73-3.8c-0.06-1.01,0.03-2.07,0.29-3.04c0.37-1.41,1.43-2.24,2.86-2.5
	C245.38,38.78,246.73,39.22,247.54,40.3z"/>
<path class="st0" d="M224.05,39.33c1.04-0.21,1.04-0.21,1.04-1.26c0-0.24,0.03-0.48-0.01-0.72c-0.12-0.75,0.22-0.91,0.92-0.91
	c0.67,0.01,0.96,0.16,0.89,0.87c-0.05,0.52-0.01,1.05,0,1.58c0,0.07,0.03,0.14,0.06,0.33c0.37,0,0.77,0.02,1.16,0
	c0.49-0.03,0.55,0.25,0.52,0.64c-0.02,0.35,0.09,0.71-0.49,0.74c-1.27,0.07-1.27,0.1-1.27,1.4c0,1.15,0,2.29,0,3.44
	c0,1.11,0.21,1.32,1.33,1.38c0.11,0.01,0.23,0.03,0.38,0.05c0.01,0.26,0.03,0.5,0.03,0.73c0,0.21-0.03,0.42-0.05,0.81
	c-0.79-0.12-1.57-0.11-2.25-0.37c-0.88-0.34-1.23-1.15-1.24-2.08c-0.01-1.41,0-2.82-0.01-4.23c0-1.05,0-1.05-1.04-1.21
	C224.05,40.15,224.05,39.75,224.05,39.33z"/>
<path class="st0" d="M250.11,39.16c0-0.89,0-1.72,0-2.62c0.61,0,1.16,0,1.79,0c0,0.88,0,1.73,0,2.69c0.46,0,0.86,0.02,1.25,0
	c0.49-0.02,0.54,0.27,0.53,0.65c-0.01,0.36,0.04,0.75-0.52,0.72c-0.38-0.02-0.75,0-1.25,0c0,0.61,0,1.12,0,1.64
	c0,1.05,0,2.11,0,3.16c0,1.13,0.24,1.39,1.36,1.44c0.09,0,0.19,0.02,0.26,0.03c0.04,0.06,0.09,0.09,0.09,0.13
	c0.18,1.31,0.15,1.34-1.14,1.32c-1.4-0.02-2.34-0.93-2.36-2.33c-0.02-1.58-0.01-3.16,0-4.74c0-0.38-0.06-0.69-0.53-0.65
	c-0.64,0.05-0.58-0.36-0.6-0.79c-0.02-0.51,0.24-0.61,0.67-0.59C249.78,39.23,249.9,39.2,250.11,39.16z"/>
<path class="st0" d="M213.97,39.79c-0.51,0.49-0.93,0.9-1.25,1.21c-0.64-0.15-1.21-0.41-1.76-0.37c-1.04,0.08-1.65,0.94-1.66,2.16
	c-0.02,1.6-0.05,3.21,0.01,4.81c0.03,0.84-0.47,0.69-0.96,0.72c-0.55,0.03-0.88-0.03-0.87-0.75c0.04-2.54,0.01-5.08,0.02-7.61
	c0-0.36-0.19-0.85,0.5-0.89c1.07-0.07,1.18-0.03,1.35,0.81C210.83,38.86,212.34,38.6,213.97,39.79z"/>
<path class="st0" d="M257.91,48.29c-0.58,0-1.1,0-1.69,0c-0.02-0.21-0.06-0.41-0.06-0.62c0-2.63,0.02-5.25-0.02-7.88
	c-0.01-0.76,0.4-0.72,0.9-0.7c0.46,0.02,0.94-0.14,0.93,0.67c-0.05,2.65-0.02,5.3-0.02,7.95C257.95,47.88,257.93,48.04,257.91,48.29
	z"/>
<path class="st0" d="M257.98,36.27c0,0.96,0,0.96-0.92,0.96c-0.94,0-0.94,0-0.94-0.94c0-1,0-1,0.96-1
	C257.98,35.29,257.98,35.29,257.98,36.27z"/>
</svg>
