<svg id="Artwork" xmlns="http://www.w3.org/2000/svg" viewBox="0 0 74.88 92.23"><defs><style>.cls-1{fill:#fff;}</style></defs><path class="cls-1" d="M74.12,4.43A5.29,5.29,0,0,0,72,2.3a6.77,6.77,0,0,0-6.27,0,5.29,5.29,0,0,0-2.14,2.13,6.37,6.37,0,0,0-.76,3.14,6.33,6.33,0,0,0,.76,3.13,5.37,5.37,0,0,0,2.14,2.14,6.85,6.85,0,0,0,6.27,0,5.37,5.37,0,0,0,2.14-2.14,6.44,6.44,0,0,0,.76-3.13A6.48,6.48,0,0,0,74.12,4.43Zm-1.2,5.66a4.38,4.38,0,0,1-1.65,1.71,4.77,4.77,0,0,1-2.43.62,4.71,4.71,0,0,1-2.42-.62,4.24,4.24,0,0,1-1.65-1.71,5.18,5.18,0,0,1-.59-2.52,5.16,5.16,0,0,1,.59-2.52,4.33,4.33,0,0,1,1.65-1.72,4.7,4.7,0,0,1,2.42-.61,4.77,4.77,0,0,1,2.43.61,4.47,4.47,0,0,1,1.65,1.72,5.27,5.27,0,0,1,.59,2.52A5.3,5.3,0,0,1,72.92,10.09Z"/><path class="cls-1" d="M70.58,9.44C70.3,9,70.1,8.65,70,8.49a1.64,1.64,0,0,0-.42-.41,1.59,1.59,0,0,0,1-.66,2,2,0,0,0,.34-1.18,1.74,1.74,0,0,0-.54-1.35,2.56,2.56,0,0,0-1.63-.53H66.59v6.43h1.34V8.29a1,1,0,0,1,.44.07,1,1,0,0,1,.3.4l1.08,2h1.61l-.17-.31Zm-2-2.24h-.61V5.5h.67c.66,0,1,.26,1,.79A.83.83,0,0,1,69.3,7,1.12,1.12,0,0,1,68.54,7.2Z"/><polygon class="cls-1" points="0 92.23 0 92.23 62.81 79.66 62.81 61.89 0 74.46 0 92.23"/><path class="cls-1" d="M31.4,0A31.41,31.41,0,1,0,62.81,31.4,31.44,31.44,0,0,0,31.4,0Zm0,45.68A14.28,14.28,0,1,1,45.68,31.4,14.29,14.29,0,0,1,31.4,45.68Z"/></svg>