<svg id="Artwork" xmlns="http://www.w3.org/2000/svg" viewBox="0 0 486.45 92.23"><defs><style>.cls-1{fill:#ff6b00;}</style></defs><path class="cls-1" d="M45.71,71.38q-12.65,0-19.79-7.15T18.77,44.18q0-12.64,6.77-20.24t18.38-7.6a40.67,40.67,0,0,1,16.86,4L64.23,3.83A55.91,55.91,0,0,0,43.8,0a45.65,45.65,0,0,0-23,5.68A38.58,38.58,0,0,0,5.43,21.84,51.66,51.66,0,0,0,0,46Q0,66,11.49,77T43.41,88c7.92,0,14.6-1,20.82-3.41l-2.81-15.7A47,47,0,0,1,45.71,71.38Z"/><polygon class="cls-1" points="179.78 1.53 161.26 1.53 161.26 86.57 210.42 86.57 210.42 70.48 179.78 70.48 179.78 1.53"/><path class="cls-1" d="M392.2,41.19A96,96,0,0,0,380,35.73l-5.21-2a30.66,30.66,0,0,1-7.38-4.07,6.58,6.58,0,0,1-2.29-5.34A7.37,7.37,0,0,1,368.42,18c2.2-1.57,5.3-2.35,9.28-2.35a38.05,38.05,0,0,1,10.24,1.52,45.37,45.37,0,0,1,10.1,4.2l2.8-16.78A62.4,62.4,0,0,0,378,0q-14.76,0-23,7t-8.26,19.2q0,7.5,3.12,12.21a23.5,23.5,0,0,0,7.43,7.31,86.76,86.76,0,0,0,11.45,5.53c.67.25,6.22,2.54,6.22,2.54a38.55,38.55,0,0,1,8,4,6.12,6.12,0,0,1,2.55,5.28,7.76,7.76,0,0,1-3.82,6.74,17.6,17.6,0,0,1-9.91,2.54,39,39,0,0,1-11.64-2,50.6,50.6,0,0,1-11.88-5.46l-1.53,17a43.15,43.15,0,0,0,11.38,4.38A58.34,58.34,0,0,0,372.11,88q15,0,23.39-6.87t8.39-19.19q0-8-3.43-13A24.23,24.23,0,0,0,392.2,41.19Z"/><path class="cls-1" d="M485.69,4.43a5.26,5.26,0,0,0-2.13-2.13,6.38,6.38,0,0,0-3.14-.77,6.31,6.31,0,0,0-3.13.77,5.23,5.23,0,0,0-2.14,2.13,6.37,6.37,0,0,0-.76,3.14,6.33,6.33,0,0,0,.76,3.13,5.31,5.31,0,0,0,2.14,2.14,6.31,6.31,0,0,0,3.13.76,6.37,6.37,0,0,0,3.14-.76,5.35,5.35,0,0,0,2.13-2.14,6.33,6.33,0,0,0,.76-3.13A6.37,6.37,0,0,0,485.69,4.43Zm-1.2,5.66a4.29,4.29,0,0,1-1.64,1.71,4.77,4.77,0,0,1-2.43.62A4.71,4.71,0,0,1,478,11.8a4.24,4.24,0,0,1-1.65-1.71,5.18,5.18,0,0,1-.59-2.52,5.16,5.16,0,0,1,.59-2.52A4.33,4.33,0,0,1,478,3.33a4.7,4.7,0,0,1,2.42-.61,4.77,4.77,0,0,1,2.43.61,4.38,4.38,0,0,1,1.64,1.72,5.16,5.16,0,0,1,.59,2.52A5.18,5.18,0,0,1,484.49,10.09Z"/><path class="cls-1" d="M482.16,9.44c-.28-.48-.48-.79-.59-.95a1.45,1.45,0,0,0-.41-.41,1.59,1.59,0,0,0,1-.66,2,2,0,0,0,.34-1.18A1.71,1.71,0,0,0,482,4.89a2.52,2.52,0,0,0-1.63-.53h-2.16v6.43h1.33V8.29a1,1,0,0,1,.44.07,1,1,0,0,1,.31.4l1.08,2h1.61l-.17-.31ZM480.11,7.2h-.61V5.5h.68c.65,0,1,.26,1,.79a.83.83,0,0,1-.28.67A1.13,1.13,0,0,1,480.11,7.2Z"/><polygon class="cls-1" points="411.58 92.23 411.58 92.23 474.39 79.66 474.39 61.89 411.58 74.46 411.58 92.23"/><path class="cls-1" d="M443,0a31.41,31.41,0,1,0,31.41,31.4A31.44,31.44,0,0,0,443,0Zm0,45.68A14.28,14.28,0,1,1,457.26,31.4,14.29,14.29,0,0,1,443,45.68Z"/><path class="cls-1" d="M331.46,8.56q-7.53-6.76-20.68-7h-29v85h18.52V56.18h8.3a34.09,34.09,0,0,0,15.77-3.57,26,26,0,0,0,10.79-10.15A29.54,29.54,0,0,0,339,27.33Q339,15.33,331.46,8.56Zm-13.85,29q-3.51,3.59-9.77,3.58h-7.53V16.6h8.42q12.39,0,12.39,11.24Q321.12,34,317.61,37.54Z"/><polygon class="cls-1" points="253.25 1.53 236.33 35.12 219.41 1.53 198.6 1.53 227.07 51.2 227.07 86.57 236.33 86.57 245.59 86.57 245.59 51.2 274.06 1.53 253.25 1.53"/><path class="cls-1" d="M123.85,1.53H101.63l-31.15,85h18.9l6.51-19.41H129.6l6.51,19.41H155Zm-22.6,49.8,11.49-32.56,11.5,32.56Z"/></svg>