<?xml version="1.0" standalone="no"?>
<!DOCTYPE svg PUBLIC "-//W3C//DTD SVG 20010904//EN"
 "http://www.w3.org/TR/2001/REC-SVG-20010904/DTD/svg10.dtd">
<svg version="1.0" xmlns="http://www.w3.org/2000/svg"
 width="400.000000pt" height="400.000000pt" viewBox="0 0 400.000000 400.000000"
 preserveAspectRatio="xMidYMid meet">
<metadata>
Created by potrace 1.11, written by Peter Selinger 2001-2013
</metadata>
<g transform="translate(0.000000,400.000000) scale(0.100000,-0.100000)"
fill="#000000" stroke="none">
<path d="M2024 2811 c-154 -172 -313 -489 -400 -796 -33 -117 -37 -143 -38
-260 -1 -125 0 -132 26 -177 34 -56 92 -88 161 -88 64 0 71 20 24 68 -20 20
-46 60 -58 87 -78 173 64 683 307 1106 67 115 55 147 -22 60z"/>
<path d="M3310 2685 c0 -8 5 -15 10 -15 6 0 10 7 10 15 0 8 -4 15 -10 15 -5 0
-10 -7 -10 -15z"/>
<path d="M2898 2668 c-2 -13 -2 -48 1 -78 5 -47 9 -55 29 -58 12 -2 22 1 22 7
0 6 -4 11 -10 11 -15 0 -12 77 3 83 8 4 9 8 1 14 -6 4 -13 16 -17 26 -9 24
-24 21 -29 -5z"/>
<path d="M3230 2671 c0 -11 -6 -21 -12 -24 -10 -3 -10 -7 -1 -18 6 -8 13 -32
15 -54 2 -33 7 -41 26 -43 12 -2 22 1 22 7 0 6 -4 11 -10 11 -5 0 -10 18 -10
40 0 22 5 40 10 40 6 0 10 5 10 10 0 6 -7 10 -15 10 -8 0 -15 9 -15 20 0 11
-4 20 -10 20 -5 0 -10 -9 -10 -19z"/>
<path d="M2084 2636 c-11 -29 1 -51 31 -56 34 -6 31 -25 -5 -25 -14 0 -26 -4
-27 -10 -5 -16 42 -26 71 -15 22 8 27 15 24 37 -2 22 -9 29 -32 33 -34 6 -37
25 -4 25 12 0 23 6 25 13 7 18 -76 16 -83 -2z"/>
<path d="M2200 2609 c0 -63 13 -79 65 -79 l45 0 0 60 c0 47 -3 60 -15 60 -11
0 -15 -12 -15 -45 0 -33 -5 -47 -16 -52 -21 -8 -34 14 -34 60 0 26 -4 37 -15
37 -11 0 -15 -11 -15 -41z"/>
<path d="M2340 2590 c0 -47 3 -60 15 -60 11 0 15 12 15 44 0 28 5 46 14 49 21
8 36 -14 36 -55 0 -27 4 -38 15 -38 11 0 15 11 15 41 0 63 -13 79 -65 79 l-45
0 0 -60z"/>
<path d="M2540 2565 c0 -69 3 -85 15 -85 9 0 15 9 15 24 0 19 4 23 19 19 27
-7 51 23 51 66 0 47 -14 61 -62 61 l-38 0 0 -85z m65 24 c0 -24 -5 -34 -15
-34 -16 0 -25 37 -16 62 10 26 31 8 31 -28z"/>
<path d="M2670 2591 c0 -47 3 -61 14 -61 11 0 16 14 18 48 3 41 6 47 25 47 41
0 29 20 -14 23 l-43 3 0 -60z"/>
<path d="M2770 2631 c-26 -49 -2 -103 45 -103 32 0 55 24 55 60 0 42 -18 62
-55 62 -24 0 -38 -6 -45 -19z m66 -56 c-5 -18 -12 -25 -24 -23 -21 4 -28 44
-11 64 19 23 44 -6 35 -41z"/>
<path d="M2980 2631 c-31 -59 10 -120 69 -104 33 9 26 31 -10 29 -18 0 -34 5
-36 12 -3 8 8 12 36 12 44 0 51 12 31 51 -7 13 -21 19 -45 19 -24 0 -38 -6
-45 -19z m68 -18 c2 -8 -6 -13 -22 -13 -25 0 -33 10 -19 24 10 10 36 3 41 -11z"/>
<path d="M3111 2631 c-17 -31 -13 -69 9 -91 24 -24 39 -25 66 -5 20 15 17 17
-26 19 -47 2 -37 70 10 71 36 0 26 20 -12 23 -28 2 -39 -1 -47 -17z"/>
<path d="M3310 2590 c0 -33 4 -60 10 -60 6 0 10 27 10 60 0 33 -4 60 -10 60
-6 0 -10 -27 -10 -60z"/>
<path d="M3370 2624 c-15 -38 -12 -62 10 -84 24 -24 38 -25 68 -4 14 10 22 25
22 45 0 49 -16 69 -56 69 -28 0 -36 -5 -44 -26z m68 -38 c-4 -40 -34 -48 -44
-12 -7 30 11 57 32 49 10 -4 14 -16 12 -37z"/>
<path d="M3500 2591 c0 -47 3 -61 14 -61 11 0 16 14 18 48 2 34 7 47 18 47 11
0 16 -13 18 -47 2 -35 7 -48 18 -48 12 0 14 12 12 58 l-3 57 -47 3 -48 3 0
-60z"/>
<path d="M930 2446 c-218 -63 -504 -308 -624 -536 -60 -114 -81 -192 -81 -305
0 -94 3 -106 33 -168 57 -116 139 -169 269 -175 140 -7 281 53 453 193 51 41
77 55 101 55 49 0 144 57 205 122 l55 60 -8 -44 c-19 -117 0 -158 72 -158 52
0 98 32 93 64 -4 22 -9 23 -42 10 -18 -7 -19 -4 -13 44 3 28 29 123 57 210 27
88 50 178 50 201 0 42 0 42 -32 39 -29 -3 -45 -18 -135 -138 -98 -130 -218
-259 -229 -247 -9 9 58 166 106 252 25 43 68 103 97 133 50 53 53 55 71 39 28
-26 33 -21 30 26 -3 37 -6 42 -30 45 -60 7 -187 -92 -273 -213 -79 -112 -145
-266 -145 -340 0 -29 -10 -39 -97 -105 -194 -145 -326 -175 -422 -95 -38 32
-80 129 -87 203 -13 118 43 281 140 409 122 162 391 361 474 351 44 -5 49 -28
23 -111 -26 -81 -23 -107 9 -107 30 0 66 41 100 112 38 80 39 126 4 159 -22
20 -37 24 -102 26 -42 1 -97 -4 -122 -11z"/>
<path d="M2825 2398 c-112 -41 -269 -201 -404 -414 -44 -70 -58 -84 -95 -98
-30 -12 -47 -25 -55 -44 -19 -50 -18 -67 6 -70 20 -3 19 -7 -27 -105 -26 -56
-59 -135 -74 -175 -41 -114 -33 -152 29 -152 55 0 86 46 177 263 l83 198 78
34 c250 108 409 249 453 402 20 70 12 114 -27 147 -33 28 -89 34 -144 14z m83
-121 c8 -72 -114 -197 -270 -278 -55 -28 -101 -49 -103 -47 -5 5 117 170 178
241 92 107 188 148 195 84z"/>
<path d="M3165 2397 c-50 -23 -92 -79 -105 -140 -12 -61 -9 -82 54 -311 39
-139 37 -158 -10 -176 -53 -21 -174 -1 -256 41 -48 25 -56 44 -35 81 24 42 21
58 -8 58 -52 0 -105 -58 -105 -114 0 -83 192 -176 365 -176 84 0 142 23 175
70 20 28 22 40 17 98 -3 38 -25 128 -51 210 -47 146 -55 206 -35 245 15 28 28
37 57 37 34 0 38 -27 8 -59 -35 -36 -33 -51 7 -51 40 0 94 32 108 64 37 80
-93 165 -186 123z"/>
<path d="M3635 2348 c-11 -6 -38 -26 -61 -45 -23 -18 -53 -33 -66 -33 -36 0
-79 -52 -127 -153 -61 -127 -82 -201 -88 -308 -5 -77 -2 -101 11 -128 66 -127
263 -17 382 213 20 39 46 79 58 88 22 18 27 58 30 240 1 97 -19 132 -80 135
-21 2 -48 -2 -59 -9z m21 -193 c-9 -44 -24 -53 -32 -20 -4 16 0 35 12 52 21
32 29 18 20 -32z m-90 -126 c39 -24 40 -28 18 -72 -51 -99 -163 -223 -183
-201 -16 17 31 199 81 311 l20 46 15 -32 c9 -17 31 -40 49 -52z"/>
<path d="M1945 2301 c-37 -22 -85 -77 -85 -96 0 -23 20 -28 46 -10 14 9 28 15
30 12 5 -5 -29 -104 -95 -274 -60 -155 -68 -227 -29 -263 28 -25 51 -25 105 1
54 26 129 109 193 212 27 45 50 77 50 71 0 -22 -85 -226 -140 -337 -67 -133
-149 -262 -214 -333 -41 -46 -47 -49 -94 -49 -43 0 -56 5 -82 30 -18 17 -41
49 -51 73 -19 43 -49 57 -49 22 0 -64 58 -167 114 -201 50 -30 132 -26 186 10
93 63 234 258 335 466 129 264 223 610 179 655 -15 15 -82 -2 -116 -30 -14
-10 -64 -81 -111 -157 -94 -152 -192 -289 -184 -258 2 11 25 91 51 178 73 250
60 339 -39 278z"/>
<path d="M2786 1549 c-173 -20 -253 -51 -244 -96 4 -22 25 -22 173 0 288 43
653 48 903 11 68 -10 50 12 -25 30 -241 57 -586 81 -807 55z"/>
</g>
</svg>
