<?xml version="1.0" encoding="utf-8"?>
<!-- Generator: Adobe Illustrator 26.3.1, SVG Export Plug-In . SVG Version: 6.00 Build 0)  -->
<svg version="1.1" id="Layer_1" xmlns="http://www.w3.org/2000/svg" xmlns:xlink="http://www.w3.org/1999/xlink" x="0px" y="0px"
	 viewBox="0 0 510 260" style="enable-background:new 0 0 510 260;" xml:space="preserve">
<style type="text/css">
	.st0{fill:#FFFFFF;}
</style>
<rect x="5.76" y="60.68" class="st0" width="147.26" height="60.64"/>
<rect x="49.07" y="127.09" class="st0" width="60.64" height="60.64"/>
<rect x="49.07" y="193.5" class="st0" width="60.64" height="60.64"/>
<g>
	<polygon class="st0" points="379.39,96.15 390.38,96.15 384.91,82.21 	"/>
	<path class="st0" d="M168.89,60.68v60.64h336.86V60.68H168.89z M217.68,78.36h-14.71v37.12h-13.59V78.36h-14.7V66.45h42.99V78.36z
		 M260.96,115.48h-39.77V66.45h39.42v11.56h-25.98v7.42h23.53v10.72h-23.53v7.77h26.33V115.48z M304.52,115.48h-39.78V66.45h39.43
		v11.56h-25.98v7.42h23.53v10.72h-23.53v7.77h26.33V115.48z M354.24,115.48h-11.91L321.4,88.58v26.89h-13.45V66.45h12.68
		l20.16,25.91V66.45h13.45V115.48z M397.87,115.48l-3.58-8.76h-18.9l-3.5,8.76H357.6l20.87-49.37h13.09l20.87,49.37H397.87z
		 M456.13,108.89c-5.18,4.27-12.39,7.56-21.29,7.56c-15.27,0-26.68-10.51-26.68-25.35v-0.14c0-14.29,11.21-25.49,26.4-25.49
		c8.61,0,14.7,2.66,19.88,7.14l-7.98,9.59c-3.5-2.94-7-4.62-11.84-4.62c-7.08,0-12.53,5.95-12.53,13.45v0.14
		c0,7.91,5.53,13.59,13.3,13.59c3.29,0,5.82-0.7,7.85-2.03v-5.95h-9.67v-9.95h22.55V108.89z M499.97,115.48h-39.78V66.45h39.43
		v11.56h-25.98v7.42h23.53v10.72h-23.53v7.77h26.33V115.48z"/>
</g>
<g>
	<path class="st0" d="M446.38,144.63h-8.89v11.77h8.96c4.62,0,7.28-2.24,7.28-5.82v-0.14C453.73,146.59,450.92,144.63,446.38,144.63
		z"/>
	<polygon class="st0" points="242.38,162.56 253.38,162.56 247.92,148.62 	"/>
	<path class="st0" d="M168.89,127.09v60.64h304.48v-60.64H168.89z M199.87,182.87c-14.01,0-25.28-10.71-25.28-25.35v-0.14
		c0-14.29,10.99-25.49,25.84-25.49c10.01,0,16.45,4.2,20.8,10.22l-10.23,7.92c-2.8-3.5-6.02-5.74-10.71-5.74
		c-6.86,0-11.7,5.81-11.7,12.95v0.14c0,7.35,4.84,13.09,11.7,13.09c5.11,0,8.12-2.38,11.06-5.95l10.23,7.28
		C216.96,178.17,210.73,182.87,199.87,182.87z M260.87,181.89l-3.57-8.76h-18.91l-3.5,8.76H220.6l20.87-49.37h13.09l20.87,49.37
		H260.87z M325.09,181.89h-11.9l-20.95-26.89v26.89H278.8v-49.02h12.67l20.17,25.91v-25.91h13.45V181.89z M354.57,182.87
		c-14.01,0-25.29-10.71-25.29-25.35v-0.14c0-14.29,11-25.49,25.85-25.49c10.02,0,16.46,4.2,20.8,10.22l-10.22,7.92
		c-2.8-3.5-6.02-5.74-10.71-5.74c-6.86,0-11.7,5.81-11.7,12.95v0.14c0,7.35,4.83,13.09,11.7,13.09c5.11,0,8.12-2.38,11.06-5.95
		l10.23,7.28C371.66,178.17,365.42,182.87,354.57,182.87z M419.41,181.89h-39.77v-49.02h39.42v11.56h-25.98v7.42h23.54v10.71h-23.54
		v7.77h26.33V181.89z M453.31,181.89l-9.87-14.85h-5.95v14.85H423.9v-49.02h23.18c7.5,0,12.68,1.96,15.97,5.32
		c2.87,2.8,4.35,6.59,4.35,11.42v0.14c0,7.49-4,12.46-10.09,15.06l11.7,17.09H453.31z"/>
</g>
<g>
	<path class="st0" d="M244.36,211.04h-8.9v11.77h8.97c4.63,0,7.28-2.24,7.28-5.82v-0.14C251.72,213,248.92,211.04,244.36,211.04z"/>
	<path class="st0" d="M168.89,193.5v60.64h241.82V193.5H168.89z M217.68,211.18h-14.71v37.12h-13.59v-37.12h-14.7v-11.91h42.99
		V211.18z M251.3,248.3l-9.87-14.85h-5.96v14.85h-13.58v-49.02h23.18c7.5,0,12.68,1.96,15.97,5.32c2.87,2.8,4.34,6.58,4.34,11.41
		v0.14c0,7.49-3.99,12.46-10.08,15.06l11.69,17.09H251.3z M315.17,226.45c0,15.82-9.04,22.76-22.98,22.76
		c-13.93,0-22.69-7.08-22.69-22.41v-27.52h13.8v27.24c0,7.07,3.57,10.44,9.03,10.44c5.47,0,9.03-3.22,9.03-10.09v-27.59h13.8V226.45
		z M359.84,233.17c0,10.02-7.91,15.97-19.82,15.97c-8.69,0-16.95-2.73-22.98-8.12l7.57-9.03c4.83,3.85,10.22,5.88,15.9,5.88
		c3.64,0,5.6-1.26,5.6-3.36v-0.14c0-2.03-1.61-3.15-8.27-4.69c-10.43-2.38-18.48-5.32-18.48-15.41v-0.14
		c0-9.1,7.21-15.68,18.97-15.68c8.33,0,14.85,2.24,20.17,6.51l-6.79,9.59c-4.48-3.15-9.39-4.83-13.72-4.83
		c-3.3,0-4.91,1.4-4.91,3.15V213c0,2.24,1.69,3.23,8.47,4.76c11.28,2.45,18.28,6.09,18.28,15.27V233.17z M404.94,211.18h-14.7v37.12
		h-13.58v-37.12h-14.71v-11.91h43V211.18z"/>
</g>
<g>
	<path class="st0" d="M174.3,38.83c0.05-0.28,0.05-0.61,0.14-0.94c0.14-0.38,0.05-0.9,0.38-1.27c0.19-1.32,0.42-2.55,0.85-3.82
		c0.76-1.94,1.42-3.78,2.27-5.62c0.42-0.85,0.85-1.79,1.13-2.6c0.38-0.8,0.8-1.7,1.37-2.55c0.61-1.27,1.32-2.5,1.84-3.82
		c0.05-0.09,0.05-0.24-0.09-0.28l-0.33-0.14c-0.33-0.28-0.66-0.57-0.76-0.99c-0.14-0.14-0.24-0.33-0.24-0.52
		c-0.05-0.24-0.05-0.47,0-0.8c0-0.14,0-0.33,0.19-0.47c0.09-0.09,0.09-0.19,0.05-0.42c0-0.09-0.05-0.19-0.05-0.38
		c-0.09-0.09,0.09-0.19,0.14-0.28c0.19-0.14,0.28-0.33,0.38-0.42c0.09-0.09,0.24-0.09,0.28-0.14h0.05c0.52,0.09,0.94-0.09,1.42-0.33
		l1.89-0.76c0.05-0.05,0.09-0.14,0.19-0.14c0.19-0.09,0.38-0.24,0.42-0.38c0.66-1.46,0.66-1.18,1.32-2.55
		c0.05-0.19,0.14-0.28,0.14-0.38c0-0.52,0.76-0.33,0.9-0.9c0-0.33,0.05-0.66,0.28-0.85c0.09-0.19,0.24-0.24,0.38-0.24
		c0.05,0.05,0.19,0,0.33-0.05c0.42-0.38,0.76-0.42,1.32-0.19c0.19,0.05,0.28,0,0.42,0.14c0.61,0.28,1.79,0,2.12,0.42l0.38,0.42
		c0.42,0.71,0.76,0.24,0.99,0.99l0.05,0.05c0.24,0.19,0.33,0.38,0.42,0.47c0.38,0.09,0.8-0.09,1.13-0.19
		c0.38-0.14,1.04-0.09,1.51-0.28c0.28-0.05,0.33-0.05,0.47-0.05h1.51c0.94,0,1.79,0.28,2.69,0.61c0.76,0.24,1.37,0.52,1.79,1.09
		c0.33,0.28,0.57,0.57,0.85,0.9c0.24,0.38,0.61,0.85,0.76,1.42c0.33,0.99,0.47,1.98,0.61,3.16c0.05,0.09,0,0.14-0.05,0.24
		c0,0.57-0.09,1.09-0.05,1.65c0,0.52-0.19,1.09-0.33,1.61c-0.33,0.76-0.42,1.46-0.8,2.08c-0.09,0.09-0.14,0.28-0.24,0.33
		c-0.28,0.05-0.28,0.24-0.33,0.42c-0.66,0.85-1.32,1.7-2.03,2.31c-0.28,0.38-0.52,0.66-0.94,0.71c-0.28,0.19-0.38,0.47-0.76,0.76
		c-0.28,0.33-0.61,0.57-1.04,0.99c-0.14,0.09-0.28,0.24-0.47,0.28c-0.28,0.09-0.66,0.28-1.09,0.57c0,0.05-0.05,0.14-0.14,0.19h-0.14
		c0,0-0.05,0-0.05-0.05c-0.28-0.14-0.57-0.09-0.66,0.05c-0.19,0.14-0.14,0.24-0.33,0.38c-0.09,0.09-0.33,0.19-0.42,0.14
		c-0.14,0-0.24,0.05-0.24,0.05c-0.76,0.42-1.27,0.8-1.98,1.23c-0.19,0.24,0,0.28-0.33,0.33c-0.14,0-0.28,0.09-0.47,0.09
		c-0.19,0.05-0.28,0.09-0.33,0.09c-0.19-0.05-0.33,0.05-0.47,0.14c-0.38,0.05-0.42,0.05-0.61-0.05c-0.14-0.05-0.19,0-0.24,0.05
		c-0.47,0.19-0.71,0.33-0.99,0.52c-0.14,0.14-0.38,0.14-0.52,0c-0.09-0.05-0.24,0.38-0.38,0.42c-0.05,0.09-0.42,0.14-0.66,0.28
		c-0.09,0.05-0.24-0.05-0.09-0.28c0-0.05,0-0.09-0.05-0.14c0-0.05-0.14-0.09-0.19-0.09c-0.28,0-0.57,0.24-0.9,0.24
		c-0.19,0-0.61,0.28-0.8,0.38c-0.14,0.09-0.28,0.05-0.52-0.05c-0.14-0.09-0.19-0.24-0.28-0.38c-0.24-0.19-0.38-0.14-0.57,0
		c-0.19,0.05-0.28,0.09-0.42,0.19c-0.28,0.38-0.47,0.76-0.66,1.18c-0.42,1.04-0.76,1.18-1.13,2.17c-0.09,0.19-0.19,0.38-0.24,0.57
		c-0.05,0.24-0.09,0.38-0.38,0.57c-0.14,0.24-0.42,0.57-0.47,0.8c-0.19,0.52-0.42,1.09-0.52,1.65c-0.09,0.71-0.42,1.46-0.66,2.27
		c0,0.14-0.09,0.28-0.28,0.42c-0.14,0.28-0.28,0.57-0.33,0.8c0,0.38,0,0.8-0.14,1.18c-0.09,0.42-0.09,0.66,0.09,0.9
		c0.09,0.14,0.05,0.28-0.09,0.33c-0.38,0.24-0.8,0.38-1.09,0.52c-0.14,0.09-0.38,0-0.52-0.09c-0.09-0.19-0.09-0.47-0.33-0.66
		c-0.05-0.05-0.09-0.05-0.14-0.05c-0.14,0.05-0.42,0.09-0.47,0.24c-0.38,0.33-1.42,0.38-1.65,0.57c-0.05,0.05-0.14,0-0.24,0
		c-0.57-0.14-0.61-0.52-1.04-0.9c-0.14-0.09-0.19-0.24-0.42-0.38c-0.24-0.66-0.38-1.51-0.42-2.31c-0.05-0.28,0-0.57,0.05-0.9
		c0.05-0.24,0.09-0.42,0.09-0.57C174.3,39.44,174.25,39.06,174.3,38.83z M200.49,15.37c0-0.24-0.09-0.47-0.19-0.47
		c-0.09-0.05-0.24-0.14-0.33-0.14c-1.13-0.19-1.56-0.19-2.64,0.09c-0.66,0.09-1.42,0.28-2.17,0.52c-0.61,0.09-0.85,0.28-1.46,0.52
		c-0.76,0.14-1.18,0.57-1.56,1.27c0,0.05-0.05,0.14-0.05,0.28c-0.24,0.47-0.52,0.9-0.8,1.42c-0.24,0.8-1.09,1.46-1.23,2.27
		c-0.38,0.8-0.85,1.6-1.27,2.22c-0.42,0.94-0.85,1.84-1.42,2.88c-0.05,0-0.05,0.05-0.05,0.05c0,0.05,0.05,0.14,0.05,0.14
		c0.05,0.05,0.14,0.05,0.14,0.05c1.09-0.38,2.74-1.04,3.68-1.56c1.32-0.85,2.17-1.65,3.49-2.5c0.57-0.52,1.27-1.09,1.98-1.56
		c0.42-0.52,0.66-0.85,1.37-1.32c0.47-0.57,1.04-1.46,1.6-2.08c0.05-0.19,0.33-0.33,0.42-0.52c0.19-0.38,0.24-0.66,0.42-1.04
		c0-0.09-0.09-0.19-0.05-0.33C200.49,15.46,200.49,15.37,200.49,15.37z"/>
	<path class="st0" d="M212.68,22.54c0,0.05,0.05,0.09,0.09,0.14c0,0.05,0.09,0.05,0.19,0.05l0.14-0.14
		c0.19-0.09,0.09-0.14,0.24-0.19c0.71-0.61,0.42-0.42,1.09-0.71c0.61-0.38,1.23-0.42,1.84-0.52c0.28-0.19,0.66-0.28,0.94-0.19
		c0,0,0.19,0,0.28,0.14c0.71,0.09,1.79,0.38,2.08,0.71l0.19,0.05c0.05,0.14,0.28,0.33,0.19,0.38c-0.09,0.19,0,0.19,0,0.33
		c0,0.05,0.05,0.19,0.09,0.28c0.05,0.24,0,0.42,0,0.71c0.09,0.33-1.04,0.94-1.46,1.09c-0.09,0.05-0.28,0.05-0.38,0.05
		c-0.19,0.09-0.38,0.09-0.52,0.09c-0.42,0.05-0.8,0.14-1.09,0.47c-0.8,0.42-0.76,0.52-1.56,1.13c0,0-0.09,0.05-0.14,0.09
		c-0.42,0.47-0.85,1.04-1.27,1.65c-0.14,0.24-0.47,0.42-0.57,0.52c-0.28,0.38-0.38,0.57-0.52,0.85c-0.47,0.52-0.8,1.09-1.18,1.61
		l-0.85,1.32c-0.42,0.61-0.57,0.71-0.85,1.37c0,0.19-0.28,0.47-0.28,0.57c-0.24,0.66-0.99,1.98-1.18,2.45
		c-0.33,0.47-0.19,1.37-0.38,1.79c-0.05,0.38-0.14,0.57-0.28,0.8c-0.14,0.42-0.66-0.24-0.61,0.05c0.09,0.14,0.05,0.33,0.09,0.52
		c-0.05,0.28-0.14,0.57-0.38,0.85c-0.42,0.24-0.85,0.38-1.27,0.42c-0.42,0-0.85,0.42-1.32,0.66c-0.28,0.05-0.71,0.05-1.04-0.14
		c-0.19,0.14-0.33-0.05-0.38-0.19c-0.05-0.05-0.24-0.05-0.33-0.09c-0.24-0.09-0.38-0.33-0.57-0.42c-0.33-0.38,0.14-2.03,0.19-2.41
		c0-0.66,0.19-1.32,0.38-1.94c0.42-1.27,0.61-2.45,0.94-3.54c0.38-1.04,0.66-2.41,1.04-3.35c0.14-0.38,0.42-0.99,0.57-1.42
		c0.14-0.38,0.19-0.8,0.28-1.09c0.61-1.23,0.76-2.17,1.23-3.4c0.24-0.42,0.42-0.76,0.61-1.32c0.19-0.33,0.33-0.71,0.33-1.09V20.7
		c-0.09-0.14-0.14-0.28-0.09-0.42l0.14-0.24c0.24-0.09,0.42-0.14,0.52-0.24c0.19,0,0.33-0.05,0.24-0.24c0-0.33,0.24-0.57,0.57-0.66
		c0.42-0.24,0.99-0.47,1.61-0.47c0.66-0.05,0.94,0.05,1.42,0.33c0.09,0.09,0.28,0.14,0.38,0.24c0.05,0,0.19,0.14,0.24,0.24v0.09
		c0.38,0.8,0.38,0.8,0.42,1.89C212.73,21.64,212.73,22.21,212.68,22.54z"/>
	<path class="st0" d="M235.86,33.54c-0.66,1.23-1.27,2.45-2.22,3.63c-0.28,0.52-0.8,1.04-1.13,1.46c-0.09,0.09-0.24,0.24-0.28,0.38
		c-0.47,0.71-0.99,1.13-1.51,1.65c-0.38,0.33-0.9,0.8-1.61,1.13c-0.47,0.19-0.94,0.47-1.51,0.71c-0.19,0.05-0.33,0.09-0.61,0.09
		c-0.38-0.09-0.61,0-1.04,0.05c0,0.09,0,0-0.05,0c-0.9,0.33-1.84,0.28-2.78,0.19c-0.57-0.05-1.04-0.24-1.56-0.57
		c-0.24-0.05-0.38-0.24-0.52-0.33c-0.33-0.05-2.17-1.27-2.27-3.73c-0.05-0.42-0.05-0.71-0.05-1.09c0,0.14,0.05-1.56,0.05-1.94
		c-0.05-0.47,0-0.9,0.14-1.32c0.09-0.52,0.19-1.04,0.24-1.61c0.38-0.76,0.61-1.61,0.8-2.5c0.28-0.47,0.38-0.99,0.8-1.61
		c0.09-0.47,0.38-0.9,0.47-1.37c0.52-0.76,0.94-1.65,1.46-2.36c0.38-0.47,0.8-1.13,1.27-1.61c0.19-0.47,0.47-0.8,0.8-1.09
		c0.33-0.47,0.57-0.47,1.04-0.85c0.09-0.19,0.61-0.14,0.8-0.52c0.24-0.24,0.42-0.33,0.71-0.38c0.14,0,0.19-0.14,0.33-0.14
		c0.47-0.05,0.66-0.19,1.13,0.05c0.61,0.38,1.23,0.28,1.89,0.8c0.33,0.09,0.47,0.33,0.71,0.52c0.24,0.42,0.61,0.66,0.99,0.99
		l0.47,0.47c0.52,0.19,0.8,0.57,1.13,1.09l0.38,0.33c0.05,0.05,0.09,0.05,0.14,0.05c0.28-0.09,0.33,0,0.52,0.19
		c0.24,0.24,0.61,0.47,0.85,0.28c0.05,0,0.19,0.09,0.24,0.14c0.19,0.33,0.33,0.71,0.52,1.09c0.05,0.14,0.05,0.28,0.09,0.33
		c0.19,0.05,0.14,0.19,0.19,0.47c0.09,0.47,0.19,0.76,0.19,1.32c-0.09,1.13-0.24,0.71-0.09,1.42c0.09,0.14-0.28,1.84-0.28,1.94
		L235.86,33.54z M231.66,26.17c0-0.33-0.09-0.52-0.33-0.57l-0.28-0.19c-0.28,0-0.42-0.14-0.57-0.28c-0.09-0.09-0.19-0.09-0.33-0.09
		c-0.14,0.14-0.19,0.33-0.33,0.52c-0.52,0.47-0.85,0.99-1.23,1.56c-0.71,0.9-1.27,1.89-1.75,2.93c-0.24,0.33-0.42,0.76-0.57,1.13
		c0,0.14-0.19,0.38-0.33,0.52c-0.14,0.42-0.38,0.9-0.47,1.37c-0.05,0.19-0.14,0.47-0.28,0.66c-0.33,0.8-0.57,1.75-0.85,2.64
		c-0.14,0.42-0.24,0.71-0.05,1.18c0,0.05,0.09,0.09,0.14,0.09c0.09,0,0.19-0.05,0.28-0.09c0.66-0.52,1.18-0.9,1.75-1.42
		c0.38-0.28,0.8-0.66,1.04-1.23c0.09-0.09,0.28-0.19,0.42-0.38l0.38-0.38c0.76-1.09,1.56-2.03,2.03-3.07
		c0.28-0.47,0.57-1.04,0.9-1.56c0.28-0.76,0.42-1.6,0.42-2.41C231.61,26.79,231.61,26.46,231.66,26.17z"/>
	<path class="st0" d="M239.88,30.99c0.09-1.09,0.9-2.69,1.23-3.73c0.38-1.42,0.8-1.79,1.32-3.11c0.28-0.47,0.71-1.04,0.99-1.37
		l0.57-1.13c0.19-0.38,0.19-0.61,0.33-0.71c0.05-0.05,0.19-0.14,0.28-0.09c0.14,0.09,0.24,0.09,0.42-0.05
		c0.05-0.19,0.24-0.38,0.33-0.57c0.24-0.24,0.61-0.14,0.8-0.19c0.33,0,0.76,0.19,1.09,0.38c0.24,0.28,0.42,0.33,0.47,0.52
		c0.33,0.28,0.8,0.33,0.71,0.85c-0.05,0.47-0.09,1.09,0,1.56c0.05,0.47-0.05,0.85,0,1.23v0.24c-0.05,0.38-0.09,0.99-0.24,1.32
		c-0.42,0.99-0.94,1.75-1.84,4.53c-0.09,0.85-0.76,1.56-0.8,2.27c-0.05,0.47-0.19,0.8-0.19,1.23c-0.05,0.24-0.14,0.38-0.14,0.57
		c0.05,0.38-0.09,0.61-0.14,0.99c0,0.19,0,0.14,0.05,0.33c0,0.14,0.05,0.14,0.09,0.14c0.14-0.05,0.24-0.14,0.33-0.24
		c0.61-0.38,0.76-0.33,1.18-0.85c0.61-0.61,1.18-1.32,1.61-2.03c0.57-0.52,0.85-1.09,1.37-1.65c0.66-1.04,1.42-2.12,2.08-3.26
		c0.61-1.13,0.99-1.46,1.61-2.6c0.24-0.47,0.52-0.8,0.57-1.27l0.42-1.04c0.09-0.19,0.24-0.47,0.28-0.8c0-0.14,0.09-0.33,0.09-0.47
		c0.09-0.24,0.19-0.38,0.38-0.38h0.19c0.14-0.14,0.33-0.19,0.38-0.33v-0.24c0.14-0.42,0.33-0.66,0.57-0.71
		c0.24-0.05,0.57,0,0.76-0.05c0.19,0,0.33,0.05,0.57,0.24c0.28,0.33,0.61,0.47,1.09,0.61c0.19,0.09,0.19,0,0.38,0.19
		c0.28,0.52,0.71,0.99,0.99,1.65v0.24c0.38,1.13,0.42,1.13,0.09,2.08c-0.24,0.8-0.47,1.18-0.76,1.93c-0.19,0.47-0.38,0.52-0.42,1.09
		c-0.14,0.9-0.66,1.65-0.85,2.45c-0.47,1.46-0.94,2.41-1.32,3.87c-0.09,0.19-0.28,1.04-0.33,1.27c-0.14,0.42-0.14,0.8-0.28,1.09
		c-0.05,0.38-0.09,0.85-0.19,1.09l0.14,2.22c-0.09,0.28-0.19,0.42-0.28,0.61c-0.09,0.24-0.14,0.52,0,0.71v0.09
		c0,0.14-0.05,0.38-0.14,0.47c-0.24,0.05-0.38,0.05-0.42,0.05c-0.28-0.05-0.42,0.05-0.52,0.33c-0.24,0.19-0.66,0.38-0.8,0.52
		c-0.05,0.05-0.19,0-0.19-0.09c0-0.14-0.14-0.05-0.14-0.14c0.05-0.09-0.09-0.09-0.09-0.05c-0.28,0.14-0.14-0.24-0.42-0.14
		c-0.05,0.14-0.14,0.14-0.14,0.19c-0.28,0.19-0.57,0.05-0.66-0.19c0.05-0.09-0.09-0.09-0.14-0.19c-0.42-0.61-0.71-0.05-0.61-0.61
		c0-0.14-0.42-0.42-0.42-0.61c0.05-0.19-0.14-0.61-0.24-1.98c-0.05-0.28,0.14-1.37,0.09-1.51c-0.05-0.05-0.05-0.05-0.09-0.05h-0.05
		c0,0.09-0.28,0.14-0.28,0.19c-0.05,0.33-0.66,0.9-0.76,1.09l-0.8,0.76c-0.28,0.24-0.66,0.42-1.13,0.8
		c-0.47,0.38-0.94,0.47-1.56,0.57c-0.09,0.05-0.24,0.24-0.47,0.14c-0.38-0.09-0.57,0.52-0.9,0.42h-0.09
		c-0.38,0.14-0.76-0.05-1.04-0.05c-0.47-0.05-1.61-0.14-2.03-0.38c-0.28-0.19-0.61-0.24-0.85-0.47c-0.8-0.94-1.46-2.03-1.65-3.45
		c-0.19-0.99,0-0.99-0.09-2.69C239.12,33.49,239.55,32.22,239.88,30.99z"/>
	<path class="st0" d="M281.05,42.22c-0.05,0.05-0.09,0.19-0.05,0.28c0,0.09,0.05,0.28,0.05,0.38c0,0.05-0.05,0.14-0.09,0.14
		c-0.05,0.05-0.09,0.05-0.09,0c-0.38-0.14-0.66-0.28-0.94-0.47c-0.09-0.09-0.05-0.05-0.28,0.09c-0.24,0.14-0.28,0.42-0.19,0.66
		c0.05,0.14,0.05,0.24,0.05,0.28c0,0.09-0.09,0.33-0.19,0.38h-0.28c-0.05,0-0.14,0-0.24-0.05c-1.23-0.38-2.17-1.23-2.79-2.45
		c-0.33-0.57-0.24-1.13-0.47-1.7c-0.24-0.66-0.05-1.27-0.14-2.03c-0.05-0.09-0.05-0.24-0.05-0.33l-0.66,0.52
		c-0.38,0.52-0.71,0.8-1.09,1.23c-0.47,0.57-1.09,0.94-1.7,1.37c-0.76,0.42-1.98,1.09-2.83,1.23c-0.14,0-0.38,0.05-0.52,0.09
		c-0.52,0.14-1.04,0.19-1.61,0.19c-0.05,0.05-0.19,0.05-0.24,0c-0.66-0.14-1.42-0.14-2.12-0.38c-0.24-0.05-0.42-0.14-0.61-0.33
		l-0.66-0.47c-0.42-0.33-0.76-0.71-0.94-1.13c-0.14-0.24-0.33-0.61-0.57-0.85c-0.33-0.85-0.52-1.61-0.57-2.5
		c0-0.19-0.05-0.52-0.05-0.71c0-0.66,0.19-1.32,0.33-2.08c0.28-0.9,0.71-1.79,0.99-2.64c0.24-0.66,0.57-1.32,0.94-1.94
		c0.71-1.37,0.76-1.42,1.7-2.64c0.52-0.9,1.13-1.51,1.75-2.22c0.8-0.8,1.42-1.51,2.17-2.17c1.51-1.6,3.96-1.75,4.91-1.84
		c0.14,0,0.24,0,0.38,0.05c0.33,0.05,0.61,0.05,0.8,0.09c0.24,0.05,0.47,0.38,0.76,0.42c0.42,0.05,0.71,0.28,1.13,0.61
		c0.38,0.28,0.42,0.14,0.8,0.47c0.33,0.24,0.38,0.28,0.57-0.05c0.09-0.28,0.38-0.38,0.47-0.52c0.24-0.61,0.05-0.24,0.28-0.85
		c0.38-1.04,0.85-1.75,1.18-2.6c0.19-0.52,0.47-0.99,0.66-1.42c0.33-0.9,0.24-0.61,0.61-1.51c0.14-0.05,0.19-0.28,0.24-0.38
		c0.24-0.66,0.57-1.32,0.85-1.98c0.42-0.9,0.85-1.7,1.37-2.64c0.09-0.33,0.24-0.57,0.33-0.94c0.05-0.19,0.09-0.33,0.09-0.47
		c0.05-0.09,0.09-0.14,0.24-0.14c0.28-0.14,0.47-0.09,0.66-0.33c0.09-0.19,0.19-0.38,0.38-0.52c0.24-0.33,0.61-0.42,1.04-0.57
		l0.28-0.09c0.19,0,0.33,0.05,0.42,0.14c0.38,0.19,0.38,0.71,0.66,0.8c0.28,0.19,0.47,0.33,0.76,0.42c0.05,0,0.14,0.14,0.14,0.28
		c-0.05,0.14-0.05,0.19-0.05,0.28c0,0.14-0.24,0.47-0.09,0.52h0.24l0.14,0.28c0,0.05-0.05,0.19-0.05,0.24
		c-0.09,0.14-0.09,0.33,0,0.42c0.52,0,0.71,0.85,0.38,1.89c-0.24,0.57,0.14,0.47-0.14,0.94c-0.33,1.09-0.8,2.12-1.23,3.07
		c-0.09,0.33-0.28,0.61-0.47,0.99c-0.42,0.8-0.52,0.99-0.8,1.75c-0.61,1.13-0.14,0.24-0.71,1.56c-0.38,0.71-0.14,0.38-0.38,1.04
		c-0.9,1.65-1.56,3.96-2.5,6.7c-0.19,0.76-0.52,1.84-0.8,2.55c-0.66,2.69-0.66,2.46-0.8,4.34c-0.19,0.57-0.28,1.61-0.33,2.17
		c0.05,0.57,0.42,0.71,0.14,1.18c-0.14,0.33,0,0.61,0.14,0.94c0,0.24,0.05,0.38,0.24,0.52c0.19,0.19-0.05,0.24-0.24,0.47
		c-0.38,0.38-0.42,0.61-0.42,1.04c-0.05,0.42,0.09,0.71,0.14,1.13c-0.19,0-0.24-0.09-0.33-0.24
		C281.09,42.18,281.05,42.18,281.05,42.22z M275.1,25.56c-0.24-0.09-1.27,0.09-1.51,0.19l-0.99,0.66c-0.42,0.38-0.52,0.76-0.9,1.18
		c-0.66,0.57-1.23,1.32-1.7,2.03c-0.28,0.57-0.61,0.94-1.04,1.51c-0.05,0.19-0.14,0.38-0.28,0.57c-0.42,0.8-0.8,1.79-1.09,2.64
		c-0.09,0.14-0.09,0.28-0.19,0.42c-0.09,0.24,0.24,0.19,0.19,0.52c0,0.05-0.24,0.09-0.19,0.19h0.05c-0.09,0.05-0.24,0.19-0.19,0.14
		c0.61,0.76,2.64,0.09,4.11-1.51c0.14-0.33,0.42-0.47,0.66-0.71c0.19-0.24,0.99-1.13,1.18-1.27c0.33-0.42,0.99-1.13,1.37-1.56
		c0.66-0.8,1.51-2.12,2.41-3.87c0.05-0.05-0.57-0.38-0.57-0.42c-0.05,0.05-0.05,0.09-0.05,0.05
		C276.28,25.8,275.24,25.42,275.1,25.56z M267.45,35.47c0.05-0.05,0.09-0.05,0.05,0H267.45z"/>
	<path class="st0" d="M302.91,19.94c0.52,0.05,1.13,0,1.65-0.24c0.76-0.05,1.46-0.38,2.17-0.57c0.19,0,0.33-0.09,0.38-0.24
		c0.24-0.76,0.57-0.94,0.76-1.7l0.33-0.57c0.38-0.85,0.85-1.65,1.13-2.5l2.93-6.04l0.09-0.19c0.14-0.28,0.05-0.52,0-0.71
		c-0.09-0.33,0-0.57,0.33-0.71c0.14-0.05,0.28,0.05,0.47,0.09c0.09,0.05,0.14,0.14,0.19,0c0.24-0.09,0.33-0.19,0.42-0.33
		c0-0.05,0.05-0.09,0.09-0.09c0.05-0.05,0.14-0.09,0.19-0.05c0.42,0.05,0.76,0.05,1.18,0.19l0.8,0.24c0.61,0.05,0.9,0.47,1.09,0.85
		c0.24,0.33,0.42,0.66,0.47,0.94l0.33,1.09c0.14,0.42,0.19,0.8,0.24,1.18c0,0.14,0,0.24-0.05,0.33c-0.05,0.52-0.19,1.04-0.38,1.56
		c-0.38,1.04-0.8,2.17-1.37,3.07c-0.47,0.94-0.71,1.32-1.04,2.27c-0.05,0.09-0.38,0.33-0.24,0.33c0.57,0,1.09,0,1.75-0.09
		c0.33,0,0.28,0.05,0.76,0.09c1.18,0.05,0.38,0.05,1.56,0.38c0.14,0.09,0.33,0.09,0.42,0.14c0.24,0.09,0.28,0.38,0.24,0.57
		c-0.09,0.38,0.14,0.47,0,0.57h-0.09c-0.71,0,0.24,0.33-0.24,0.61c-0.05,0.09-0.24,0.24-0.38,0.33l-0.47,0.47
		c-0.14,0.09-0.14,0.24,0,0.47c0.14,0.28,0.09,0.47-0.14,0.66c0,0.14-0.14,0.38-0.28,0.42c-0.14,0.14-0.24,0.19-0.42,0.19
		c-0.24,0-0.09,0.09-0.42,0.09c-0.19,0-0.33,0-0.42,0.09c-0.33,0.24-0.9-0.05-1.18,0.09c-0.38,0.09-0.66,0.19-0.99,0.24
		c-0.71,0.09-1.09,0.38-1.79,0.47c-0.14,0.09-0.24,0.24-0.28,0.38c-0.05,0.47-0.57,0.8-0.8,1.23c-0.05,0.09-0.05,0.24-0.09,0.28
		c-0.42,0.94-0.9,2.17-1.18,3.16c-0.42,0.94-0.9,1.84-1.23,2.78c-0.28,0.8-0.66,1.7-0.76,2.46c-0.19,0.38-0.38,0.66-0.47,1.09
		c-0.09,0.61-0.42,1.27-0.47,1.84c0,0.33,0,0.61-0.28,0.85c-0.05,0.05-0.09,0.05-0.09,0.09c-0.05,0.42-0.19,0.71-0.19,1.04
		c0,0.38-0.14,0.61-0.28,0.8c-0.05,0.14-0.05,0.33-0.05,0.52c0.05,0.19,0,0.42-0.05,0.61c-0.05,0.09-0.05,0.33,0,0.42
		c0.05,0.28,0,0.57,0.33,0.9c0.05,0.05,0.05,0.09,0.05,0.09c0.09,0.14,0.05,0.33-0.09,0.47c-0.19,0.09-0.33,0.19-0.66,0.09
		c-0.09,0-0.24-0.05-0.38,0.05c-0.19,0.14-0.33,0.33-0.52,0.38c-0.24,0.14-0.47,0-0.57,0.24c-0.05,0.09-0.19,0.09-0.42,0
		c-0.09-0.05-0.19-0.05-0.33,0c-0.14,0.09-0.24,0.05-0.33-0.05c-0.33-0.19-0.42,0-0.57-0.24c-0.19-0.24-0.47-0.33-0.66-0.52
		c-0.42-0.42-0.8-1.04-1.09-1.7c-0.33-0.61-0.38-1.46-0.24-2.22c-0.05-0.38-0.05-0.94,0.09-1.32c0-0.47,0.09-0.85,0.09-1.23
		c0-0.9,0.14-1.61,0.52-2.6c0.09-0.66,0.14-1.56,0.38-2.27l0.14-0.57c0.42-1.04,0.76-2.03,1.13-3.02c0.19-0.33,0.28-0.66,0.42-0.94
		c0.14-0.71,0.33-1.18,0.8-1.89c0-0.05,0.05-0.09,0.05-0.14c0.05-0.42,0.28-0.9-0.05-0.85c-0.19,0-0.57,0.09-0.76,0.09
		c-0.28,0.05-0.66,0.14-0.9-0.09c-0.14-0.09-0.28-0.09-0.42-0.09c-0.47-0.09-0.85-0.19-1.32-0.19c-0.42-0.05-0.76-0.42-0.99-0.9
		c-0.05-0.24-0.19-0.38-0.28-0.66c0-0.09-0.09-0.19-0.05-0.28c0.05-0.14,0.05-0.28-0.09-0.42c-0.05-0.05-0.05-0.19-0.14-0.24
		c-0.09-0.19,0-0.52,0.28-0.52c0.24-0.05,0.52-0.05,0.8-0.05c0.24-0.05,0.38-0.14,0.38-0.47l0.14-0.28
		c0.14-0.05,0.28-0.09,0.38-0.09c0.19,0,0.52,0.05,0.8-0.05H302.91z"/>
	<path class="st0" d="M334.12,33.54c-0.66,1.23-1.27,2.45-2.22,3.63c-0.28,0.52-0.8,1.04-1.13,1.46c-0.09,0.09-0.24,0.24-0.28,0.38
		c-0.47,0.71-0.99,1.13-1.51,1.65c-0.38,0.33-0.9,0.8-1.61,1.13c-0.47,0.19-0.94,0.47-1.51,0.71c-0.19,0.05-0.33,0.09-0.61,0.09
		c-0.38-0.09-0.61,0-1.04,0.05c0,0.09,0,0-0.05,0c-0.9,0.33-1.84,0.28-2.79,0.19c-0.57-0.05-1.04-0.24-1.56-0.57
		c-0.24-0.05-0.38-0.24-0.52-0.33c-0.33-0.05-2.17-1.27-2.27-3.73c-0.05-0.42-0.05-0.71-0.05-1.09c0,0.14,0.05-1.56,0.05-1.94
		c-0.05-0.47,0-0.9,0.14-1.32c0.09-0.52,0.19-1.04,0.24-1.61c0.38-0.76,0.61-1.61,0.8-2.5c0.28-0.47,0.38-0.99,0.8-1.61
		c0.09-0.47,0.38-0.9,0.47-1.37c0.52-0.76,0.94-1.65,1.46-2.36c0.38-0.47,0.8-1.13,1.27-1.61c0.19-0.47,0.47-0.8,0.8-1.09
		c0.33-0.47,0.57-0.47,1.04-0.85c0.09-0.19,0.61-0.14,0.8-0.52c0.24-0.24,0.42-0.33,0.71-0.38c0.14,0,0.19-0.14,0.33-0.14
		c0.47-0.05,0.66-0.19,1.13,0.05c0.61,0.38,1.23,0.28,1.89,0.8c0.33,0.09,0.47,0.33,0.71,0.52c0.24,0.42,0.61,0.66,0.99,0.99
		l0.47,0.47c0.52,0.19,0.8,0.57,1.13,1.09l0.38,0.33c0.05,0.05,0.09,0.05,0.14,0.05c0.28-0.09,0.33,0,0.52,0.19
		c0.24,0.24,0.61,0.47,0.85,0.28c0.05,0,0.19,0.09,0.24,0.14c0.19,0.33,0.33,0.71,0.52,1.09c0.05,0.14,0.05,0.28,0.09,0.33
		c0.19,0.05,0.14,0.19,0.19,0.47c0.09,0.47,0.19,0.76,0.19,1.32c-0.09,1.13-0.24,0.71-0.09,1.42c0.09,0.14-0.28,1.84-0.28,1.94
		L334.12,33.54z M329.92,26.17c0-0.33-0.09-0.52-0.33-0.57l-0.28-0.19c-0.28,0-0.42-0.14-0.57-0.28c-0.09-0.09-0.19-0.09-0.33-0.09
		c-0.14,0.14-0.19,0.33-0.33,0.52c-0.52,0.47-0.85,0.99-1.23,1.56c-0.71,0.9-1.27,1.89-1.75,2.93c-0.24,0.33-0.42,0.76-0.57,1.13
		c0,0.14-0.19,0.38-0.33,0.52c-0.14,0.42-0.38,0.9-0.47,1.37c-0.05,0.19-0.14,0.47-0.28,0.66c-0.33,0.8-0.57,1.75-0.85,2.64
		c-0.14,0.42-0.24,0.71-0.05,1.18c0,0.05,0.09,0.09,0.14,0.09c0.09,0,0.19-0.05,0.28-0.09c0.66-0.52,1.18-0.9,1.75-1.42
		c0.38-0.28,0.8-0.66,1.04-1.23c0.09-0.09,0.28-0.19,0.42-0.38l0.38-0.38c0.76-1.09,1.56-2.03,2.03-3.07
		c0.28-0.47,0.57-1.04,0.9-1.56c0.28-0.76,0.42-1.6,0.42-2.41C329.87,26.79,329.87,26.46,329.92,26.17z"/>
	<path class="st0" d="M357.87,43.07c-0.28,0.09-0.61,0.14-0.99,0.24c-0.09,0.14-0.19,0-0.24-0.09c-0.09-0.09-0.24-0.14-0.38-0.19
		c-0.28,0-0.42,0.05-0.61,0.05c-0.05,0-0.14,0.05-0.24,0c-0.14-0.19-0.28-0.19-0.52-0.19c-0.24,0-0.47-0.14-0.8-0.24
		c-0.19-0.09-0.38-0.19-0.57-0.19c-0.33,0-0.57-0.24-0.8-0.33c-0.24-0.14-0.57-0.38-0.94-0.38c-0.42-0.33-0.99-0.66-1.27-1.09
		c-0.24-0.52-0.33-0.85-0.47-1.37c0-0.19-0.05-0.33-0.09-0.52c-0.05-0.24,0-0.47,0.24-0.71c0.14-0.19,0.28-0.38,0.47-0.57
		c0.09-0.28,0.28-0.57,0.57-0.71c0.09-0.14,0.19-0.14,0.33,0.05c0,0.05,0.05,0.05,0.05,0.09c0.05,0.05,0.05,0.09,0.14,0.05
		c0.19-0.24,0.24-0.05,0.52-0.28c0.05-0.05,0.14,0.09,0.19,0.14c0,0.19,0.28,0.05,0.38,0.24c0.05,0.19,0,0.42,0.14,0.47
		c0.24,0.09,0.42,0.19,0.71,0.14l0.71-0.09c1.04-0.28,1.94-0.66,2.93-1.13c0.57-0.28,1.09-0.61,1.6-0.99
		c0.38-0.28,0.76-0.66,0.99-1.09c0.19-0.28,0.19-0.61-0.05-0.8c-0.14-0.19-0.24-0.28-0.52-0.47c-0.19-0.24-0.42-0.33-0.66-0.42
		c-0.52-0.47-1.18-0.94-1.89-1.27c-1.13-0.8-2.08-2.08-3.07-3.02c-0.85-0.76-1.18-1.79-1.37-2.83c-0.05-0.24,0-0.38,0.09-0.52
		c0-0.19,0.05-0.33,0.09-0.57c0.05-1.18,0.76-2.22,1.65-2.88c0.71-0.66,1.42-1.18,2.22-1.56c0.71-0.28,1.42-0.8,2.27-1.09
		c1.09-0.28,2.12-0.76,3.21-0.94c0.33-0.05,0.66-0.09,0.99-0.05c0.14,0,0.28,0.05,0.38,0.09c0.57,0.19,1.09,0.47,1.61,0.76
		c0.05,0.05,0.28,0.14,0.38,0.33c0.28,0.14,0.61,0.47,0.85,0.71c0.09,0.05,0.09,0.14,0.19,0.24c0.14,0.19,0.19,0.52,0.09,0.61
		c-0.14,0.24-0.19,0.47-0.24,0.66c-0.05,0.09-0.14,0.33-0.33,0.38c-0.14,0.14-0.19,0.28-0.14,0.38c0.09,0.05,0.14,0.14,0.14,0.19
		c0,0.09-0.05,0.19-0.14,0.33c-0.19,0.19-0.38,0.33-0.61,0.33c-0.85,0-1.75,0.19-2.64,0.42c-0.76,0.28-1.46,0.57-2.12,0.9
		c-0.38,0.19-0.61,0.47-0.99,0.66c-0.33,0.19-0.66,0.42-0.94,0.8c-0.14,0.19-0.28,0.38-0.57,0.52c-0.19,0.28-0.14,0.52,0.14,0.76
		c0.19,0.09,0.33,0.24,0.57,0.33c0.47,0.28,1.13,0.57,1.6,0.8c0.94,0.47,1.61,1.18,2.41,1.89c0.52,0.47,1.04,0.99,1.42,1.46
		c0.33,0.24,0.57,0.57,0.8,0.9c0.33,0.61,0.57,1.23,0.8,1.94l0.14,0.42c0,0.71,0,1.27-0.14,1.94c-0.05,0.24-0.14,0.47-0.14,0.66
		c0,0.47-0.19,0.94-0.52,1.46c-0.42,0.76-0.99,1.27-1.61,1.84c-0.61,0.47-1.37,0.94-2.03,1.32c-0.28,0.19-0.57,0.28-0.9,0.52
		c-0.52,0.14-0.94,0.38-1.42,0.52c-0.19,0.05-0.28,0.09-0.57,0.05C358.2,43.03,358.06,43.03,357.87,43.07z"/>
	<path class="st0" d="M369.54,30.99c0.09-1.09,0.9-2.69,1.23-3.73c0.38-1.42,0.8-1.79,1.32-3.11c0.28-0.47,0.71-1.04,0.99-1.37
		l0.57-1.13c0.19-0.38,0.19-0.61,0.33-0.71c0.05-0.05,0.19-0.14,0.28-0.09c0.14,0.09,0.24,0.09,0.42-0.05
		c0.05-0.19,0.24-0.38,0.33-0.57c0.24-0.24,0.61-0.14,0.8-0.19c0.33,0,0.76,0.19,1.09,0.38c0.24,0.28,0.42,0.33,0.47,0.52
		c0.33,0.28,0.8,0.33,0.71,0.85c-0.05,0.47-0.09,1.09,0,1.56c0.05,0.47-0.05,0.85,0,1.23v0.24c-0.05,0.38-0.09,0.99-0.24,1.32
		c-0.42,0.99-0.94,1.75-1.84,4.53c-0.09,0.85-0.76,1.56-0.8,2.27c-0.05,0.47-0.19,0.8-0.19,1.23c-0.05,0.24-0.14,0.38-0.14,0.57
		c0.05,0.38-0.09,0.61-0.14,0.99c0,0.19,0,0.14,0.05,0.33c0,0.14,0.05,0.14,0.09,0.14c0.14-0.05,0.24-0.14,0.33-0.24
		c0.61-0.38,0.76-0.33,1.18-0.85c0.61-0.61,1.18-1.32,1.61-2.03c0.57-0.52,0.85-1.09,1.37-1.65c0.66-1.04,1.42-2.12,2.08-3.26
		c0.61-1.13,0.99-1.46,1.61-2.6c0.24-0.47,0.52-0.8,0.57-1.27l0.42-1.04c0.09-0.19,0.24-0.47,0.28-0.8c0-0.14,0.09-0.33,0.09-0.47
		c0.09-0.24,0.19-0.38,0.38-0.38h0.19c0.14-0.14,0.33-0.19,0.38-0.33v-0.24c0.14-0.42,0.33-0.66,0.57-0.71
		c0.24-0.05,0.57,0,0.76-0.05c0.19,0,0.33,0.05,0.57,0.24c0.28,0.33,0.61,0.47,1.09,0.61c0.19,0.09,0.19,0,0.38,0.19
		c0.28,0.52,0.71,0.99,0.99,1.65v0.24c0.38,1.13,0.42,1.13,0.09,2.08c-0.24,0.8-0.47,1.18-0.76,1.93c-0.19,0.47-0.38,0.52-0.42,1.09
		c-0.14,0.9-0.66,1.65-0.85,2.45c-0.47,1.46-0.94,2.41-1.32,3.87c-0.09,0.19-0.28,1.04-0.33,1.27c-0.14,0.42-0.14,0.8-0.28,1.09
		c-0.05,0.38-0.09,0.85-0.19,1.09l0.14,2.22c-0.09,0.28-0.19,0.42-0.28,0.61c-0.09,0.24-0.14,0.52,0,0.71v0.09
		c0,0.14-0.05,0.38-0.14,0.47c-0.24,0.05-0.38,0.05-0.42,0.05c-0.28-0.05-0.42,0.05-0.52,0.33c-0.24,0.19-0.66,0.38-0.8,0.52
		c-0.05,0.05-0.19,0-0.19-0.09c0-0.14-0.14-0.05-0.14-0.14c0.05-0.09-0.09-0.09-0.09-0.05c-0.28,0.14-0.14-0.24-0.42-0.14
		c-0.05,0.14-0.14,0.14-0.14,0.19c-0.28,0.19-0.57,0.05-0.66-0.19c0.05-0.09-0.09-0.09-0.14-0.19c-0.42-0.61-0.71-0.05-0.61-0.61
		c0-0.14-0.42-0.42-0.42-0.61c0.05-0.19-0.14-0.61-0.24-1.98c-0.05-0.28,0.14-1.37,0.09-1.51c-0.05-0.05-0.05-0.05-0.09-0.05h-0.05
		c0,0.09-0.28,0.14-0.28,0.19c-0.05,0.33-0.66,0.9-0.76,1.09l-0.8,0.76c-0.28,0.24-0.66,0.42-1.13,0.8
		c-0.47,0.38-0.94,0.47-1.56,0.57c-0.09,0.05-0.24,0.24-0.47,0.14c-0.38-0.09-0.57,0.52-0.9,0.42h-0.09
		c-0.38,0.14-0.76-0.05-1.04-0.05c-0.47-0.05-1.61-0.14-2.03-0.38c-0.28-0.19-0.61-0.24-0.85-0.47c-0.8-0.94-1.46-2.03-1.65-3.45
		c-0.19-0.99,0-0.99-0.09-2.69C368.78,33.49,369.21,32.22,369.54,30.99z"/>
	<path class="st0" d="M391.68,53.32c-0.42,0.09-0.19-0.33-0.52-0.24c-0.28,0.09-0.33,0.24-0.33,0.38c-0.05,0.05-0.05,0.19-0.05,0.24
		c-0.14,0.14,0,0.19-0.19,0.24c-0.24-0.05,0.14-0.19-0.14-0.09c-0.47,0.14-0.76,0.05-0.99-0.19c-0.24-0.05-0.33-0.09-0.38-0.19
		c-0.24-0.33-0.8-0.52-1.13-0.9c-0.09-0.09-0.19-0.24-0.09-0.52c-0.05-0.09-0.05-0.14-0.05-0.24c-0.09-0.33-0.19-0.66-0.09-1.04
		c-0.05-0.28-0.09-0.76-0.24-1.09c-0.19-0.71,0-1.37,0.09-1.94c0-1.56,0.33-1.7,0.47-3.12c-0.19-0.42,2.12-6.28,2.12-6.84
		c0.33-1.32,0.09-0.38,0.52-1.65c0.33-1.04,0.61-1.98,0.99-2.83c0.66-1.65,1.18-3.44,1.89-5.19c0.28-0.85,0.52-1.7,0.8-2.45
		c0.47-1.46,0.61-2.36,1.04-3.73c0.14-0.76,0.14-0.52,0.24-1.32c0.14-0.52,0.28-0.85,0.52-1.46c0.05-0.14,0.14-0.33,0-0.61
		c-0.09-0.24,0.47-0.19,0.38-0.47c-0.14-0.09,0-0.28,0.09-0.28c0.24-0.05,0.05-0.24,0.33-0.24c0.33,0,0.33-0.09,0.61-0.05
		c0.09,0,0.24,0.09,0.28,0.14c0.61,0.33,0.47,0.24,1.09,0.33c0.14,0,0.19,0.05,0.28,0.05c0.9,0.47,1.23,0.71,1.98,1.56
		c0.28,0.28,0.42,0.85,0.57,1.18c0.24,0.66-0.57-0.09-0.52,0.66c0.05,0.05,0.05,0.14,0,0.28c0,0.24-0.28,0.57-0.28,0.99
		c-0.05,0.05,0.09-0.05,0.14,0h0.14c0.28-0.14,0.66-0.71,0.9-0.85c0.8-0.42,1.75-1.18,2.64-1.65c0.28-0.09,0.47-0.19,0.76-0.24
		c0.05,0,0.24,0,0.33-0.05c0.8-0.33,1.37-0.33,2.12-0.38c0.66-0.05,1.13,0.05,1.79,0.19c0.09,0,0.28,0.05,0.42,0.09
		c0.14,0,0.33,0,0.42,0.09c0.14,0.19,0.42,0.33,0.66,0.42c0.33,0.09,0.47,0.19,0.66,0.28c0.33,0.14,0.71,0.47,0.9,0.85
		c0.14,0.14,0.19,0.28,0.33,0.38c0.52,0.38,0.47,0.94,0.66,1.51c0.14,0.33,0.24,0.42,0.33,0.8c0.52,0.76,0.33,1.65,0.24,2.6
		c-0.09,0.85-0.24,1.84-0.52,2.64c-0.14,0.52-0.24,1.04-0.47,1.46c-0.28,0.76-0.52,1.46-0.9,2.17c-0.24,0.24-0.33,0.24-0.38,0.57
		c-0.05,0.19-0.09,0.24-0.28,0.09c-0.05-0.09,0.09,0.47,0,0.42c-0.05-0.05-0.14-0.05-0.19,0c-0.24,0.38-0.57,0.38-0.76,0.66
		c-0.66,0.85-1.04,1.7-1.79,2.5c-0.09,0.19-0.14,0.24-0.24,0.24c-0.33,0.09-0.66,0.24-0.8,0.47c-0.14,0.28-0.24,0.47-0.57,0.52
		c-0.28,0.05-0.52,0.28-0.8,0.28c-0.09,0-0.19,0.09-0.33,0.14c-0.9,0.71-1.94,1.13-2.83,1.56c-0.42,0.19-0.71,0.19-1.09,0.14
		c-0.28-0.05-0.52-0.14-0.85-0.05c-0.57,0.05-1.27,0.05-1.94,0.05c-0.47,0-0.85-0.14-1.13-0.38c-0.19-0.05-0.38-0.28-0.42-0.42
		c-0.85-0.61-0.61-2.17-0.99-1.13c-0.05,0.09-0.28,0.8-0.28,0.94c-0.14,0.38-0.14,0.42-0.14,0.47c-0.05-0.14-0.09-0.14-0.09,0
		c-1.23,2.46-1.79,3.97-2.03,4.91c-0.14,0.57-0.24,1.09-0.47,1.65L394,46.94c-0.28,1.18-0.24,0.9-0.33,2.03
		c-0.14,0.52-0.38,1.04-0.33,1.75c0.05,0.14,0,0.28-0.19,0.47c-0.14,0.14-0.09,0.24-0.05,0.33c0.19,0.24,0.19,0.52,0,0.66
		c-0.05,0.24-0.14,0.47-0.24,0.66c0,0.05-0.09,0.14-0.14,0.09c-0.38,0-0.19-0.09-0.52-0.14c-0.38-0.19-0.42,0.05-0.52,0.28
		c0,0.09,0,0.09,0,0.09V53.32z M399.14,34.06c0,0.09-0.52,1.42-0.42,1.46c0.42,0.28,0.8,0.28,1.18,0c0.57-0.14,1.18-0.42,1.7-0.71
		c0.33-0.09,0.66-0.05,0.9-0.38c0.24-0.47,0.47-0.47,0.76-0.71c0.33-0.14,0.57-0.33,0.76-0.47c0.33-0.24,0.57-1.04,0.99-1.18
		c0.38-0.38,0.8-0.61,1.09-1.13c0.33-0.47,0.71-0.9,1.09-1.37c0.47-0.47,0.71-1.13,1.04-1.75c0.05-0.14,0.14-0.33,0.28-0.52
		c0.28-0.85,0.57-1.61,0.61-2.45c0.05-0.38-0.05-0.61-0.38-0.57l-0.66,0.19c-0.8,0.24-1.51,0.52-2.22,1.18
		c-0.28,0.19-0.47,0.24-0.71,0.33l-0.24,0.14c-0.9,0.94-1.89,1.75-2.5,2.83L399.14,34.06z M410.89,49.45c0-0.47,0.05-0.94,0.09-1.51
		c0.28-1.42,0.61-2.83,0.94-4.15c0.28-0.99,0.14-1.13,0.47-2.12c0.33-0.9-0.09-0.14,0.24-1.13c0.42-1.23,0.71-2.31,1.09-3.49
		c0.38-0.8,0.33-0.61,0.52-1.42c0.76-1.65,1.18-3.35,1.79-5.05c0.28-0.76,0.42-1.51,0.71-2.31c0.24-0.57,0.61-1.18,0.8-1.79
		l0.47-1.32c0.38-1.13,0.71-2.31,1.09-3.59l0.09-0.57c-0.66-0.8,1.13-2.97,1.84-2.22c0.57,0.05,0.9,0.38,1.46,0.47
		c0.57,0.14,1.18,0.38,1.7,0.85c0.14,0.05,0.28,0.14,0.38,0.24c0.57,0.24,0.85,0.76,1.04,1.27c0.09,0.09-0.09,0.57-0.05,0.66
		c0.14,0.24,0.38,0.33,0.61,0.19c0.19-0.05,0.47-0.38,0.57-0.57l0.9-0.42c0.85-0.57,1.84-0.85,2.79-1.09
		c0.61-0.14,1.09-0.19,1.65-0.19c0.14,0,0.28,0.05,0.38,0.05c0.71,0.09,1.32,0.28,1.94,0.57c0.52,0.38,0.94,0.71,1.51,0.85
		l0.09,0.05c0.33,0.47,0.61,0.76,1.04,1.13c0.24,0.28,0.42,0.61,0.61,0.9c0.38,0.61,0.66,1.13,0.71,1.89c0,0.38,0.05,0.61,0.05,0.94
		c0.05,0.19,0,0.47-0.19,0.61c-0.09,0.19-0.19,0.33-0.19,0.47c-0.05,0.14-0.05,0.38-0.14,0.52c-0.05,0.33-0.05,0.66-0.14,0.99
		c0,0.09-0.09,0.28-0.19,0.33c-0.33,0.28-0.42,0.76-0.66,1.18c-0.38,1.09-0.85,1.98-1.46,2.83c-0.09,0.28-0.33,0.57-0.52,0.8
		c-0.05,0.05-0.19,0.14-0.24,0.14c-0.33,0.14-0.47,0.42-0.61,0.71l-1.32,1.32c-0.19,0.28-0.52,0.47-0.9,0.61
		c-0.05,0.05-0.14,0-0.19-0.05c-0.05-0.05-0.09,0.14-0.09,0.14c-0.28,0.19-0.52,0.24-0.8,0.47c-0.24,0.38-0.47,0.42-0.76,0.61
		c-0.19,0.05-0.38,0.05-0.52,0.14c-0.28,0.14-0.61,0.33-0.94,0.61c-0.71,0.42-1.46,0.38-2.22,0.66c-0.33,0.24-0.71,0.47-0.99,0.28
		c-0.09,0-1.46,0.09-1.51,0.14c-1.09,0.24-2.69-1.27-2.74-1.46c-0.24-0.05-0.47-0.05-0.71-0.14c0,0.05,0,0.14-0.05,0.24
		c-0.09,0.24-0.19,0.42-0.28,0.52c-0.66,0.76-0.57,1.56-0.94,2.41c-0.47,0.99-0.05,0.28-0.57,1.32c-0.19,0.38-0.28,0.76-0.38,1.18
		c-0.14,0.28-0.24,0.57-0.38,0.9c-0.33,0.66-0.52,1.42-0.71,2.17c-0.28,0.76-0.47,1.51-0.61,2.41c-0.24,1.27-0.33,0.99-0.24,2.17
		v0.28c0,0.09-0.05,0.14-0.14,0.14c-0.09,0-0.14,0.33-0.14,0.42v0.14c0,0.24-0.14,0.33-0.38,0.33h-0.19
		c-0.28-0.05-0.52-0.19-0.71-0.47c0-0.05-0.05-0.05-0.05-0.05c-0.05,0-0.05,0.05-0.05,0.09c-0.05,0.19,0,0.28-0.05,0.38
		c0,0.09-0.09,0.14-0.19,0.14c-0.19-0.05-0.28-0.05-0.38,0.05c-0.42,0.33-0.9,0-1.27,0.28c-0.99,0-0.94-1.46-1.23-1.75
		c-0.09-0.05-0.19-0.09-0.19-0.14c-0.28-0.38-0.28-0.66-0.33-1.18c-0.05-0.38,0.05-0.24-0.05-0.71
		C410.94,49.73,410.94,49.59,410.89,49.45z M422.03,35.76c0.09,0.05,0.19,0,0.28,0c0.24,0,0.28-0.14,0.33,0.05
		c0.05,0.14,0.14,0.05,0.19,0.19l0.33,0.19c0.24,0-0.09-0.24,0.05-0.24h0.24c0.33-0.14,1.56-0.42,1.89-0.57
		c0.38-0.09,0.85-0.05,1.13-0.38c0.61-0.47,1.23-0.71,1.79-1.18c0.61-0.38,0.94-0.76,1.42-1.23c0.28-0.24,0.52-0.47,0.66-0.76
		c0.09-0.09,0.28-0.28,0.33-0.52c0.05-0.24,0.38-0.47,0.52-0.61c0.28-0.47,0.42-0.76,0.8-1.23c0.61-0.94,0.76-1.42,1.09-2.5
		c0.05-0.24,0.05-0.42,0.05-0.61c0-0.24-0.05-0.19-0.05-0.38c-0.05-0.57,0.09-0.33-0.28-0.71c-0.05-0.09,0.33-0.19,0.19-0.19h-0.28
		c-0.47,0.09-1.04-0.24-1.42,0.05c-0.8,0.38-1.42,0.57-2.03,1.18c-0.9,0.76-1.75,1.32-2.64,2.17l-0.57,0.71l-0.42,0.47
		c-0.66,0.71-0.99,1.32-1.56,2.12c-0.57,0.8-1.04,1.61-1.51,2.46c-0.24,0.47-0.42,0.57-0.61,0.99l-0.28,0.52H422.03z"/>
	<path class="st0" d="M455.99,33.54c-0.66,1.23-1.27,2.45-2.22,3.63c-0.28,0.52-0.8,1.04-1.13,1.46c-0.09,0.09-0.24,0.24-0.28,0.38
		c-0.47,0.71-0.99,1.13-1.51,1.65c-0.38,0.33-0.9,0.8-1.61,1.13c-0.47,0.19-0.94,0.47-1.51,0.71c-0.19,0.05-0.33,0.09-0.61,0.09
		c-0.38-0.09-0.61,0-1.04,0.05c0,0.09,0,0-0.05,0c-0.9,0.33-1.84,0.28-2.79,0.19c-0.57-0.05-1.04-0.24-1.56-0.57
		c-0.24-0.05-0.38-0.24-0.52-0.33c-0.33-0.05-2.17-1.27-2.27-3.73c-0.05-0.42-0.05-0.71-0.05-1.09c0,0.14,0.05-1.56,0.05-1.94
		c-0.05-0.47,0-0.9,0.14-1.32c0.09-0.52,0.19-1.04,0.24-1.61c0.38-0.76,0.61-1.61,0.8-2.5c0.28-0.47,0.38-0.99,0.8-1.61
		c0.09-0.47,0.38-0.9,0.47-1.37c0.52-0.76,0.94-1.65,1.46-2.36c0.38-0.47,0.8-1.13,1.27-1.61c0.19-0.47,0.47-0.8,0.8-1.09
		c0.33-0.47,0.57-0.47,1.04-0.85c0.09-0.19,0.61-0.14,0.8-0.52c0.24-0.24,0.42-0.33,0.71-0.38c0.14,0,0.19-0.14,0.33-0.14
		c0.47-0.05,0.66-0.19,1.13,0.05c0.61,0.38,1.23,0.28,1.89,0.8c0.33,0.09,0.47,0.33,0.71,0.52c0.24,0.42,0.61,0.66,0.99,0.99
		l0.47,0.47c0.52,0.19,0.8,0.57,1.13,1.09l0.38,0.33c0.05,0.05,0.09,0.05,0.14,0.05c0.28-0.09,0.33,0,0.52,0.19
		c0.24,0.24,0.61,0.47,0.85,0.28c0.05,0,0.19,0.09,0.24,0.14c0.19,0.33,0.33,0.71,0.52,1.09c0.05,0.14,0.05,0.28,0.09,0.33
		c0.19,0.05,0.14,0.19,0.19,0.47c0.09,0.47,0.19,0.76,0.19,1.32c-0.09,1.13-0.24,0.71-0.09,1.42c0.09,0.14-0.28,1.84-0.28,1.94
		L455.99,33.54z M451.79,26.17c0-0.33-0.09-0.52-0.33-0.57l-0.28-0.19c-0.28,0-0.42-0.14-0.57-0.28c-0.09-0.09-0.19-0.09-0.33-0.09
		c-0.14,0.14-0.19,0.33-0.33,0.52c-0.52,0.47-0.85,0.99-1.23,1.56c-0.71,0.9-1.27,1.89-1.75,2.93c-0.24,0.33-0.42,0.76-0.57,1.13
		c0,0.14-0.19,0.38-0.33,0.52c-0.14,0.42-0.38,0.9-0.47,1.37c-0.05,0.19-0.14,0.47-0.28,0.66c-0.33,0.8-0.57,1.75-0.85,2.64
		c-0.14,0.42-0.24,0.71-0.05,1.18c0,0.05,0.09,0.09,0.14,0.09c0.09,0,0.19-0.05,0.28-0.09c0.66-0.52,1.18-0.9,1.75-1.42
		c0.38-0.28,0.8-0.66,1.04-1.23c0.09-0.09,0.28-0.19,0.42-0.38l0.38-0.38c0.76-1.09,1.56-2.03,2.03-3.07
		c0.28-0.47,0.57-1.04,0.9-1.56c0.28-0.76,0.42-1.6,0.42-2.41C451.74,26.79,451.74,26.46,451.79,26.17z"/>
	<path class="st0" d="M469.02,22.54c0,0.05,0.05,0.09,0.09,0.14c0,0.05,0.09,0.05,0.19,0.05l0.14-0.14
		c0.19-0.09,0.09-0.14,0.24-0.19c0.71-0.61,0.42-0.42,1.09-0.71c0.61-0.38,1.23-0.42,1.84-0.52c0.28-0.19,0.66-0.28,0.94-0.19
		c0,0,0.19,0,0.28,0.14c0.71,0.09,1.79,0.38,2.08,0.71l0.19,0.05c0.05,0.14,0.28,0.33,0.19,0.38c-0.09,0.19,0,0.19,0,0.33
		c0,0.05,0.05,0.19,0.09,0.28c0.05,0.24,0,0.42,0,0.71c0.09,0.33-1.04,0.94-1.46,1.09c-0.09,0.05-0.28,0.05-0.38,0.05
		c-0.19,0.09-0.38,0.09-0.52,0.09c-0.42,0.05-0.8,0.14-1.09,0.47c-0.8,0.42-0.76,0.52-1.56,1.13c0,0-0.09,0.05-0.14,0.09
		c-0.42,0.47-0.85,1.04-1.27,1.65c-0.14,0.24-0.47,0.42-0.57,0.52c-0.28,0.38-0.38,0.57-0.52,0.85c-0.47,0.52-0.8,1.09-1.18,1.61
		l-0.85,1.32c-0.42,0.61-0.57,0.71-0.85,1.37c0,0.19-0.28,0.47-0.28,0.57c-0.24,0.66-0.99,1.98-1.18,2.45
		c-0.33,0.47-0.19,1.37-0.38,1.79c-0.05,0.38-0.14,0.57-0.28,0.8c-0.14,0.42-0.66-0.24-0.61,0.05c0.09,0.14,0.05,0.33,0.09,0.52
		c-0.05,0.28-0.14,0.57-0.38,0.85c-0.42,0.24-0.85,0.38-1.27,0.42c-0.42,0-0.85,0.42-1.32,0.66c-0.28,0.05-0.71,0.05-1.04-0.14
		c-0.19,0.14-0.33-0.05-0.38-0.19c-0.05-0.05-0.24-0.05-0.33-0.09c-0.24-0.09-0.38-0.33-0.57-0.42c-0.33-0.38,0.14-2.03,0.19-2.41
		c0-0.66,0.19-1.32,0.38-1.94c0.42-1.27,0.61-2.45,0.94-3.54c0.38-1.04,0.66-2.41,1.04-3.35c0.14-0.38,0.42-0.99,0.57-1.42
		c0.14-0.38,0.19-0.8,0.28-1.09c0.61-1.23,0.76-2.17,1.23-3.4c0.24-0.42,0.42-0.76,0.61-1.32c0.19-0.33,0.33-0.71,0.33-1.09V20.7
		c-0.09-0.14-0.14-0.28-0.09-0.42l0.14-0.24c0.24-0.09,0.42-0.14,0.52-0.24c0.19,0,0.33-0.05,0.24-0.24c0-0.33,0.24-0.57,0.57-0.66
		c0.42-0.24,0.99-0.47,1.61-0.47c0.66-0.05,0.94,0.05,1.42,0.33c0.09,0.09,0.28,0.14,0.38,0.24c0.05,0,0.19,0.14,0.24,0.24v0.09
		c0.38,0.8,0.38,0.8,0.42,1.89C469.07,21.64,469.07,22.21,469.02,22.54z"/>
	<path class="st0" d="M478,19.94c0.52,0.05,1.13,0,1.65-0.24c0.76-0.05,1.46-0.38,2.17-0.57c0.19,0,0.33-0.09,0.38-0.24
		c0.24-0.76,0.57-0.94,0.76-1.7l0.33-0.57c0.38-0.85,0.85-1.65,1.13-2.5l2.93-6.04l0.09-0.19c0.14-0.28,0.05-0.52,0-0.71
		c-0.09-0.33,0-0.57,0.33-0.71c0.14-0.05,0.28,0.05,0.47,0.09c0.09,0.05,0.14,0.14,0.19,0c0.24-0.09,0.33-0.19,0.42-0.33
		c0-0.05,0.05-0.09,0.09-0.09c0.05-0.05,0.14-0.09,0.19-0.05c0.42,0.05,0.76,0.05,1.18,0.19l0.8,0.24c0.61,0.05,0.9,0.47,1.09,0.85
		c0.24,0.33,0.42,0.66,0.47,0.94l0.33,1.09c0.14,0.42,0.19,0.8,0.24,1.18c0,0.14,0,0.24-0.05,0.33c-0.05,0.52-0.19,1.04-0.38,1.56
		c-0.38,1.04-0.8,2.17-1.37,3.07c-0.47,0.94-0.71,1.32-1.04,2.27c-0.05,0.09-0.38,0.33-0.24,0.33c0.57,0,1.09,0,1.75-0.09
		c0.33,0,0.28,0.05,0.76,0.09c1.18,0.05,0.38,0.05,1.56,0.38c0.14,0.09,0.33,0.09,0.42,0.14c0.24,0.09,0.28,0.38,0.24,0.57
		c-0.09,0.38,0.14,0.47,0,0.57h-0.09c-0.71,0,0.24,0.33-0.24,0.61c-0.05,0.09-0.24,0.24-0.38,0.33l-0.47,0.47
		c-0.14,0.09-0.14,0.24,0,0.47c0.14,0.28,0.09,0.47-0.14,0.66c0,0.14-0.14,0.38-0.28,0.42c-0.14,0.14-0.24,0.19-0.42,0.19
		c-0.24,0-0.09,0.09-0.42,0.09c-0.19,0-0.33,0-0.42,0.09c-0.33,0.24-0.9-0.05-1.18,0.09c-0.38,0.09-0.66,0.19-0.99,0.24
		c-0.71,0.09-1.09,0.38-1.79,0.47c-0.14,0.09-0.24,0.24-0.28,0.38c-0.05,0.47-0.57,0.8-0.8,1.23c-0.05,0.09-0.05,0.24-0.09,0.28
		c-0.42,0.94-0.9,2.17-1.18,3.16c-0.42,0.94-0.9,1.84-1.23,2.78c-0.28,0.8-0.66,1.7-0.76,2.46c-0.19,0.38-0.38,0.66-0.47,1.09
		c-0.09,0.61-0.42,1.27-0.47,1.84c0,0.33,0,0.61-0.28,0.85c-0.05,0.05-0.09,0.05-0.09,0.09c-0.05,0.42-0.19,0.71-0.19,1.04
		c0,0.38-0.14,0.61-0.28,0.8c-0.05,0.14-0.05,0.33-0.05,0.52c0.05,0.19,0,0.42-0.05,0.61c-0.05,0.09-0.05,0.33,0,0.42
		c0.05,0.28,0,0.57,0.33,0.9c0.05,0.05,0.05,0.09,0.05,0.09c0.09,0.14,0.05,0.33-0.09,0.47c-0.19,0.09-0.33,0.19-0.66,0.09
		c-0.09,0-0.24-0.05-0.38,0.05c-0.19,0.14-0.33,0.33-0.52,0.38c-0.24,0.14-0.47,0-0.57,0.24c-0.05,0.09-0.19,0.09-0.42,0
		c-0.09-0.05-0.19-0.05-0.33,0c-0.14,0.09-0.24,0.05-0.33-0.05c-0.33-0.19-0.42,0-0.57-0.24c-0.19-0.24-0.47-0.33-0.66-0.52
		c-0.42-0.42-0.8-1.04-1.09-1.7c-0.33-0.61-0.38-1.46-0.24-2.22c-0.05-0.38-0.05-0.94,0.09-1.32c0-0.47,0.09-0.85,0.09-1.23
		c0-0.9,0.14-1.61,0.52-2.6c0.09-0.66,0.14-1.56,0.38-2.27l0.14-0.57c0.42-1.04,0.76-2.03,1.13-3.02c0.19-0.33,0.28-0.66,0.42-0.94
		c0.14-0.71,0.33-1.18,0.8-1.89c0-0.05,0.05-0.09,0.05-0.14c0.05-0.42,0.28-0.9-0.05-0.85c-0.19,0-0.57,0.09-0.76,0.09
		c-0.28,0.05-0.66,0.14-0.9-0.09c-0.14-0.09-0.28-0.09-0.42-0.09c-0.47-0.09-0.85-0.19-1.32-0.19c-0.42-0.05-0.76-0.42-0.99-0.9
		c-0.05-0.24-0.19-0.38-0.28-0.66c0-0.09-0.09-0.19-0.05-0.28c0.05-0.14,0.05-0.28-0.09-0.42c-0.05-0.05-0.05-0.19-0.14-0.24
		c-0.09-0.19,0-0.52,0.28-0.52c0.24-0.05,0.52-0.05,0.8-0.05c0.24-0.05,0.38-0.14,0.38-0.47l0.14-0.28
		c0.14-0.05,0.28-0.09,0.38-0.09c0.19,0,0.52,0.05,0.8-0.05H478z"/>
</g>
</svg>
