<?xml version="1.0" encoding="UTF-8"?>
<svg id="Layer_1" data-name="Layer 1" xmlns="http://www.w3.org/2000/svg" width="222" height="222" xmlns:xlink="http://www.w3.org/1999/xlink" viewBox="0 0 222 222">
  <defs>
    <clipPath id="clippath">
      <circle cx="-134.19" cy="356.19" r="106.47" style="fill: none; stroke-width: 0px;"/>
    </clipPath>
    <clipPath id="clippath-1">
      <circle cx="-134.19" cy="111" r="106.47" style="fill: none; stroke-width: 0px;"/>
    </clipPath>
    <clipPath id="clippath-2">
      <circle cx="111" cy="111" r="106.47" style="fill: none; stroke-width: 0px;"/>
    </clipPath>
  </defs>
  <g style="clip-path: url(#clippath);">
    <rect x="-318.72" y="219.2" width="344.85" height="336.47" style="fill: #d4e9eb; stroke-width: 0px;"/>
    <rect x="-11.24" y="189.56" width="119.87" height="296.6" style="fill: #c9c9c9; stroke-width: 0px;"/>
  </g>
  <g style="clip-path: url(#clippath-1);">
    <rect x="-318.72" y="-25.99" width="344.85" height="336.47" style="fill: #d4e9eb; stroke-width: 0px;"/>
    <g>
      <g>
        <path d="m-139.63,46.44s0-2.35-4.7-3.53-20.56,7.64-26.44,12.34c-5.88,4.7-10.58,24.68-14.1,34.08-2.41,6.42-17.04,34.67-8.81,55.82,8.23,21.15,97.53,130.44,121.03,133.96,23.5,3.53,65.22-8.81,74.62-40.54,9.4-31.73,4.32-65.77-47-101.06-56.4-38.78-51.12-69.92-63.46-82.26-6.49-6.49-16.45-12.93-21.15-12.93s-9.99,4.11-9.99,4.11Z" style="fill: #ff6b00; stroke-width: 0px;"/>
        <path d="m-9.8,259.46c-.09,0-.19-.02-.28-.07-.29-.15-.39-.51-.24-.8,1.22-2.29,29.41-56.59-16.27-91.82-61.15-47.17-68.25-69.4-74.51-89.01-1.35-4.22-2.62-8.2-4.4-12.28-4.16-9.53-22.82-21.03-29.14-20.79-1.26.06-1.44.59-1.49.77-.1.31-.43.48-.74.37-.31-.1-.47-.44-.37-.74.22-.67.85-1.49,2.56-1.57,6.74-.28,25.87,11.41,30.27,21.49,1.8,4.13,3.08,8.15,4.44,12.39,6.21,19.45,13.25,41.48,74.11,88.44,46.45,35.83,17.83,90.98,16.59,93.31-.11.2-.31.31-.52.31Z" style="fill: #f2460a; stroke-width: 0px;"/>
      </g>
      <g>
        <path d="m-36.42,269.37s17.44-40.64,19.35-44.42c3.39-6.69,10.16-25.98,14.45-35.73,4.34-9.86,19.18-3.74,14.84,8.59-.13.37-7.18,25.1-8.02,28.83-4,17.75-6.26,43.93-12.3,56.81-8.28,17.65-18.73,24.73-21,25.36s-5.78.33-10.83-12.41c-5.46-13.76,3.52-27.03,3.52-27.03Z" style="fill: #ffbcab; stroke-width: 0px;"/>
        <path d="m-4.04,186.75s-.78-2.74-.8-3.68c-.04-2.4.86-6.87,5.25-9.39,4.16-2.39,8.5-3.95,11.83-7.26.26-.21.52-.43.77-.65,1.76-1.58,3.24-3.54,4.81-5.85.28-.32.57-.64.86-.96,1.15-1.28,2.34-2.58,3.58-3.88.35-.32.7-.63,1.04-.92,1.74-1.44,4.14-2.66,5.73.21.17.31.3.94.21,1.25-.45,4.42-5.12,7.44-8.12,10.53-1.34,1.55-.67,2.71-.63,2.91.27,0,.8.88,4.29-.27,5.64-2.5,9.57,2.24,14.57,2.84.56.07,1.13.08,1.71.03.3.04.6.06.9.07,2.62.61,5.19-.01,7.68-.02.41,0,.83.01,1.24.05,1.05-.36,1.87-.11,2.59.44.18.14,1.8,1.63,2.07,1.81,2.56,1.56,5.95.61,9.31.17.29.01.57.05.84.12,1.64.4,6.33,1.18,2.66,4.46-.84.75-5.49,1.83-5.97,1.95-2.71.51-9.1,2.43-9.5,2.56-4.05,1.29-8.51,3.11-13,2.77-.63.11-10.22,2.66-14.07,3.9-1.05.44-5.91,2.99-6.26,3.19-18.83,10.97-23.6-6.38-23.6-6.38Z" style="fill: #ffbcab; stroke-width: 0px;"/>
      </g>
    </g>
  </g>
  <g style="clip-path: url(#clippath-2);">
    <rect x="-73.53" y="-25.99" width="344.85" height="336.47" style="fill: #d4e9eb; stroke-width: 0px;"/>
    <g>
      <g>
        <path d="m105.56,46.44s0-2.35-4.7-3.53-20.56,7.64-26.44,12.34c-5.88,4.7-10.58,24.68-14.1,34.08-2.41,6.42-17.04,34.67-8.81,55.82,8.23,21.15,97.53,130.44,121.03,133.96,23.5,3.53,65.22-8.81,74.62-40.54,9.4-31.73,4.32-65.77-47-101.06-56.4-38.78-51.12-69.92-63.46-82.26-6.49-6.49-16.45-12.93-21.15-12.93s-9.99,4.11-9.99,4.11Z" style="fill: #ff6b00; stroke-width: 0px;"/>
        <path d="m235.39,259.46c-.09,0-.19-.02-.28-.07-.29-.15-.39-.51-.24-.8,1.22-2.29,29.41-56.59-16.27-91.82-61.15-47.17-68.25-69.4-74.51-89.01-1.35-4.22-2.62-8.2-4.4-12.28-4.16-9.53-22.82-21.03-29.14-20.79-1.26.06-1.44.59-1.49.77-.1.31-.43.48-.74.37-.31-.1-.47-.44-.37-.74.22-.67.85-1.49,2.56-1.57,6.74-.28,25.87,11.41,30.27,21.49,1.8,4.13,3.08,8.15,4.44,12.39,6.21,19.45,13.25,41.48,74.11,88.44,46.45,35.83,17.83,90.98,16.59,93.31-.11.2-.31.31-.52.31Z" style="fill: #f2460a; stroke-width: 0px;"/>
        <path d="m195.46,279.7c-.24,0-.46-.14-.55-.37-.12-.3.03-.64.33-.76,12.32-4.79,28.6-25.95,32.28-48.66,2.2-13.62.81-33.18-18.34-49.05-56.54-46.85-63.28-75.68-68.2-96.74-1.42-6.06-2.64-11.3-4.82-16.29-4.32-9.91-25.75-20.26-30.96-18.93-.78.2-.86.61-.82,1.02.03.32-.21.61-.53.64-.31.02-.61-.21-.64-.53-.1-1.13.52-1.96,1.7-2.26,5.57-1.42,27.72,9.03,32.33,19.6,2.22,5.09,3.51,10.63,4.88,16.49,4.89,20.89,11.58,49.51,67.81,96.1,19.58,16.22,21,36.22,18.75,50.14-1.76,10.85-6.46,22.14-13.25,31.79-6.2,8.83-13.41,15.31-19.76,17.78-.07.03-.14.04-.21.04Z" style="fill: #f2460a; stroke-width: 0px;"/>
        <path d="m153.41,262.08c-2.92,0-5.83-.39-8.65-1.21-.31-.09-.49-.42-.4-.73.09-.31.42-.49.73-.4,14.15,4.09,30.47-2.81,40.58-17.17,10.06-14.28,14.7-38.02-2.44-61.83-39.67-55.08-42.61-73.77-44.97-88.8-.91-5.77-1.69-10.76-4.44-17.07-4.13-9.48-27.83-19.62-34.08-17.65-1.06.33-1.44.96-1.23,2.03.06.32-.14.63-.46.69-.3.07-.63-.14-.69-.46-.33-1.66.39-2.86,2.03-3.38,6.83-2.14,31.15,8.29,35.51,18.3,2.81,6.45,3.65,11.75,4.53,17.36,2.34,14.9,5.26,33.44,44.76,88.29,17.51,24.31,12.74,48.58,2.45,63.19-8.4,11.92-20.98,18.83-33.22,18.83Z" style="fill: #f2460a; stroke-width: 0px;"/>
        <path d="m61.5,162.19c-.19,0-.38-.09-.49-.26-7.07-10.61-.83-35.73,3.46-47.53,1.71-4.7,2.16-10.35,2.63-16.34.83-10.51,1.69-21.38,9.24-29.68.22-.24.59-.26.83-.04.24.22.26.59.04.83-7.28,8-8.12,18.67-8.94,28.99-.48,6.07-.93,11.8-2.7,16.65-4.22,11.61-10.4,36.26-3.59,46.48.18.27.11.63-.16.81-.1.07-.21.1-.33.1Z" style="fill: #f2460a; stroke-width: 0px;"/>
        <path d="m92.15,207.01c-.19,0-.52-.06-.49-.26,4.22-25.44-27.34-58.16-21.33-87.58.56-2.72.89-5.57,1.2-8.59.87-8.62,1.86-18.38,10.69-28.1.22-.24.59-.26.83-.04.24.22.26.59.04.83-8.57,9.43-9.54,18.99-10.39,27.43-.31,3.06-.72,5.93-1.22,8.73-5.8,32.85,27.66,62.47,21.16,86.68-.08.31.11.63-.16.81-.1.07-.21.1-.33.1Z" style="fill: #f2460a; stroke-width: 0px;"/>
        <path d="m117.65,224.25c-.19,0-.51-.06-.49-.26,4.61-36.09-22.29-67.64-24.92-69.87-5.76-4.87-11.72-9.9-12.53-25.39-.57-10.86-.19-20.65,3.55-33.1.09-.31.42-.49.73-.39.31.09.49.42.39.73-3.69,12.29-4.07,21.96-3.5,32.7.79,14.98,6.29,19.63,12.12,24.56,2.69,2.27,30.17,32.16,25.14,70.11-.04.32.11.63-.16.81-.1.07-.21.1-.33.1Z" style="fill: #f2460a; stroke-width: 0px;"/>
      </g>
      <g>
        <path d="m62.52,241.84c6.99-16.3,10.96-25.92,12.8-31.02,4.02-11.13,6.51-15.37,9.03-22.73,2.87-8.4-1.19-22.7-11.55-23.22-10.26-.52-17.63,3.53-22.33,12.93-4.7,9.4-14.1,42.3-16.45,47s-19.98,42.3-19.98,42.3c0,0-9.6,20.62-3.82,33.62,3.68,8.28,12.01,7.04,17.62,3.44,6.28-4.01,9.71-12.38,16.76-24.13,7.05-11.75,17.89-37.84,17.92-38.19Z" style="fill: #ffbcab; stroke-width: 0px;"/>
        <path d="m25.76,269.37s-16.87-40.88-18.73-44.68c-3.29-6.74-9.79-26.12-13.95-35.93-4.2-9.92-19.12-4.01-14.95,8.38.12.37,6.83,25.2,7.62,28.94,3.75,17.8,5.65,44.01,11.51,56.98,8.03,17.77,18.39,24.99,20.64,25.65s5.77.41,11-12.25c5.65-13.68-3.14-27.07-3.14-27.07Z" style="fill: #ffbcab; stroke-width: 0px;"/>
      </g>
      <g>
        <path d="m171.16,241.84c-6.99-16.3-10.96-25.92-12.8-31.02-4.02-11.13-6.51-15.37-9.03-22.73-2.87-8.4,1.19-22.7,11.55-23.22,10.26-.52,17.63,3.53,22.33,12.93s14.1,42.3,16.45,47,19.98,42.3,19.98,42.3c0,0,9.6,20.62,3.82,33.62-3.68,8.28-12.01,7.04-17.62,3.44-6.28-4.01-9.71-12.38-16.76-24.13-7.05-11.75-17.89-37.84-17.92-38.19Z" style="fill: #ffbcab; stroke-width: 0px;"/>
        <path d="m208.77,269.37s17.44-40.64,19.35-44.42c3.39-6.69,10.16-25.98,14.45-35.73,4.34-9.86,19.18-3.74,14.84,8.59-.13.37-7.18,25.1-8.02,28.83-4,17.75-6.26,43.93-12.3,56.81-8.28,17.65-18.73,24.73-21,25.36s-5.78.33-10.83-12.41c-5.46-13.76,3.52-27.03,3.52-27.03Z" style="fill: #ffbcab; stroke-width: 0px;"/>
      </g>
      <path d="m167.76,292.66c-11.6-20.26-11.79-6.52,2.55-65.54,3.86-15.89,23.59-57.45-6.21-62.74-.59-.11-7.88-1.55-11.22-2.75-9.24-3.32-15.14-6.56-16.49-7.92-3.87-3.87-2.67-40.7-2.67-40.7,0,0-8.56-2.17-18.67-1.86-10.11-.31-18.67,1.86-18.67,1.86,0,0,1.2,36.83-2.67,40.7-1.35,1.35-7.26,4.6-16.49,7.92-3.34,1.2-10.63,2.65-11.22,2.75-29.8,5.29-10.23,46.89-6.21,62.74,15.74,61.93,13.22,48.76,2.29,66.45,16.76,7.76,39.34,15.77,51.87,15.77,13.02,0,36.89-8.66,53.8-16.68Z" style="fill: #ffbcab; stroke-width: 0px;"/>
      <g>
        <path d="m113.95,229.49s-34.44-6.26-36.79-32.11c-1.38-15.15,1.97-31.02,7.42-39.63-3.38,1.48-6.82,2.87-9.59,3.88-3.64,11.41-8.71,26.96-10.17,29.87-2.35,4.7-11.16,24.68-8.81,35.25,2.35,10.58,10.58,18.8,24.68,19.98,14.1,1.18,33.45-11.6,33.45-11.6l-.19-5.64Z" style="fill: #fcf5ec; stroke-width: 0px;"/>
        <path d="m113.95,229.49s34.41-6.26,36.76-32.11c1.38-15.15-1.97-31.02-7.42-39.63,3.38,1.48,6.82,2.87,9.59,3.88,3.64,11.41,8.71,26.96,10.17,29.87,2.35,4.7,11.16,24.68,8.81,35.25s-10.58,18.8-24.68,19.98c-14.1,1.18-33.04-11.6-33.04-11.6l-.19-5.64Z" style="fill: #fcf5ec; stroke-width: 0px;"/>
      </g>
      <g>
        <path d="m110.96,175.69c-.25,0-.49-.08-.7-.24-4.51-3.39-8.92-5.64-15.75-5.64-.65,0-1.18-.53-1.18-1.18s.53-1.18,1.18-1.18c7.92,0,12.92,2.94,17.16,6.11.52.39.63,1.13.24,1.64-.23.31-.58.47-.94.47Z" style="fill: #f2a891; stroke-width: 0px;"/>
        <path d="m121.33,175.69c.25,0,.49-.08.7-.24,4.51-3.39,8.92-5.64,15.75-5.64.65,0,1.18-.53,1.18-1.18s-.53-1.18-1.18-1.18c-7.92,0-12.92,2.94-17.16,6.11-.52.39-.63,1.13-.24,1.64.23.31.58.47.94.47Z" style="fill: #f2a891; stroke-width: 0px;"/>
      </g>
      <g>
        <g>
          <path d="m136.28,102.4c2.35-23.5-37.6-38.78-37.6-38.78,0,0-6.86,4.14-14.1,9.4-6.46,4.7-7.05,16.45-9.99,22.33-2.1,4.2,4.11,12.93,4.11,16.45s0,12.93,5.88,18.8c5.88,5.88,14.86,12.11,16.45,12.93,11.97,6.12,17.17-.28,24.42-9.68,8.27-10.73,10.11-24.22,10.83-31.45Z" style="fill: #f2a891; stroke-width: 0px;"/>
          <path d="m134.67,101.23c2.35-23.5-37.6-38.78-37.6-38.78,0,0-6.86,4.14-14.1,9.4-6.46,4.7-7.05,16.45-9.99,22.33-2.1,4.2,4.11,12.93,4.11,16.45s0,12.93,5.88,18.8c5.88,5.88,14.86,12.11,16.45,12.93,11.97,6.12,17.17-.28,24.42-9.68,8.27-10.73,10.11-24.22,10.83-31.45Z" style="fill: #ffbcab; stroke-width: 0px;"/>
          <ellipse cx="117.24" cy="96.45" rx="3.19" ry="4.11" transform="translate(-17.65 26.8) rotate(-12.13)" style="fill: #4c271a; stroke-width: 0px;"/>
          <ellipse cx="88.27" cy="103.59" rx="3.18" ry="4.11" transform="translate(-24.54 27.46) rotate(-15.55)" style="fill: #4c271a; stroke-width: 0px;"/>
          <ellipse cx="89.44" cy="102.42" rx="1.31" ry="1.69" transform="translate(-11.12 10.9) rotate(-6.57)" style="fill: #fcf5ec; stroke-width: 0px;"/>
          <ellipse cx="118.82" cy="95.36" rx="1.31" ry="1.69" transform="translate(-10.12 14.21) rotate(-6.57)" style="fill: #fcf5ec; stroke-width: 0px;"/>
          <path d="m101.57,121.24c-4.33,0-5.88-3.04-5.88-5.88,0-.65.53-1.18,1.18-1.18s1.18.53,1.18,1.18c0,1.61.61,3.53,3.53,3.53.65,0,1.18.53,1.18,1.18s-.53,1.18-1.18,1.18Z" style="fill: #f2a891; stroke-width: 0px;"/>
        </g>
        <path d="m102.92,87.23c2.34-1.82,7.66-4.34,10.61-4.53,3.9-.26,12.75,1.81,12.75,1.81,0,0-.87.36-2.03.63s-7.04.2-10.46,1.2c-3.61,1.06-7.72,3.8-7.72,3.8,0,0-4.23-.63-3.15-2.9Z" style="fill: #c6522a; stroke-width: 0px;"/>
        <path d="m90.32,92.29c-2.15-1.4-5.83-2.71-8.11-2.42-3,.38-7.08,3.03-7.08,3.03,0,0,1.6.87,2.53.94s3.98-1.21,5.3-.82c1.2.35,5.58,2.62,5.58,2.62,0,0,3.07-1.3,1.77-3.35Z" style="fill: #c6522a; stroke-width: 0px;"/>
        <path d="m111.62,94.38l-.7-.94c3.93-2.94,9.78-2.47,13.56-.79l-.48,1.07c-3.58-1.59-8.99-1.87-12.38.66Z" style="fill: #4c271a; stroke-width: 0px;"/>
        <path d="m98.44,129.26c-1.93,0-3.54-.39-4.63-1.2-.52-.39-.63-1.12-.24-1.65.39-.52,1.12-.63,1.65-.24,2.95,2.21,15.34-.62,23.32-9.26.44-.48,1.18-.51,1.66-.07s.51,1.18.07,1.66c-6.28,6.8-15.68,10.75-21.83,10.75Z" style="fill: #ea8686; stroke-width: 0px;"/>
        <path d="m81.9,101.69l-.7-.94c3.63-2.71,6.5-3.04,10.59-1.22l-.48,1.07c-3.73-1.65-6.11-1.38-9.41,1.09Z" style="fill: #4c271a; stroke-width: 0px;"/>
      </g>
    </g>
  </g>
  <g>
    <path d="m153.3,16.89c4.36-.36,8.45-.51,12.48-1.07,5.71-.8,10.96-2.86,15.51-6.54.44-.36,1.58-.49,1.95-.19,7.17,5.82,15.61,7.39,24.51,7.5,1.18.01,2.35,0,3.79,0,0,.93,0,1.7,0,2.47,0,8.26-.13,16.52.04,24.77.14,6.77-1.88,12.74-5.85,18.11-5.47,7.42-12.37,13.14-20.56,17.34-1.57.81-3.09,1.24-4.87.34-10.12-5.16-18.5-12.18-24.06-22.24-2.05-3.71-2.99-7.71-2.97-11.98.05-8.79.02-17.57.02-26.36,0-.72,0-1.44,0-2.16Zm52.18,18.87c0-3.76-.05-7.53.03-11.29.03-1.39-.3-1.96-1.82-2.05-7.21-.43-14.07-2.12-20.35-5.85-.48-.28-1.42-.27-1.91.01-6.22,3.69-13.02,5.41-20.16,5.82-1.72.1-2.02.73-2.01,2.27.07,6.8.08,13.6,0,20.41-.04,3.67.85,7.07,2.67,10.21,4.65,8,11.47,13.72,19.47,18.11.61.34,1.81.12,2.5-.26,6.32-3.48,11.78-8.02,16.22-13.72,3.31-4.26,5.58-8.94,5.37-14.54-.11-3.03-.02-6.07-.02-9.11Z" style="fill: #ff6b00; stroke-width: 0px;"/>
    <path d="m205.48,35.76c0,3.04-.09,6.08.02,9.11.21,5.61-2.06,10.29-5.37,14.54-4.44,5.7-9.9,10.24-16.22,13.72-.69.38-1.88.59-2.5.26-8-4.39-14.82-10.11-19.47-18.11-1.83-3.14-2.71-6.53-2.67-10.21.07-6.8.06-13.6,0-20.41-.02-1.53.29-2.17,2.01-2.27,7.14-.41,13.93-2.14,20.16-5.82.48-.29,1.43-.3,1.91-.01,6.28,3.73,13.15,5.42,20.35,5.85,1.53.09,1.85.66,1.82,2.05-.08,3.76-.03,7.53-.03,11.29Zm-11.07-4.24c-5.26,5.34-10.34,10.49-15.9,16.14-1.6-1.94-3.14-3.81-4.45-5.4-1.84,1.74-3.4,3.2-4.77,4.5,3.27,3.29,6.56,6.59,9.64,9.69,6.67-6.67,13.42-13.41,20.04-20.04-1.31-1.41-2.74-2.94-4.56-4.9Z" style="fill: #fff; stroke-width: 0px;"/>
    <path d="m194.42,31.52c1.82,1.96,3.25,3.49,4.56,4.9-6.63,6.63-13.37,13.37-20.04,20.04-3.08-3.1-6.37-6.4-9.64-9.69,1.38-1.3,2.93-2.77,4.77-4.5,1.31,1.59,2.85,3.46,4.45,5.4,5.57-5.65,10.64-10.8,15.9-16.14Z" style="stroke-width: 0px;"/>
  </g>
</svg>