<?xml version="1.0" encoding="UTF-8"?>
<svg id="Layer_1" data-name="Layer 1" xmlns="http://www.w3.org/2000/svg" width="222" height="222" xmlns:xlink="http://www.w3.org/1999/xlink" viewBox="0 0 222 222">
  <defs>
    <clipPath id="clippath">
      <circle cx="-130.23" cy="-134.19" r="106.47" style="fill: none; stroke-width: 0px;"/>
    </clipPath>
    <clipPath id="clippath-1">
      <circle cx="111" cy="111" r="106.47" style="fill: none; stroke-width: 0px;"/>
    </clipPath>
  </defs>
  <g style="clip-path: url(#clippath);">
    <rect x="-314.77" y="-271.18" width="344.85" height="336.47" style="fill: #d4e9eb; stroke-width: 0px;"/>
    <g>
      <g>
        <path d="m-135.67-198.75s0-2.35-4.7-3.53-20.56,7.64-26.44,12.34c-5.88,4.7-10.58,24.68-14.1,34.08-2.41,6.42-17.04,34.67-8.81,55.82,8.23,21.15,97.53,130.44,121.03,133.96C-45.19,37.45-3.47,25.11,5.93-6.62c9.4-31.73,4.32-65.77-47-101.06-56.4-38.78-51.12-69.92-63.46-82.26-6.49-6.49-16.45-12.93-21.15-12.93s-9.99,4.11-9.99,4.11Z" style="fill: #ff6b00; stroke-width: 0px;"/>
        <path d="m-5.84,14.27c-.09,0-.19-.02-.28-.07-.29-.15-.39-.51-.24-.8,1.22-2.29,29.41-56.59-16.27-91.82-61.15-47.17-68.25-69.4-74.51-89.01-1.35-4.22-2.62-8.2-4.4-12.28-4.16-9.53-22.82-21.03-29.14-20.79-1.26.06-1.44.59-1.49.77-.1.31-.43.48-.74.37-.31-.1-.47-.44-.37-.74.22-.67.85-1.49,2.56-1.57,6.74-.28,25.87,11.41,30.27,21.49,1.8,4.13,3.08,8.15,4.44,12.39,6.21,19.45,13.25,41.48,74.11,88.44C24.54-43.52-4.09,11.62-5.33,13.96c-.11.2-.31.31-.52.31Z" style="fill: #f2460a; stroke-width: 0px;"/>
      </g>
      <path d="m-32.47,24.18S-15.03-16.45-13.11-20.23c3.39-6.69,10.16-25.98,14.45-35.73,4.34-9.86,19.18-3.74,14.84,8.59-.13.37-7.18,25.1-8.02,28.83C4.15-.8,1.88,25.38-4.15,38.26c-8.28,17.65-18.73,24.73-21,25.36s-5.78.33-10.83-12.41c-5.46-13.76,3.52-27.03,3.52-27.03Z" style="fill: #ffbcab; stroke-width: 0px;"/>
    </g>
  </g>
  <g style="clip-path: url(#clippath-1);">
    <rect x="-49.32" y="-25.99" width="344.85" height="336.47" transform="translate(246.21 284.48) rotate(180)" style="fill: #d4e9eb; stroke-width: 0px;"/>
    <g>
      <g>
        <path d="m105.29,46.62s-.26-2.34,4.29-4.02,21.28,5.34,27.63,9.36c6.36,4.03,13.22,23.37,17.75,32.33,3.1,6.11,20.74,32.59,14.88,54.51-5.86,21.93-82.63,140.35-105.61,146.43-22.97,6.08-65.79-1.61-78.62-32.11-12.82-30.5-11.51-64.9,35.63-105.6,51.81-44.73,43.14-75.1,54.05-88.72,5.74-7.16,14.93-14.65,19.61-15.17s10.38,2.99,10.38,2.99Z" style="fill: #ff6b00; stroke-width: 0px;"/>
        <path d="m-.38,272.59c.09-.01.18-.04.27-.1.27-.18.34-.55.15-.82-1.47-2.15-35.44-53.02,6.1-93.05,55.61-53.6,60.22-76.47,64.3-96.65.88-4.34,1.7-8.44,3.02-12.69,3.08-9.93,20.38-23.4,26.68-23.86,1.26-.08,1.49.43,1.57.6.14.29.48.43.78.29.29-.14.42-.49.29-.78-.3-.64-1.01-1.39-2.71-1.28-6.73.46-24.46,14.18-27.73,24.69-1.34,4.31-2.17,8.43-3.05,12.81-4.04,20.01-8.62,42.69-63.96,96.03-42.24,40.71-7.74,92.38-6.25,94.56.13.19.34.28.55.25Z" style="fill: #f2460a; stroke-width: 0px;"/>
        <path d="m41.53,288.34c.23-.03.44-.19.5-.43.08-.31-.1-.64-.42-.72-12.77-3.41-31.27-22.66-37.42-44.83-3.69-13.29-4.45-32.89,12.85-50.76,51.06-52.77,54.59-82.17,57.18-103.64.74-6.18,1.39-11.52,3-16.72,3.21-10.32,23.37-22.96,28.69-22.22.8.11.92.51.93.92,0,.32.27.58.6.58.31-.01.58-.27.58-.6-.02-1.14-.73-1.89-1.94-2.06-5.69-.8-26.56,12.01-29.98,23.03-1.65,5.3-2.33,10.95-3.05,16.93-2.56,21.3-6.07,50.48-56.86,102.96C-1.48,209.05-.7,229.08,3.07,242.67c2.93,10.59,8.85,21.29,16.65,30.14,7.13,8.09,15.01,13.74,21.6,15.5.07.02.15.02.22.02Z" style="fill: #f2460a; stroke-width: 0px;"/>
        <path d="m81.39,266.21c2.91-.32,5.75-1.03,8.46-2.15.3-.12.44-.47.32-.77-.12-.3-.47-.45-.77-.32-13.62,5.61-30.59.54-42.22-12.62-11.57-13.09-18.79-36.18-4.36-61.72,33.38-59.09,34.26-78,34.96-93.2.27-5.84.5-10.88,2.54-17.45,3.07-9.88,25.51-22.55,31.94-21.29,1.09.22,1.54.8,1.45,1.88-.03.32.21.61.53.64.31.03.61-.21.64-.53.15-1.69-.7-2.8-2.39-3.14-7.02-1.38-30.05,11.66-33.29,22.09-2.09,6.72-2.33,12.08-2.6,17.75-.7,15.07-1.56,33.82-34.81,92.67-14.74,26.08-7.34,49.69,4.5,63.08,9.66,10.93,22.92,16.42,35.08,15.07Z" style="fill: #f2460a; stroke-width: 0px;"/>
        <path d="m161.79,156.84c.19-.02.36-.13.46-.31,5.87-11.32-3.1-35.61-8.66-46.86-2.21-4.48-3.28-10.05-4.41-15.95-1.98-10.36-4.03-21.07-12.44-28.49-.24-.22-.62-.19-.83.05-.22.24-.19.61.05.83,8.11,7.16,10.12,17.67,12.06,27.83,1.14,5.98,2.22,11.63,4.51,16.25,5.47,11.07,14.32,34.9,8.67,45.8-.15.29-.04.64.25.79.11.06.22.07.33.06Z" style="fill: #f2460a; stroke-width: 0px;"/>
        <path d="m136.25,204.76c.19-.02.51-.12.46-.31-6.98-24.82,20.8-60.81,11.6-89.39-.85-2.64-1.5-5.44-2.13-8.41-1.81-8.47-3.86-18.07-13.71-26.76-.24-.22-.62-.19-.83.05-.22.24-.19.61.05.83,9.56,8.43,11.57,17.83,13.34,26.12.64,3.01,1.37,5.81,2.17,8.54,9.37,32.01-20.64,65.13-11.53,88.47.12.3-.04.64.25.79.11.06.22.07.33.06Z" style="fill: #f2460a; stroke-width: 0px;"/>
        <path d="m112.78,224.68c.19-.02.51-.12.46-.31-8.54-35.36,14.74-69.68,17.1-72.18,5.19-5.47,10.56-11.13,9.67-26.61-.62-10.86-2.08-20.54-7.16-32.51-.13-.3-.48-.44-.77-.31-.3.13-.44.47-.31.77,5.01,11.81,6.45,21.38,7.07,32.12.86,14.98-4.1,20.2-9.35,25.74-2.43,2.55-26.46,35.28-17.3,72.45.08.31-.04.64.25.79.11.06.22.07.33.06Z" style="fill: #f2460a; stroke-width: 0px;"/>
      </g>
      <g>
        <path d="m169.51,236.12c-8.74-15.44-13.74-24.56-16.13-29.43-5.22-10.63-8.16-14.56-11.47-21.6-3.78-8.03-1.31-22.69,8.93-24.35,10.14-1.64,17.91,1.57,23.61,10.4s18.66,40.5,21.51,44.92,24.5,39.86,24.5,39.86c0,0,11.81,19.44,7.49,32.99-2.75,8.63-11.16,8.31-17.14,5.36-6.68-3.3-11.01-11.24-19.3-22.15-8.3-10.91-21.94-35.65-22-35.99Z" style="fill: #ffbcab; stroke-width: 0px;"/>
        <path d="m196.01,222.15s-22.77-37.91-24.72-41.67c-3.45-6.66-15.14-23.43-20.54-32.62-5.46-9.29,8.17-17.74,15.64-7.02.22.32,16.17,20.5,18.7,23.36,12.06,13.62,31.98,30.77,38.9,43.2,9.48,17.04,9.11,29.66,8.3,31.86s-3.11,4.88-16.4,1.53c-14.35-3.61-19.87-18.65-19.87-18.65Z" style="fill: #ffbcab; stroke-width: 0px;"/>
        <path d="m151.07,146.61s-1.12-2.62-1.25-3.55c-.34-2.37,0-6.93,4.05-9.97,3.83-2.88,7.94-4.97,10.84-8.67.23-.24.46-.49.68-.74,1.55-1.78,2.78-3.92,4.05-6.4.24-.35.49-.7.73-1.06.99-1.41,2-2.85,3.07-4.29.31-.36.61-.72.92-1.05,1.55-1.65,3.78-3.16,5.71-.5.21.29.42.89.37,1.21.1,4.44-4.16,8.01-6.75,11.45-1.13,1.7-.33,2.78-.27,2.97.26-.03.91.77,4.22-.8,5.29-3.18,9.77,1.04,14.81,1.01.56,0,1.13-.06,1.7-.18.3,0,.6-.02.9-.04,2.68.28,5.15-.65,7.62-.97.41-.05.82-.09,1.24-.1,1-.49,1.85-.34,2.63.12.2.11,1.99,1.4,2.28,1.54,2.73,1.23,5.98-.13,9.26-.98.29-.02.57-.02.85.01,1.68.19,6.43.38,3.2,4.1-.74.85-5.22,2.49-5.68,2.67-2.63.84-8.73,3.54-9.11,3.72-3.86,1.78-8.06,4.14-12.56,4.36-.61.19-9.81,3.9-13.48,5.61-.99.57-5.5,3.7-5.82,3.94-17.33,13.22-24.2-3.41-24.2-3.41Z" style="fill: #ffbcab; stroke-width: 0px;"/>
      </g>
      <g>
        <path d="m61.53,248.04c5.16-16.97,8.05-26.97,9.32-32.23,2.77-11.51,4.79-15.99,6.48-23.58,1.93-8.67-3.67-22.43-14.03-21.82-10.26.61-17.13,5.44-20.77,15.3s-9.38,43.6-11.2,48.52c-1.82,4.93-15.22,44.24-15.22,44.24,0,0-7.28,21.55-.11,33.83,4.56,7.82,12.7,5.68,17.89,1.49,5.8-4.68,8.29-13.37,14.01-25.83,5.72-12.45,13.63-39.57,13.62-39.93Z" style="fill: #ffbcab; stroke-width: 0px;"/>
        <path d="m41.73,228.04s12.93-39.89,13.92-43.78c1.76-6.89,8.97-24.88,12-34.53,3.06-9.75-11.35-14.64-15.95-3.13-.14.34-10.55,22.4-12.28,25.59-8.23,15.16-22.96,35.27-26.69,48.23-5.12,17.77-2.07,29.35-.85,31.21s3.92,3.84,15.48-2.09c12.49-6.41,14.37-21.49,14.37-21.49Z" style="fill: #ffbcab; stroke-width: 0px;"/>
        <path d="m65.82,148.32s.86-2.56.92-3.45c.14-2.27-.52-6.55-4.57-9.12-3.84-2.44-7.88-4.11-10.89-7.39-.24-.21-.47-.43-.7-.65-1.6-1.57-2.92-3.49-4.3-5.75-.26-.31-.51-.63-.77-.95-1.04-1.26-2.11-2.54-3.23-3.83-.32-.32-.63-.63-.95-.92-1.59-1.44-3.81-2.7-5.44-.04-.17.29-.33.88-.26,1.17.23,4.2,4.53,7.27,7.24,10.32,1.2,1.52.52,2.6.48,2.79-.25,0-.8.8-4.05-.44-5.23-2.61-9.16,1.71-13.93,2.06-.53.04-1.07.03-1.62-.05-.29.02-.57.03-.86.03-2.51.46-4.91-.23-7.27-.35-.39-.02-.78-.02-1.18,0-.98-.39-1.77-.18-2.47.31-.18.12-1.77,1.47-2.04,1.62-2.49,1.36-5.67.32-8.83-.24-.27,0-.54.03-.8.08-1.57.31-6.05.84-2.72,4.11.76.75,5.12,1.97,5.57,2.1,2.55.6,8.51,2.7,8.89,2.84,3.78,1.39,7.93,3.31,12.19,3.18.59.13,9.57,2.96,13.16,4.3.98.47,5.47,3.09,5.79,3.29,17.37,11.21,22.63-5.03,22.63-5.03Z" style="fill: #ffbcab; stroke-width: 0px;"/>
      </g>
      <path d="m70.49,298.18c9.31-21.41,11.01-7.77-9.72-64.86-5.58-15.37-29.75-54.52-.71-63.04.58-.17,7.66-2.41,10.85-3.97,8.82-4.31,14.33-8.19,15.52-9.68,3.42-4.27-1.81-40.75-1.81-40.75,0,0,8.27-3.1,18.35-3.9,10.02-1.42,18.76-.2,18.76-.2,0,0,2.84,36.74,7.12,40.16,1.5,1.2,7.72,3.78,17.26,6.06,3.45.83,10.85,1.47,11.45,1.51,30.2,1.98,15.32,45.49,13.05,61.68-8.85,63.28-7.79,49.92,5.01,66.3-15.8,9.55-37.37,20-49.82,21.37-12.94,1.43-37.62-4.56-55.31-10.68Z" style="fill: #ffbcab; stroke-width: 0px;"/>
      <g>
        <path d="m117.04,229.49s33.54-10,33.04-35.95c-.29-15.21-5.36-30.62-11.72-38.58,3.52,1.1,7.1,2.1,9.95,2.81,4.87,10.94,11.62,25.84,13.38,28.58,2.85,4.41,13.8,23.3,12.63,34.07-1.18,10.77-8.45,19.85-22.34,22.56-13.89,2.71-34.52-7.86-34.52-7.86l-.43-5.63Z" style="fill: #fcf5ec; stroke-width: 0px;"/>
        <path d="m117.04,229.49s-34.89-2.44-40.06-27.88c-3.03-14.9-1.44-31.05,3.02-40.21-3.2,1.84-6.47,3.6-9.1,4.91-2.37,11.74-5.7,27.75-6.83,30.81-1.82,4.93-8.39,25.75-4.89,36.01s12.57,17.53,26.72,17.15c14.14-.38,31.57-15.16,31.57-15.16l-.43-5.63Z" style="fill: #fcf5ec; stroke-width: 0px;"/>
      </g>
      <g>
        <path d="m114.11,175.68c.24-.03.48-.13.67-.31,4.12-3.86,8.25-6.58,15.03-7.33.65-.07,1.11-.65,1.04-1.3s-.65-1.11-1.3-1.04c-7.87.87-12.52,4.34-16.38,7.96-.47.44-.5,1.19-.05,1.66.26.28.63.4.99.36Z" style="fill: #f2a891; stroke-width: 0px;"/>
        <path d="m103.8,176.82c-.24.03-.5-.02-.73-.16-4.86-2.87-9.48-4.63-16.27-3.88-.65.07-1.23-.39-1.3-1.04s.39-1.23,1.04-1.3c7.87-.87,13.17,1.5,17.72,4.19.56.33.75,1.05.41,1.61-.2.33-.53.53-.88.57Z" style="fill: #f2a891; stroke-width: 0px;"/>
      </g>
      <g>
        <g>
          <path d="m80.91,105.62c-4.91-23.1,33.12-42.67,33.12-42.67,0,0,7.28,3.36,15.05,7.8,6.94,3.96,8.81,15.58,12.38,21.1,2.55,3.95-2.67,13.3-2.28,16.8s1.42,12.85-3.78,19.33c-5.2,6.48-13.44,13.67-14.93,14.65-11.22,7.4-17.1,1.61-25.33-6.94-9.4-9.76-12.71-22.96-14.22-30.07Z" style="fill: #f2a891; stroke-width: 0px;"/>
          <path d="m82.38,104.27c-4.91-23.1,33.12-42.67,33.12-42.67,0,0,7.28,3.36,15.05,7.8,6.94,3.96,8.81,15.58,12.38,21.1,2.55,3.95-2.67,13.3-2.28,16.8s1.42,12.85-3.78,19.33c-5.2,6.48-13.44,13.67-14.93,14.65-11.22,7.4-17.1,1.61-25.33-6.94-9.4-9.76-12.71-22.96-14.22-30.07Z" style="fill: #ffbcab; stroke-width: 0px;"/>
          <ellipse cx="99.18" cy="97.61" rx="4.11" ry="3.19" transform="translate(-8.01 186.35) rotate(-84.16)" style="fill: #4c271a; stroke-width: 0px;"/>
          <ellipse cx="128.76" cy="101.53" rx="4.11" ry="3.18" transform="translate(7.84 212.29) rotate(-80.75)" style="fill: #4c271a; stroke-width: 0px;"/>
          <ellipse cx="127.46" cy="100.49" rx="1.69" ry="1.31" transform="translate(26.38 227.48) rotate(-89.73)" style="fill: #fcf5ec; stroke-width: 0px;"/>
          <ellipse cx="97.49" cy="96.71" rx="1.69" ry="1.31" transform="translate(.33 193.74) rotate(-89.73)" style="fill: #fcf5ec; stroke-width: 0px;"/>
          <path d="m117.47,120.53c4.31-.48,5.51-3.66,5.2-6.48-.07-.65-.65-1.11-1.3-1.04s-1.11.65-1.04,1.3c.18,1.6-.22,3.57-3.12,3.89-.65.07-1.11.65-1.04,1.3s.65,1.11,1.3,1.04Z" style="fill: #f2a891; stroke-width: 0px;"/>
        </g>
        <path d="m112.4,86.76c-2.53,1.56-8.09,3.47-11.05,3.34-3.91-.17-12.47-3.19-12.47-3.19,0,0,.91-.26,2.09-.4s7.02.57,10.52-.05c3.71-.65,8.09-2.93,8.09-2.93,0,0,4.13,1.09,2.81,3.23Z" style="fill: #c6522a; stroke-width: 0px;"/>
        <path d="m123.2,89.67c1.99,1.63,5.5,3.33,7.79,3.29,3.03-.05,7.37-2.24,7.37-2.24,0,0-1.49-1.04-2.42-1.21s-4.09.76-5.36.24c-1.15-.48-5.26-3.22-5.26-3.22,0,0-3.19.96-2.13,3.14Z" style="fill: #c6522a; stroke-width: 0px;"/>
        <path d="m104.53,94.94l.59-1.01c-4.23-2.49-10-1.38-13.57.7l.59,1.02c3.39-1.97,8.73-2.85,12.38-.7Z" style="fill: #4c271a; stroke-width: 0px;"/>
        <path d="m134.87,98.94l.59-1.01c-3.9-2.29-6.79-2.31-10.66-.05l.59,1.02c3.53-2.05,5.92-2.04,9.48.05Z" style="fill: #4c271a; stroke-width: 0px;"/>
        <path d="m118.78,126.68c-2.2-3.09-8.59-3.31-11.16,0" style="fill: none; stroke: #ea8686; stroke-linecap: round; stroke-miterlimit: 10; stroke-width: 2px;"/>
      </g>
    </g>
  </g>
</svg>